<?xml version="1.0" encoding="utf-8"?>
<!DOCTYPE svg PUBLIC "-//W3C//DTD SVG 1.1//EN" "http://www.w3.org/Graphics/SVG/1.1/DTD/svg11.dtd">
<svg version="1.1" id="Layer_1" xmlns="http://www.w3.org/2000/svg" xmlns:xlink="http://www.w3.org/1999/xlink" x="0px" y="0px"
	 width="50px" height="50px" viewBox="0 0 50 50" enable-background="new 0 0 50 50" xml:space="preserve">
<path d="M0,25.017c0-2.271,0.303-4.467,0.91-6.592c0.606-2.124,1.455-4.113,2.544-5.967c1.089-1.854,2.398-3.545,3.925-5.074
	c1.527-1.528,3.212-2.837,5.054-3.928s3.824-1.939,5.947-2.546S22.697,0,24.966,0s4.464,0.303,6.587,0.91s4.109,1.456,5.963,2.546
	s3.549,2.399,5.088,3.928c1.539,1.529,2.854,3.22,3.941,5.074c1.09,1.854,1.938,3.843,2.545,5.967C49.695,20.55,50,22.747,50,25.017
	c0,2.292-0.305,4.496-0.91,6.608c-0.607,2.112-1.455,4.097-2.545,5.95c-1.088,1.855-2.402,3.547-3.941,5.074
	c-1.539,1.529-3.234,2.838-5.088,3.929s-3.84,1.933-5.963,2.528S27.234,50,24.966,50c-2.291,0-4.492-0.298-6.604-0.894
	c-2.111-0.596-4.093-1.438-5.946-2.528c-1.854-1.091-3.543-2.399-5.071-3.929c-1.528-1.527-2.836-3.219-3.925-5.074
	c-1.089-1.854-1.932-3.843-2.527-5.967S0,27.288,0,25.017z M4.177,25.017c0,2.855,0.545,5.546,1.634,8.075s2.578,4.737,4.464,6.625
	s4.094,3.377,6.621,4.468c2.527,1.09,5.217,1.635,8.069,1.635s5.542-0.551,8.069-1.652c2.527-1.101,4.74-2.596,6.637-4.484
	c1.898-1.888,3.398-4.09,4.498-6.607c1.102-2.518,1.652-5.203,1.652-8.058c0-1.91-0.254-3.748-0.76-5.513
	c-0.504-1.765-1.213-3.422-2.121-4.973c-0.91-1.551-2.006-2.961-3.285-4.231c-1.281-1.27-2.691-2.36-4.229-3.271
	c-1.539-0.911-3.189-1.613-4.953-2.107c-1.764-0.494-3.6-0.742-5.509-0.742c-2.853,0-5.542,0.551-8.069,1.652
	s-4.734,2.596-6.621,4.484s-3.375,4.097-4.464,6.625C4.722,19.471,4.177,22.163,4.177,25.017z M18.294,39.683v-3.506
	c0.832,0.652,1.719,1.135,2.662,1.449c0.943,0.315,1.842,0.473,2.695,0.473c0.898,0,1.701-0.163,2.409-0.489
	c0.707-0.325,1.309-0.775,1.803-1.349c0.494-0.572,0.865-1.247,1.111-2.022c0.248-0.776,0.371-1.612,0.371-2.513
	c0-1.977-0.551-3.477-1.65-4.5c-1.102-1.022-2.606-1.534-4.515-1.534c-0.337,0-0.876,0.017-1.617,0.05s-1.583,0.096-2.527,0.186
	l1.348-14.531H31.4v2.967h-8.49l-0.91,8.564c0.382-0.022,0.741-0.051,1.078-0.084s0.663-0.051,0.977-0.051
	c1.303,0,2.482,0.208,3.538,0.624c1.055,0.416,1.943,1.006,2.662,1.77c0.719,0.764,1.273,1.686,1.668,2.765
	c0.393,1.078,0.59,2.271,0.59,3.574c0,1.348-0.209,2.596-0.625,3.742c-0.414,1.146-1.004,2.136-1.768,2.967
	c-0.764,0.832-1.697,1.479-2.797,1.938c-1.101,0.461-2.336,0.691-3.706,0.691c-1.123,0-2.151-0.102-3.083-0.304
	S18.856,40.065,18.294,39.683z"/>
</svg>
