<?xml version="1.0" encoding="utf-8"?>
<!DOCTYPE svg PUBLIC "-//W3C//DTD SVG 1.1//EN" "http://www.w3.org/Graphics/SVG/1.1/DTD/svg11.dtd">
<svg version="1.1" id="Layer_1" xmlns="http://www.w3.org/2000/svg" xmlns:xlink="http://www.w3.org/1999/xlink" x="0px" y="0px"
	 width="50px" height="50px" viewBox="0 0 50 50" enable-background="new 0 0 50 50" xml:space="preserve">
<path d="M0,25.017c0-2.271,0.304-4.468,0.91-6.592s1.454-4.113,2.543-5.967c1.089-1.854,2.397-3.545,3.925-5.074
	c1.527-1.528,3.212-2.837,5.054-3.928c1.841-1.09,3.824-1.939,5.947-2.546S22.697,0,24.966,0c2.268,0,4.463,0.303,6.586,0.91
	s4.111,1.456,5.965,2.546c1.852,1.09,3.549,2.399,5.086,3.928c1.539,1.529,2.854,3.22,3.943,5.074
	c1.088,1.854,1.936,3.843,2.543,5.967c0.605,2.124,0.91,4.321,0.91,6.592c0,2.292-0.305,4.495-0.91,6.608
	c-0.607,2.112-1.455,4.096-2.543,5.95c-1.09,1.854-2.404,3.546-3.943,5.074c-1.537,1.529-3.234,2.838-5.086,3.928
	c-1.854,1.091-3.842,1.934-5.965,2.528C29.43,49.701,27.234,50,24.966,50c-2.291,0-4.493-0.299-6.604-0.895
	c-2.111-0.595-4.094-1.438-5.947-2.528c-1.853-1.09-3.543-2.398-5.071-3.928c-1.528-1.528-2.836-3.22-3.925-5.074
	c-1.09-1.854-1.932-3.843-2.527-5.968C0.297,29.484,0,27.287,0,25.017z M4.178,25.017c0,2.854,0.544,5.546,1.634,8.075
	c1.089,2.528,2.577,4.736,4.464,6.625c1.887,1.888,4.094,3.377,6.621,4.467c2.527,1.091,5.217,1.635,8.069,1.635
	c2.852,0,5.542-0.551,8.069-1.651s4.74-2.597,6.639-4.484c1.896-1.888,3.396-4.091,4.498-6.608c1.1-2.517,1.65-5.203,1.65-8.058
	c0-1.91-0.254-3.748-0.758-5.513c-0.506-1.765-1.213-3.422-2.123-4.973c-0.91-1.551-2.004-2.961-3.285-4.231
	s-2.689-2.36-4.229-3.271c-1.539-0.911-3.189-1.613-4.953-2.107c-1.764-0.494-3.6-0.742-5.508-0.742
	c-2.853,0-5.542,0.551-8.069,1.652c-2.527,1.101-4.734,2.596-6.621,4.484c-1.887,1.888-3.375,4.097-4.464,6.625
	C4.722,19.47,4.178,22.162,4.178,25.017z M29.145,11.227v18.645h3.133v3.136h-3.133v7.216h-3.033v-7.216H15.027V30.04
	c0.606-0.898,1.286-1.95,2.039-3.152c0.752-1.202,1.516-2.45,2.291-3.743c0.775-1.292,1.533-2.584,2.274-3.877
	s1.415-2.49,2.021-3.591s1.117-2.045,1.533-2.832c0.416-0.787,0.668-1.326,0.758-1.619H29.145z M26.111,29.871V16.453
	c-1.145,2.518-2.387,4.867-3.723,7.046c-1.336,2.181-2.679,4.305-4.026,6.372H26.111z"/>
</svg>
