<?xml version="1.0" encoding="utf-8"?>
<!DOCTYPE svg PUBLIC "-//W3C//DTD SVG 1.1//EN" "http://www.w3.org/Graphics/SVG/1.1/DTD/svg11.dtd">
<svg version="1.1" id="Layer_1" xmlns="http://www.w3.org/2000/svg" xmlns:xlink="http://www.w3.org/1999/xlink" x="0px" y="0px"
	 width="50px" height="50px" viewBox="0 0 50 50" enable-background="new 0 0 50 50" xml:space="preserve">
<path d="M0.061,25.027c0-2.27,0.303-4.466,0.908-6.589c0.605-2.124,1.451-4.112,2.538-5.966C4.594,10.619,5.899,8.928,7.424,7.4
	c1.524-1.528,3.205-2.836,5.042-3.927c1.838-1.089,3.816-1.938,5.934-2.545c2.118-0.606,4.309-0.91,6.572-0.91
	c2.265,0,4.454,0.303,6.573,0.91c2.118,0.607,4.101,1.456,5.95,2.545c1.85,1.09,3.542,2.399,5.076,3.927
	c1.534,1.528,2.846,3.219,3.935,5.072c1.087,1.854,1.932,3.842,2.537,5.966c0.605,2.123,0.908,4.319,0.908,6.589
	c0,2.292-0.303,4.495-0.908,6.605c-0.605,2.112-1.45,4.096-2.537,5.948c-1.089,1.854-2.4,3.545-3.935,5.074
	s-3.227,2.836-5.076,3.925c-1.85,1.093-3.832,1.935-5.95,2.528c-2.119,0.596-4.309,0.894-6.573,0.894
	c-2.286,0-4.482-0.298-6.589-0.894c-2.106-0.594-4.084-1.436-5.934-2.528c-1.849-1.089-3.536-2.396-5.06-3.925
	c-1.525-1.529-2.83-3.22-3.917-5.074c-1.087-1.853-1.928-3.842-2.521-5.965C0.358,29.493,0.061,27.298,0.061,25.027z M4.23,25.027
	c0,2.854,0.543,5.544,1.63,8.071c1.087,2.528,2.572,4.736,4.455,6.623c1.882,1.888,4.084,3.376,6.606,4.467
	c2.521,1.092,5.205,1.634,8.051,1.634c2.846,0,5.531-0.551,8.052-1.651c2.521-1.099,4.729-2.595,6.623-4.482
	c1.894-1.888,3.391-4.09,4.488-6.606c1.098-2.515,1.647-5.201,1.647-8.055c0-1.909-0.252-3.747-0.757-5.511
	c-0.504-1.764-1.21-3.421-2.117-4.972c-0.908-1.55-2-2.96-3.278-4.229c-1.277-1.269-2.685-2.359-4.22-3.27
	c-1.534-0.91-3.182-1.612-4.941-2.106c-1.761-0.494-3.593-0.742-5.497-0.742c-2.846,0-5.53,0.551-8.051,1.652
	c-2.522,1.101-4.724,2.595-6.606,4.482c-1.882,1.888-3.367,4.095-4.455,6.623S4.23,22.174,4.23,25.027z M26.653,40.193H23.46V14.781
	c-0.336,0.405-0.734,0.787-1.193,1.146c-0.459,0.359-0.93,0.679-1.412,0.96s-0.964,0.522-1.445,0.725
	c-0.482,0.202-0.903,0.349-1.261,0.438v-3.134c1.344-0.562,2.572-1.18,3.681-1.854c1.109-0.674,2.202-1.584,3.278-2.73h1.546V40.193
	z"/>
</svg>
