<?xml version="1.0" encoding="utf-8"?>
<!DOCTYPE svg PUBLIC "-//W3C//DTD SVG 1.1//EN" "http://www.w3.org/Graphics/SVG/1.1/DTD/svg11.dtd">
<svg version="1.1" id="Layer_1" xmlns="http://www.w3.org/2000/svg" xmlns:xlink="http://www.w3.org/1999/xlink" x="0px" y="0px"
	 width="50px" height="50px" viewBox="0 0 50 50" enable-background="new 0 0 50 50" xml:space="preserve">
<path d="M0,25.017c0-2.27,0.303-4.467,0.91-6.591c0.606-2.124,1.454-4.113,2.543-5.967c1.09-1.854,2.398-3.545,3.926-5.074
	c1.527-1.528,3.212-2.837,5.054-3.928s3.824-1.939,5.946-2.546C20.502,0.303,22.697,0,24.967,0c2.269,0,4.464,0.303,6.586,0.91
	c2.123,0.607,4.111,1.456,5.964,2.546c1.854,1.09,3.549,2.399,5.088,3.928c1.538,1.529,2.853,3.22,3.942,5.074
	c1.089,1.854,1.937,3.843,2.543,5.967C49.697,20.55,50,22.747,50,25.017c0,2.293-0.303,4.496-0.91,6.608
	c-0.606,2.112-1.454,4.097-2.543,5.95c-1.09,1.855-2.404,3.547-3.942,5.074c-1.539,1.529-3.234,2.838-5.088,3.929
	c-1.853,1.091-3.841,1.933-5.964,2.528C29.431,49.702,27.235,50,24.967,50c-2.292,0-4.493-0.298-6.604-0.894
	s-4.094-1.438-5.946-2.528c-1.854-1.091-3.544-2.399-5.071-3.929c-1.527-1.527-2.836-3.219-3.925-5.074
	c-1.09-1.854-1.932-3.843-2.527-5.967C0.298,29.484,0,27.288,0,25.017z M4.178,25.017c0,2.855,0.545,5.547,1.635,8.075
	c1.089,2.528,2.577,4.737,4.464,6.625s4.094,3.377,6.62,4.468c2.527,1.09,5.217,1.635,8.07,1.635c2.853,0,5.542-0.551,8.069-1.652
	c2.526-1.101,4.739-2.596,6.637-4.484c1.898-1.888,3.397-4.09,4.498-6.607s1.651-5.203,1.651-8.059c0-1.91-0.253-3.747-0.758-5.512
	c-0.506-1.765-1.213-3.422-2.123-4.973s-2.005-2.961-3.285-4.231c-1.28-1.269-2.689-2.36-4.229-3.27
	c-1.538-0.911-3.189-1.613-4.953-2.107c-1.763-0.494-3.599-0.742-5.508-0.742c-2.854,0-5.543,0.551-8.07,1.652
	c-2.526,1.101-4.733,2.596-6.62,4.484s-3.375,4.096-4.464,6.625C4.723,19.471,4.178,22.163,4.178,25.017z M32.951,13.351
	c-1.056,2.09-2.072,4.22-3.049,6.389c-0.978,2.169-1.881,4.383-2.712,6.642c-0.831,2.26-1.562,4.553-2.19,6.879
	s-1.111,4.703-1.449,7.131h-3.335c0.27-2.293,0.713-4.563,1.331-6.811c0.617-2.248,1.336-4.462,2.156-6.643
	c0.819-2.18,1.713-4.315,2.679-6.406s1.932-4.135,2.897-6.136h-11.86v-3h15.532V13.351z"/>
</svg>
