<?xml version="1.0" encoding="utf-8"?>
<!DOCTYPE svg PUBLIC "-//W3C//DTD SVG 1.1//EN" "http://www.w3.org/Graphics/SVG/1.1/DTD/svg11.dtd">
<svg version="1.1" id="Layer_1" xmlns="http://www.w3.org/2000/svg" xmlns:xlink="http://www.w3.org/1999/xlink" x="0px" y="0px"
	 width="50px" height="50px" viewBox="0 0 50 50" enable-background="new 0 0 50 50" xml:space="preserve">
<path d="M-0.049,25.007c0-2.271,0.304-4.468,0.91-6.592c0.606-2.125,1.454-4.114,2.544-5.967c1.089-1.855,2.397-3.545,3.925-5.075
	c1.528-1.529,3.212-2.837,5.054-3.928c1.841-1.09,3.824-1.938,5.947-2.545c2.123-0.607,4.317-0.91,6.586-0.91
	c2.27,0,4.464,0.303,6.587,0.91c2.122,0.607,4.109,1.456,5.963,2.545c1.854,1.091,3.549,2.399,5.087,3.928
	c1.538,1.529,2.853,3.22,3.942,5.075c1.09,1.854,1.938,3.843,2.545,5.967c0.606,2.124,0.909,4.321,0.909,6.592
	c0,2.292-0.303,4.496-0.909,6.607c-0.607,2.113-1.455,4.099-2.545,5.952s-2.404,3.545-3.942,5.074
	c-1.538,1.528-3.232,2.837-5.087,3.928c-1.854,1.09-3.841,1.933-5.963,2.529c-2.123,0.595-4.317,0.893-6.587,0.893
	c-2.291,0-4.493-0.298-6.604-0.893c-2.111-0.597-4.093-1.439-5.946-2.529c-1.854-1.091-3.543-2.399-5.071-3.928
	c-1.528-1.529-2.836-3.221-3.925-5.074c-1.091-1.854-1.933-3.845-2.527-5.968C0.25,29.474-0.049,27.277-0.049,25.007z M4.129,25.007
	c0,2.854,0.544,5.546,1.634,8.075c1.09,2.529,2.578,4.737,4.465,6.625c1.887,1.888,4.093,3.376,6.621,4.467
	c2.527,1.091,5.216,1.636,8.069,1.636c2.852,0,5.542-0.551,8.07-1.652c2.526-1.102,4.738-2.596,6.637-4.483
	c1.898-1.889,3.398-4.091,4.498-6.608c1.102-2.517,1.651-5.204,1.651-8.058c0-1.91-0.253-3.749-0.759-5.513
	c-0.505-1.765-1.213-3.423-2.122-4.974s-2.005-2.961-3.285-4.231c-1.279-1.27-2.69-2.36-4.229-3.271
	c-1.538-0.911-3.189-1.613-4.953-2.107c-1.763-0.494-3.6-0.742-5.508-0.742c-2.853,0-5.542,0.551-8.069,1.652
	c-2.527,1.102-4.734,2.596-6.621,4.484c-1.887,1.888-3.375,4.097-4.465,6.625C4.673,19.461,4.129,22.152,4.129,25.007z
	 M25.255,10.307c0.943,0,1.806,0.197,2.594,0.59c0.786,0.394,1.471,0.939,2.056,1.635c0.582,0.697,1.038,1.54,1.364,2.529
	c0.325,0.99,0.488,2.069,0.488,3.237c0,1.146-0.174,2.23-0.522,3.253c-0.348,1.022-0.797,1.983-1.346,2.882
	c-0.553,0.899-1.164,1.732-1.838,2.495c-0.674,0.764-1.338,1.45-1.987,2.057c-0.562,0.539-1.134,1.117-1.718,1.737
	c-0.585,0.617-1.118,1.274-1.601,1.973c-0.483,0.695-0.876,1.427-1.179,2.191c-0.303,0.764-0.455,1.538-0.455,2.326h10.479v2.967
	H18.178v-1.484c0-1.348,0.141-2.567,0.422-3.657c0.281-1.092,0.662-2.091,1.146-3.002c0.483-0.91,1.066-1.757,1.752-2.545
	c0.686-0.787,1.432-1.55,2.241-2.293c0.674-0.629,1.309-1.236,1.904-1.82c0.595-0.585,1.106-1.214,1.534-1.889
	c0.425-0.674,0.763-1.404,1.011-2.191c0.246-0.786,0.369-1.696,0.369-2.731c0-1.685-0.374-3.012-1.128-3.978
	c-0.753-0.966-1.735-1.45-2.948-1.45c-0.472,0-0.978,0.09-1.517,0.271c-0.539,0.18-1.062,0.433-1.566,0.758
	c-0.506,0.326-0.983,0.703-1.432,1.129c-0.45,0.428-0.831,0.877-1.145,1.349V12.97c0.381-0.427,0.842-0.804,1.381-1.129
	s1.1-0.601,1.685-0.826c0.584-0.224,1.173-0.399,1.769-0.522C24.249,10.369,24.783,10.307,25.255,10.307z"/>
</svg>
