<?xml version="1.0" encoding="utf-8"?>
<!DOCTYPE svg PUBLIC "-//W3C//DTD SVG 1.1//EN" "http://www.w3.org/Graphics/SVG/1.1/DTD/svg11.dtd">
<svg version="1.1" id="Layer_1" xmlns="http://www.w3.org/2000/svg" xmlns:xlink="http://www.w3.org/1999/xlink" x="0px" y="0px"
	 width="50px" height="50px" viewBox="0 0 50 50" enable-background="new 0 0 50 50" xml:space="preserve">
<path d="M0,25.018c0-2.271,0.303-4.468,0.91-6.592s1.455-4.113,2.544-5.967c1.089-1.854,2.397-3.545,3.925-5.074
	c1.527-1.529,3.212-2.837,5.054-3.928c1.842-1.09,3.824-1.938,5.947-2.545S22.698,0,24.966,0c2.269,0,4.464,0.303,6.587,0.91
	c2.122,0.607,4.11,1.456,5.963,2.545c1.854,1.091,3.549,2.399,5.088,3.928s2.853,3.22,3.942,5.074
	c1.089,1.854,1.937,3.843,2.544,5.967C49.696,20.55,50,22.747,50,25.018c0,2.293-0.304,4.496-0.909,6.607
	c-0.607,2.113-1.455,4.098-2.544,5.951c-1.09,1.854-2.403,3.546-3.942,5.074c-1.539,1.529-3.234,2.838-5.088,3.928
	c-1.853,1.091-3.841,1.934-5.963,2.529C29.431,49.702,27.235,50,24.966,50c-2.291,0-4.492-0.298-6.604-0.893
	c-2.111-0.596-4.093-1.438-5.946-2.529c-1.854-1.09-3.543-2.398-5.071-3.928c-1.528-1.528-2.836-3.22-3.925-5.074
	c-1.089-1.854-1.932-3.844-2.527-5.967C0.298,29.484,0,27.288,0,25.018z M4.178,25.018c0,2.854,0.545,5.546,1.634,8.074
	c1.089,2.529,2.578,4.737,4.464,6.625c1.887,1.889,4.094,3.377,6.621,4.468s5.217,1.636,8.069,1.636c2.853,0,5.542-0.551,8.07-1.652
	c2.526-1.102,4.739-2.596,6.637-4.484c1.898-1.889,3.397-4.091,4.498-6.608c1.101-2.517,1.651-5.203,1.651-8.058
	c0-1.91-0.253-3.748-0.759-5.513c-0.505-1.765-1.213-3.422-2.122-4.973c-0.91-1.551-2.005-2.961-3.285-4.231
	s-2.689-2.36-4.229-3.271c-1.538-0.911-3.189-1.613-4.952-2.107c-1.764-0.494-3.6-0.742-5.509-0.742
	c-2.853,0-5.542,0.551-8.069,1.652c-2.527,1.102-4.734,2.596-6.621,4.484s-3.375,4.097-4.464,6.625
	C4.723,19.471,4.178,22.163,4.178,25.018z M30.525,11.16v3.136c-0.629-0.382-1.325-0.669-2.089-0.86
	c-0.764-0.19-1.494-0.287-2.19-0.287c-0.943,0-1.774,0.208-2.493,0.624s-1.336,0.972-1.853,1.669s-0.955,1.5-1.314,2.411
	c-0.359,0.91-0.64,1.849-0.842,2.815c-0.202,0.967-0.348,1.938-0.438,2.917c-0.09,0.978-0.135,1.871-0.135,2.68h0.067
	c1.124-2.742,2.965-4.113,5.526-4.113c1.213,0,2.274,0.253,3.184,0.759s1.662,1.175,2.258,2.006
	c0.595,0.832,1.044,1.787,1.348,2.866c0.303,1.079,0.455,2.191,0.455,3.337c0,1.192-0.175,2.373-0.523,3.541
	c-0.348,1.168-0.859,2.214-1.533,3.135c-0.674,0.922-1.504,1.664-2.492,2.226c-0.989,0.562-2.112,0.843-3.37,0.843
	c-1.595,0-2.915-0.426-3.959-1.281c-1.044-0.854-1.875-1.938-2.493-3.253c-0.618-1.315-1.05-2.753-1.297-4.315
	s-0.371-3.052-0.371-4.468c0-1.124,0.073-2.332,0.219-3.625c0.146-1.292,0.382-2.579,0.708-3.86s0.752-2.506,1.28-3.675
	c0.528-1.168,1.168-2.203,1.92-3.102c0.752-0.898,1.634-1.618,2.645-2.158s2.156-0.809,3.437-0.809c0.853,0,1.667,0.067,2.442,0.202
	S30.031,10.869,30.525,11.16z M24.158,25.018c-0.786,0-1.477,0.168-2.072,0.505c-0.595,0.337-1.095,0.782-1.499,1.333
	s-0.713,1.174-0.927,1.871c-0.213,0.696-0.32,1.416-0.32,2.157c0,0.765,0.09,1.573,0.27,2.428s0.466,1.635,0.859,2.343
	c0.393,0.709,0.893,1.299,1.5,1.771s1.348,0.708,2.224,0.708c0.831,0,1.539-0.197,2.123-0.59c0.583-0.393,1.062-0.905,1.432-1.534
	s0.646-1.332,0.825-2.107s0.27-1.546,0.27-2.31c0-0.809-0.078-1.606-0.236-2.394c-0.156-0.787-0.415-1.489-0.774-2.107
	s-0.843-1.118-1.449-1.5C25.775,25.208,25.034,25.018,24.158,25.018z"/>
</svg>
