<?xml version="1.0" encoding="utf-8"?>
<!DOCTYPE svg PUBLIC "-//W3C//DTD SVG 1.1//EN" "http://www.w3.org/Graphics/SVG/1.1/DTD/svg11.dtd">
<svg version="1.1" id="Layer_1" xmlns="http://www.w3.org/2000/svg" xmlns:xlink="http://www.w3.org/1999/xlink" x="0px" y="0px"
	 width="50px" height="50px" viewBox="0 0 50 50" enable-background="new 0 0 50 50" xml:space="preserve">
<path d="M-0.001,25.017c0-2.271,0.303-4.468,0.91-6.592s1.454-4.113,2.544-5.967c1.089-1.854,2.397-3.545,3.925-5.074
	c1.527-1.528,3.212-2.837,5.054-3.928c1.841-1.09,3.824-1.939,5.947-2.546S22.696,0,24.965,0s4.464,0.303,6.587,0.91
	s4.109,1.456,5.963,2.546s3.549,2.399,5.088,3.928c1.539,1.529,2.852,3.22,3.941,5.074c1.09,1.854,1.938,3.843,2.545,5.967
	c0.605,2.124,0.91,4.321,0.91,6.592c0,2.292-0.305,4.495-0.91,6.608c-0.607,2.113-1.455,4.096-2.545,5.951
	c-1.09,1.854-2.402,3.545-3.941,5.074s-3.234,2.838-5.088,3.928s-3.84,1.934-5.963,2.527C29.43,49.701,27.234,50,24.965,50
	c-2.291,0-4.493-0.299-6.604-0.895c-2.112-0.594-4.094-1.438-5.947-2.527c-1.853-1.09-3.543-2.398-5.07-3.928
	c-1.528-1.529-2.836-3.221-3.925-5.074c-1.09-1.855-1.932-3.844-2.527-5.969C0.297,29.484-0.001,27.287-0.001,25.017z M4.177,25.017
	c0,2.854,0.544,5.545,1.634,8.075c1.089,2.529,2.578,4.736,4.464,6.625s4.094,3.377,6.621,4.467
	c2.527,1.092,5.217,1.635,8.069,1.635c2.853,0,5.542-0.551,8.07-1.65c2.527-1.102,4.738-2.598,6.637-4.484
	c1.898-1.889,3.398-4.092,4.498-6.609c1.102-2.516,1.652-5.203,1.652-8.057c0-1.91-0.254-3.748-0.76-5.513
	c-0.504-1.765-1.213-3.422-2.121-4.973c-0.91-1.551-2.006-2.961-3.285-4.231c-1.281-1.27-2.691-2.36-4.229-3.271
	c-1.539-0.911-3.189-1.613-4.953-2.107c-1.764-0.494-3.6-0.742-5.509-0.742c-2.853,0-5.542,0.551-8.069,1.652
	s-4.734,2.596-6.621,4.484S6.9,14.414,5.811,16.942C4.721,19.471,4.177,22.163,4.177,25.017z M18.968,39.277v-3.572
	c1.639,1.572,3.504,2.359,5.593,2.359c1.685,0,3.027-0.512,4.027-1.533c0.998-1.023,1.498-2.4,1.498-4.131
	c0-3.799-2.234-5.697-6.704-5.697H21.36v-2.799h1.92c1.999,0,3.493-0.5,4.481-1.5c0.988-1,1.482-2.399,1.482-4.197
	c0-1.641-0.375-2.894-1.129-3.759c-0.752-0.865-1.893-1.298-3.419-1.298c-1.685,0-3.291,0.697-4.818,2.09v-3.236
	c1.572-1.124,3.403-1.686,5.492-1.686c1.011,0,1.949,0.18,2.814,0.54c0.863,0.359,1.605,0.854,2.223,1.483
	c0.619,0.629,1.107,1.377,1.467,2.242c0.359,0.865,0.539,1.804,0.539,2.815c0,1.911-0.461,3.529-1.383,4.855
	c-0.92,1.326-2.189,2.271-3.807,2.832v0.067c0.898,0.113,1.725,0.366,2.477,0.758s1.387,0.898,1.904,1.518
	c0.516,0.617,0.92,1.326,1.213,2.123c0.291,0.799,0.438,1.648,0.438,2.547c0,1.303-0.219,2.488-0.656,3.557
	c-0.439,1.066-1.051,1.988-1.838,2.764c-0.785,0.775-1.717,1.377-2.795,1.805c-1.078,0.426-2.258,0.641-3.539,0.641
	C22.157,40.863,20.338,40.336,18.968,39.277z"/>
</svg>
