<?xml version="1.0" encoding="utf-8"?>
<!-- Generator: Adobe Illustrator 16.0.3, SVG Export Plug-In . SVG Version: 6.00 Build 0)  -->
<!DOCTYPE svg PUBLIC "-//W3C//DTD SVG 1.1//EN" "http://www.w3.org/Graphics/SVG/1.1/DTD/svg11.dtd">
<svg version="1.1" id="Layer_1" xmlns="http://www.w3.org/2000/svg" xmlns:xlink="http://www.w3.org/1999/xlink" x="0px" y="0px"
	 width="612px" height="792px" viewBox="0 0 612 792" enable-background="new 0 0 612 792" xml:space="preserve">
<path d="M306,147.375C168.659,147.375,57.375,258.659,57.375,396c0,137.342,111.284,248.625,248.625,248.625
	c137.342,0,248.625-111.283,248.625-248.625C554.625,258.659,443.342,147.375,306,147.375z M306,168.054
	c125.627,0,227.946,102.199,227.946,227.946c0,55.582-19.962,106.502-53.072,146.067c-23.906-9.802-78.771-28.808-111.044-38.37
	c-2.869-0.836-3.228-1.075-3.228-12.789c0-9.683,3.944-19.484,7.889-27.852c4.304-8.965,9.204-24.145,10.997-37.771
	c5.021-5.857,11.953-17.332,16.256-39.326c3.825-19.364,2.032-26.417-0.478-32.991c-0.239-0.717-0.598-1.435-0.718-2.032
	c-0.956-4.542,0.359-28.09,3.706-46.378c2.271-12.551-0.598-39.206-17.811-61.319c-10.877-13.985-31.795-31.078-69.926-33.469
	h-20.918c-37.533,2.391-58.331,19.483-69.328,33.469c-17.332,22.113-20.201,48.769-17.93,61.319
	c3.347,18.288,4.662,41.836,3.705,46.378c-0.239,0.837-0.478,1.435-0.717,2.152c-2.51,6.574-4.423,13.626-0.479,32.991
	c4.423,21.993,11.236,33.469,16.256,39.325c1.793,13.627,6.813,28.688,10.997,37.772c3.108,6.574,4.542,15.539,4.542,28.209
	c0,11.834-0.478,11.953-3.108,12.79c-33.588,9.921-86.779,29.046-108.056,38.25C98.135,502.741,78.054,451.701,78.054,396
	C78.054,270.373,180.373,168.054,306,168.054L306,168.054z"/>
</svg>
