<?xml version="1.0" encoding="utf-8"?>
<!-- Generator: Adobe Illustrator 16.2.0, SVG Export Plug-In . SVG Version: 6.00 Build 0)  -->
<!DOCTYPE svg PUBLIC "-//W3C//DTD SVG 1.1//EN" "http://www.w3.org/Graphics/SVG/1.1/DTD/svg11.dtd">
<svg version="1.1" id="Layer_1" xmlns="http://www.w3.org/2000/svg" xmlns:xlink="http://www.w3.org/1999/xlink" x="0px" y="0px"
	 width="432px" height="432px" viewBox="0 0 432 432" enable-background="new 0 0 432 432" xml:space="preserve">
<path opacity="0.5" fill="#0D72B9" enable-background="new    " d="M-667.836-123.123c0-168.707-136.763-305.468-305.47-305.468
	s-305.47,136.762-305.47,305.468c0,168.71,136.763,305.473,305.47,305.473S-667.836,45.587-667.836-123.123z"/>
<path fill="#F9BD15" d="M60.925,104.041c-0.02,5.714,1.624,10.233,4.892,13.579c3.268,3.345,7.688,5.009,13.226,5.028
	c5.048,0.02,9.098-1.271,12.149-3.874c3.053-2.583,4.579-6.046,4.599-10.351c0.02-5.811-5.381-10.232-16.181-13.226
	c-2.152-0.587-3.835-1.057-5.028-1.39c-8.687-2.523-14.399-5.302-17.179-8.354c-2.758-3.053-4.147-7.299-4.128-12.737
	c0.021-6.966,2.271-12.581,6.79-16.865s10.408-6.417,17.687-6.397c8.335,0.02,14.771,2.23,19.33,6.633
	c4.578,4.401,6.849,10.623,6.828,18.645v0.216l-10.056-0.02c-0.393-5.224-1.938-9.235-4.657-12.013
	c-2.72-2.779-6.437-4.188-11.151-4.188c-4.363-0.02-7.846,1.115-10.469,3.385c-2.621,2.25-3.932,5.264-3.932,9.02
	c-0.02,3.757,0.979,6.516,2.935,8.296s7.142,3.659,15.534,5.674c9.764,2.348,16.182,5.106,19.252,8.315
	c3.072,3.209,4.599,7.826,4.599,13.871c-0.02,7.631-2.485,13.676-7.415,18.156c-4.931,4.48-11.583,6.711-19.957,6.691
	c-8.55-0.02-15.222-2.465-20.016-7.336c-4.793-4.872-7.395-11.799-7.767-20.779L60.925,104.041z"/>
<path fill="#F9BD15" d="M148.088,224.172l0.156-82.604l43.278,0.078l-0.02,9.997l-34.044-0.059l-0.059,24.77l31.051,0.06l-0.02,9.88
	l-31.031-0.059l-0.059,27.958l34.826,0.078l-0.02,9.998L148.088,224.172z"/>
<path fill="#F9BD15" d="M320.496,408.358l27.626-82.564l11.074,0.02l27.411,82.663l-10.174-0.02l-7.904-24.28l-30.053-0.059
	l-8.002,24.24H320.496z M341.92,374.042l23.283,0.039L353.62,337.65L341.92,374.042z"/>
<g>
	<g>
		<path fill="#E5E5E4" d="M483.457,80.655v5.226c3.891-4.843,7.054-6.454,12.395-6.454c4.617,0,8.424,1.809,10.614,5.029
			c1.863,2.852,2.59,6.072,2.59,11.392v30.662h-7.452V96.522c0-6.256-2.437-9.306-7.531-9.306c-6.396,0-10.3,4.369-10.3,11.482
			v27.796h-7.449V80.655H483.457z"/>
		<path fill="#E5E5E4" d="M466.68,85.59c0,23.672-11.023,40.92-26.088,40.92c-15.23,0-26.091-17.248-26.091-41.518
			c0-24.146,10.86-41.394,26.022-41.394C456.066,43.615,466.68,60.738,466.68,85.59z M422.348,85.007
			c0,18.797,7.383,31.643,18.23,31.643c10.694,0,18.229-12.846,18.229-31.167c0-19.271-7.301-31.997-18.229-31.997
			C429.73,53.486,422.348,66.335,422.348,85.007z"/>
	</g>
	<g>
		<path fill="#AEAE63" d="M646.173,104.838c0.699,9.244,5.711,14.483,14.039,14.483c5.71,0,9.519-2.515,11.723-7.844h8.819
			c-2.3,9.437-10.024,15.033-20.749,15.033c-13.626,0-23.048-9.719-23.048-23.815c0-14.111,9.216-23.727,22.747-23.727
			c9.627,0,16.642,4.761,19.845,13.456c1.205,3.364,1.808,7.011,1.904,12.43L646.173,104.838L646.173,104.838z M671.839,98.571
			c-0.396-8.216-4.808-12.8-12.121-12.8c-7.518,0-12.927,5.224-13.434,12.8H671.839z"/>
		<path fill="#AEAE63" d="M562.207,70.78c-1-10.776-6.52-16.046-16.64-16.046c-8.918,0-14.628,4.452-14.628,11.239
			c0,5.746,3.507,9.14,12.023,11.358l10.82,2.813c7.916,2.098,11.93,4.094,15.134,7.487c3.507,3.632,5.409,8.901,5.409,14.989
			c0,14.75-10.216,23.89-26.459,23.89c-17.337,0-27.761-10.301-29.172-29.041h9.917c0.999,12.416,8.011,19.321,19.543,19.321
			c9.628,0,16.436-5.507,16.436-13.352c0-5.849-3.603-9.72-10.63-11.699l-15.037-4.212c-12.229-3.395-17.735-9.721-17.735-20.26
			c0-13.694,9.725-22.357,25.063-22.357s23.556,8.306,25.664,25.87H562.207L562.207,70.78z"/>
		<path fill="#AEAE63" d="M593.2,74.205h-9.231V64.201h9.218v10.003H593.2z M593.2,126.51h-9.231V81.394h9.218v45.117H593.2z"/>
		<path fill="#AEAE63" d="M627.314,87.288h-8.724v28.297c0,2.619,1.3,4.107,3.602,4.107c1.302,0,2.603-0.281,5.109-1.219v7.009
			c-4.014,0.849-5.506,1.027-7.724,1.027c-6.918,0-10.218-3.453-10.218-10.925V87.288h-6.521v-6.817h6.534V66.182h9.217v14.289
			h8.724V87.288L627.314,87.288z"/>
	</g>
</g>
<rect x="-133.9" y="54.6" fill="#F9BD15" width="100.8" height="100.8"/>
<rect x="-129.56" y="60.72" fill="#3953A2" width="88.56" height="88.56"/>
</svg>
