<?xml version="1.0" encoding="utf-8"?>
<!-- Generator: Adobe Illustrator 16.2.0, SVG Export Plug-In . SVG Version: 6.00 Build 0)  -->
<!DOCTYPE svg PUBLIC "-//W3C//DTD SVG 1.1//EN" "http://www.w3.org/Graphics/SVG/1.1/DTD/svg11.dtd">
<svg version="1.1" id="Layer_1" xmlns="http://www.w3.org/2000/svg" xmlns:xlink="http://www.w3.org/1999/xlink" x="0px" y="0px"
	 width="50px" height="50px" viewBox="0 0 50 50" enable-background="new 0 0 50 50" xml:space="preserve">
<g>
	<path d="M0,43.345V3.311C0,2.387,0.327,1.604,0.98,0.963C1.633,0.321,2.422,0,3.345,0h43.344c0.924,0,1.706,0.321,2.349,0.963
		C49.68,1.604,50,2.387,50,3.311v43.344c0,0.924-0.32,1.712-0.962,2.365C48.396,49.674,47.613,50,46.689,50H6.656L0,43.345z
		 M36.689,48.345h10c0.563,0,0.979-0.141,1.25-0.423c0.271-0.281,0.405-0.692,0.405-1.232V3.311c0-1.104-0.552-1.656-1.655-1.656h-5
		v20c0,0.923-0.326,1.712-0.979,2.365C40.057,24.673,39.269,25,38.346,25h-26.69c-0.923,0-1.706-0.327-2.348-0.979
		c-0.642-0.653-0.963-1.442-0.963-2.365v-20h-5c-1.126,0-1.689,0.552-1.689,1.656v39.358l5.676,5.676h6.014v-15
		c0-1.126,0.552-1.689,1.655-1.689h20c1.127,0,1.689,0.563,1.689,1.689V48.345z M40,1.655H10v20c0,0.541,0.141,0.952,0.422,1.233
		c0.281,0.281,0.692,0.422,1.233,0.422l26.69,0.034c1.104,0,1.654-0.563,1.654-1.689V1.655z M23.345,33.345H15v15h8.345V33.345z"/>
</g>
</svg>
