<?xml version="1.0" encoding="utf-8"?>
<!-- Generator: Adobe Illustrator 18.1.1, SVG Export Plug-In . SVG Version: 6.00 Build 0)  -->
<svg version="1.1" id="Layer_1" xmlns="http://www.w3.org/2000/svg" xmlns:xlink="http://www.w3.org/1999/xlink" x="0px" y="0px"
	 viewBox="0 0 2208 2208" enable-background="new 0 0 2208 2208" xml:space="preserve">
<g>
	
		<linearGradient id="SVGID_1_" gradientUnits="userSpaceOnUse" x1="64.0094" y1="2080.0154" x2="64.0094" y2="2207.9846" gradientTransform="matrix(17.25 0 0 -17.25 0 38088)">
		<stop  offset="0" style="stop-color:#2D2D84"/>
		<stop  offset="7.400000e-003" style="stop-color:#2F2E84;stop-opacity:0.9926"/>
		<stop  offset="0.4994" style="stop-color:#965698;stop-opacity:0.5006"/>
		<stop  offset="0.8403" style="stop-color:#D870A4;stop-opacity:0.1597"/>
		<stop  offset="1" style="stop-color:#F17AA9;stop-opacity:0"/>
	</linearGradient>
	<path fill="url(#SVGID_1_)" d="M2208,2207.7L0.4,2207.2V0.3H2208V2207.7z"/>
	<g>
		<path opacity="0.5" fill="#0D72B9" enable-background="new    " d="M2208.2,2208H0.2V0h2208V2208z"/>
	</g>
	<g>
		
			<rect x="135.2" y="135.7" transform="matrix(-1 -2.000005e-003 2.000005e-003 -1 757.7147 760.1293)" fill="#F9BD15" width="488.1" height="487.9"/>
		
			<rect x="153.3" y="153.8" transform="matrix(-1 -2.000005e-003 2.000005e-003 -1 757.7147 760.1293)" fill="#3953A2" width="451.9" height="451.8"/>
	</g>
	<path fill="#F9BD15" d="M289.9,447.4c-0.1,29.2,8.3,52.3,25,69.4c16.7,17.1,39.3,25.6,67.6,25.7c25.8,0.1,46.5-6.5,62.1-19.8
		c15.6-13.2,23.4-30.9,23.5-52.9c0.1-29.7-27.5-52.3-82.7-67.6c-11-3-19.6-5.4-25.7-7.1c-44.4-12.9-73.6-27.1-87.8-42.7
		c-14.1-15.6-21.2-37.3-21.1-65.1c0.1-35.6,11.6-64.3,34.7-86.2c23.1-21.9,53.2-32.8,90.4-32.7c42.6,0.1,75.5,11.4,98.8,33.9
		c23.4,22.5,35,54.3,34.9,95.3v1.1l-51.4-0.1c-2-26.7-9.9-47.2-23.8-61.4c-13.9-14.2-32.9-21.4-57-21.4
		c-22.3-0.1-40.1,5.7-53.5,17.3c-13.4,11.5-20.1,26.9-20.1,46.1c-0.1,19.2,5,33.3,15,42.4c10,9.1,36.5,18.7,79.4,29
		c49.9,12,82.7,26.1,98.4,42.5c15.7,16.4,23.5,40,23.5,70.9c-0.1,39-12.7,69.9-37.9,92.8C457,579.7,423,591.1,380.2,591
		c-43.7-0.1-77.8-12.6-102.3-37.5c-24.5-24.9-37.8-60.3-39.7-106.2L289.9,447.4z"/>
	<g>
		
			<rect x="604.3" y="606.5" transform="matrix(-1 -2.000005e-003 2.000005e-003 -1 1694.9104 1702.6639)" fill="#F9BD15" width="488.1" height="487.9"/>
		
			<rect x="622.3" y="624.6" transform="matrix(-1 -2.000005e-003 2.000005e-003 -1 1694.9105 1702.6642)" fill="#3953A2" width="451.9" height="451.8"/>
	</g>
	<path fill="#F9BD15" d="M735.4,1061.4l0.8-422.2l221.2,0.4l-0.1,51.1l-174-0.3l-0.3,126.6l158.7,0.3l-0.1,50.5L783,867.5
		l-0.3,142.9l178,0.4l-0.1,51.1L735.4,1061.4z"/>
	<g>
		
			<rect x="1073.3" y="1077.3" transform="matrix(-1 -2.000005e-003 2.000005e-003 -1 2632.1062 2645.1987)" fill="#F9BD15" width="488.1" height="487.9"/>
		
			<rect x="1091.4" y="1095.4" transform="matrix(-1 -2.000005e-003 2.000005e-003 -1 2632.1062 2645.199)" fill="#3953A2" width="451.9" height="451.8"/>
	</g>
	<path fill="#F9BD15" d="M1228,1389c-0.1,29.2,8.3,52.3,25,69.4c16.7,17.1,39.3,25.6,67.6,25.7c25.8,0.1,46.5-6.5,62.1-19.8
		c15.6-13.2,23.4-30.9,23.5-52.9c0.1-29.7-27.5-52.3-82.7-67.6c-11-3-19.6-5.4-25.7-7.1c-44.4-12.9-73.6-27.1-87.8-42.7
		s-21.2-37.3-21.1-65.1c0.1-35.6,11.6-64.3,34.7-86.2c23.1-21.9,53.2-32.8,90.4-32.7c42.6,0.1,75.5,11.4,98.8,33.9
		c23.4,22.5,35,54.3,34.9,95.3v1.1l-51.4-0.1c-2-26.7-9.9-47.2-23.8-61.4c-13.9-14.2-32.9-21.4-57-21.4
		c-22.3-0.1-40.1,5.7-53.5,17.3c-13.4,11.5-20.1,26.9-20.1,46.1c0,19.2,5,33.3,15,42.4c10,9.1,36.5,18.7,79.4,29
		c49.9,12,82.7,26.1,98.4,42.5s23.5,40,23.5,70.9c-0.1,39-12.7,69.9-37.9,92.8c-25.2,22.9-59.2,34.3-101.9,34.2
		c-43.7-0.1-77.8-12.6-102.3-37.5c-24.5-24.9-37.8-60.3-39.7-106.2L1228,1389z"/>
	<g>
		
			<rect x="1541.8" y="1548.1" transform="matrix(-1 -2.000005e-003 2.000005e-003 -1 3568.0601 3587.7334)" fill="#F9BD15" width="488.1" height="487.9"/>
		
			<rect x="1559.9" y="1566.2" transform="matrix(-1 -2.000005e-003 2.000005e-003 -1 3568.0601 3587.699)" fill="#3953A2" width="451.9" height="451.8"/>
	</g>
	<path fill="#F9BD15" d="M1616.6,2002.8l141.2-422l56.6,0.1l140.1,422.5l-52-0.1l-40.4-124.1l-153.6-0.3l-40.9,123.9L1616.6,2002.8z
		 M1726.1,1827.4l119,0.2l-59.2-186.2L1726.1,1827.4z"/>
	<g>
		<path fill="#E5E5E4" d="M656.4,1154v34.1c28.4-31.6,51.5-42.1,90.5-42.1c33.7,0,61.5,11.8,77.5,32.8
			c13.6,18.6,18.9,39.6,18.9,74.3v200h-54.4v-195.6c0-40.8-17.8-60.7-55-60.7c-46.7,0-75.2,28.5-75.2,74.9V1453h-54.4v-299H656.4z"
			/>
		<path fill="#E5E5E4" d="M533.9,1186c0,154.4-80.5,266.9-190.5,266.9c-111.2,0-190.5-112.5-190.5-270.8c0-157.5,79.3-270,190-270
			C456.4,912.2,533.9,1023.9,533.9,1186z M210.2,1182.2c0,122.6,53.9,206.4,133.1,206.4c78.1,0,133.1-83.8,133.1-203.3
			c0-125.7-53.3-208.7-133.1-208.7C264.1,976.6,210.2,1060.4,210.2,1182.2z"/>
	</g>
	<g>
		<path fill="#AEAE63" d="M713.4,1685.2H646V1618h67.3V1685.2z M713.4,2036.6H646v-303.1h67.3V2036.6z"/>
		<path fill="#AEAE63" d="M952,1773h-63.7v190.1c0,17.6,9.5,27.6,26.3,27.6c9.5,0,19-1.9,37.3-8.2v47.1c-29.3,5.7-40.2,6.9-56.4,6.9
			c-50.5,0-74.6-23.2-74.6-73.4V1773h-47.6v-45.8H821v-96h67.3v96H952L952,1773L952,1773z"/>
		<path fill="#AEAE63" d="M1057.3,1891c5.1,62.1,41.7,97.3,102.5,97.3c41.7,0,69.5-16.9,85.6-52.7h64.4
			c-16.8,63.4-73.2,101-151.5,101c-99.5,0-168.3-65.3-168.3-160c0-94.8,67.3-159.4,166.1-159.4c70.3,0,121.5,32,144.9,90.4
			c8.8,22.6,13.2,47.1,13.9,83.5L1057.3,1891L1057.3,1891z M1244.7,1848.9c-2.9-55.2-35.1-86-88.5-86c-54.9,0-94.4,35.1-98.1,86
			H1244.7z"/>
		<path fill="#AEAE63" d="M470.4,1662.1c-7.3-72.4-47.6-107.8-121.5-107.8c-65.1,0-106.8,29.9-106.8,75.5
			c0,38.6,25.6,61.4,87.8,76.3l79,18.9c57.8,14.1,87.1,27.5,110.5,50.3c25.6,24.4,39.5,59.8,39.5,100.7
			c0,99.1-74.6,160.5-193.2,160.5c-126.6,0-202.7-69.2-213-195.1h72.4c7.3,83.4,58.5,129.8,142.7,129.8c70.3,0,120-37,120-89.7
			c0-39.3-26.3-65.3-77.6-78.6l-109.8-28.3c-89.3-22.8-129.5-65.3-129.5-136.1c0-92,71-150.2,183-150.2s172,55.8,187.4,173.8H470.4z
			"/>
	</g>
</g>
</svg>
