<?xml version="1.0" standalone="no"?>
<!DOCTYPE svg PUBLIC "-//W3C//DTD SVG 1.1//EN" "http://www.w3.org/Graphics/SVG/1.1/DTD/svg11.dtd" >
<svg xmlns="http://www.w3.org/2000/svg">
<metadata>
<json>
<![CDATA[
{
	"fontFamily": "icomoon",
	"majorVersion": 1,
	"minorVersion": 0,
	"version": "Version 1.0",
	"fontId": "icomoon",
	"psName": "icomoon",
	"subFamily": "Regular",
	"fullName": "icomoon",
	"description": "Font generated by IcoMoon."
}
]]>
</json>
</metadata>
<defs>
<font id="icomoon" horiz-adv-x="1024">
<font-face units-per-em="1024" ascent="960" descent="-64" />
<missing-glyph horiz-adv-x="1024" />
<glyph unicode="&#x20;" horiz-adv-x="512" d="" />
<glyph unicode="&#xe900;" glyph-name="split" data-tags="split splits arrows" d="M0.018 336.466v219.195c0 3.632 2.882 6.672 6.514 6.672h343.478c28.702 30.005 66.919 68.696 108.176 102.412 50.772 40.665 120.138 87.646 207.469 88.594h111.729v116.901c0 2.724 1.421 5.014 3.83 6.159 2.369 1.066 5.053 0.632 7.106-0.987l233.131-197.125c1.658-1.105 2.566-3.001 2.566-4.935v0c0-1.974-0.908-3.909-2.527-5.053l-231.986-195.546c-1.145-1.856-3.237-2.922-5.369-2.922-3.909 0-7.067 3.237-6.712 6.791 0 0.118 0 0.118 0 0.197v113.822h-111.69c-13.976 0-37.23-4.975-72.367-28.268-28.979-18.911-62.853-48.403-103.991-90.173-7.857-7.817-15.753-15.911-23.649-24.122 7.817-8.291 15.753-16.424 23.649-24.32 40.27-41.059 75.368-71.341 103.991-90.015 35.137-23.293 58.312-28.268 71.617-28.268h112.44v113.782c0 2.527 1.421 4.975 3.83 5.962 2.369 1.184 5.014 0.79 7.106-0.79l233.131-196.454c1.619-1.461 2.527-3.277 2.527-5.211v0c0-2.092-0.908-3.83-2.527-5.053l-233.171-197.046c-2.092-1.698-4.738-2.132-7.106-1.066-2.408 1.184-3.83 3.514-3.83 6.119v117.059h-111.69c-87.37 0.869-156.737 47.811-207.508 88.475-31.347 25.662-63.642 56.101-104.386 98.582h-347.308c-3.553 0-6.475 2.961-6.475 6.633z" />
<glyph unicode="&#xe901;" glyph-name="add" data-tags="add" d="M768 432h-240v-240h-32v240h-240v32h240v240h32v-240h240v-32z" />
<glyph unicode="&#xe902;" glyph-name="add-circle-outline" data-tags="add-circle-outline" d="M512 864c-229.8 0-416-186.2-416-416s186.2-416 416-416 416 186.2 416 416-186.2 416-416 416zM512 66.6c-210.2 0-381.4 171-381.4 381.4s171.2 381.4 381.4 381.4 381.4-171.2 381.4-381.4-171.2-381.4-381.4-381.4zM528 704h-32v-240h-240v-32h240v-240h32v240h240v32h-240z" />
<glyph unicode="&#xe903;" glyph-name="albums-outline" data-tags="albums-outline" d="M928 672v-576h-832v576h832zM960 704h-896v-640h896v640zM144 768h736v-32h-736zM208 832h608v-32h-608z" />
<glyph unicode="&#xe904;" glyph-name="alert-outline" data-tags="alert-outline" d="M512 864c-229.8 0-416-186.2-416-416s186.2-416 416-416 416 186.2 416 416-186.2 416-416 416zM512 66.6c-210.2 0-381.4 171-381.4 381.4 0 210.2 171 381.4 381.4 381.4 210.2 0 381.4-171 381.4-381.4 0-210.2-171.2-381.4-381.4-381.4zM512 293.8c-17.6 0-32-14.4-32-32s14.4-32 32-32 32 14.4 32 32-14.4 32-32 32zM488.4 493.6v178.4h48v-178.4l-12-141.6h-24l-12 141.6z" />
<glyph unicode="&#xe905;" glyph-name="analytics-outline" data-tags="analytics-outline" d="M806.2 742.2c-162.4 162.4-425.8 162.4-588.4 0s-162.4-425.8 0-588.4c162.4-162.4 425.8-162.4 588.4 0 162.4 162.4 162.4 426 0 588.4zM242.4 717.6c148.6 148.6 390.6 148.6 539.2 0 76-76 113-176.2 111.4-276-5.8 9.2-46.2 70.4-105 70.4-55.8 0-84.6-52.2-103.6-86.6-2.8-5.2-5.6-10-8-14.2-23.2-39-55.4-60.8-86.2-58.6-27.2 2-50.4 22.6-65.2 58.4-18.6 44.8-59.2 93-107.4 99.8-22.8 3.2-57.2-1.8-90.6-43.4-6.6-8.2-14-19-22.4-31.8-21.2-31.4-53-78.8-77.4-82.8-42-6.8-73.2 24.4-78.6 29.2-4 3.4-8.8 8.6-14.6 15.2-15 113.8 21 233.2 108.4 320.4zM781.6 178.4c-148.6-148.6-390.6-148.6-539.2 0-48.4 48.4-81 106.6-97.8 168.2 14-11.4 38.6-26.6 71-26.6 5.4 0 11.2 0.4 17 1.4 38 6.2 71.6 56.2 98.8 96.4 7.8 11.6 15 22.4 20.8 29.6 19.4 24 40 34.8 61.2 31.8 25.8-3.6 62.2-32.4 82.2-80.4 19.8-47.4 52.6-75.2 92.6-78 43.2-3 86.6 24.8 116 74.2 2.8 4.6 5.6 9.6 8.4 15 17.2 31.2 38.6 70.2 75.4 70.2 22.2 0 41.8-14.6 54.4-26.8 14.8-14.4 18-18 25.8-29.2 6.8-9.6 13-17.4 20.6-33.4-11.6-77.8-47.4-152.6-107.2-212.4z" />
<glyph unicode="&#xe906;" glyph-name="android" data-tags="android" d="M288 423.2v-179.2c0-13.8 9-28 22.8-28h57.2v-104c0-26.6 21.4-48 48-48s48 21.4 48 48v104h98v-104c0-15 6.8-28.4 17.6-37.2 7.8-6.8 18.2-10.8 29.4-10.8h1c26.6 0 48 21.4 48 48v104h55.2c14 0 22.8 14.2 22.8 27.8v332.2h-448v-152.8zM816 608c-26.6 0-48-21.4-48-48v-192c0-26.6 21.4-48 48-48s48 21.4 48 48v192c0 26.6-21.4 48-48 48zM208 608c-26.6 0-48-21.4-48-48v-192c0-26.6 21.4-48 48-48s48 21.4 48 48v192c0 26.6-21.4 48-48 48zM622.4 781.8l37 43.8c0.8 1-0.4 3.2-2.6 5-2.2 1.6-4.8 2-5.4 0.8l-38.4-45.6c-27.2 10.8-60.4 17.6-101.2 17.6-41 0.2-74.4-6.4-101.6-17l-38 44.8c-0.8 1-3.2 0.8-5.4-0.8s-3.4-3.6-2.6-5l36.6-43.2c-96.4-41.8-110.8-144.4-112.8-174.4h447.2c-1.8 30.2-16 131.4-112.8 174zM413.6 682.2c-14.8 0-27 12-27 26.6s12 26.6 27 26.6c14.8 0 27-12 27-26.6s-12-26.6-27-26.6zM610.4 682.2c-14.8 0-27 12-27 26.6s12 26.6 27 26.6c14.8 0 27-12 27-26.6s-12.2-26.6-27-26.6z" />
<glyph unicode="&#xe907;" glyph-name="apple" data-tags="apple" d="M667.2 652.2c-67.2 0-95.6-33-142.4-33-48 0-84.6 32.8-142.8 32.8-57 0-117.8-35.8-156.4-96.8-54.2-86-45-248 42.8-386 31.4-49.4 73.4-104.8 128.4-105.4h1c47.8 0 62 32.2 127.8 32.6h1c64.8 0 77.8-32.4 125.4-32.4h1c55 0.6 99.2 62 130.6 111.2 22.6 35.4 31 53.2 48.4 93.2-127 49.6-147.4 234.8-21.8 305.8-38.4 49.4-92.2 78-143 78zM652.4 832c-40-2.8-86.6-29-114-63.2-24.8-31-45.2-77-37.2-121.6h3.2c42.6 0 86.2 26.4 111.6 60.2 24.6 32.2 43.2 77.8 36.4 124.6z" />
<glyph unicode="&#xe908;" glyph-name="apps-outline" data-tags="apps-outline" d="M308 800c6.6 0 12-5.4 12-12v-104c0-6.6-5.4-12-12-12h-104c-6.6 0-12 5.4-12 12v104c0 6.6 5.4 12 12 12h104zM308 832h-104c-24.2 0-44-19.8-44-44v-104c0-24.2 19.8-44 44-44h104c24.2 0 44 19.8 44 44v104c0 24.2-19.8 44-44 44zM564 800c6.6 0 12-5.4 12-12v-104c0-6.6-5.4-12-12-12h-104c-6.6 0-12 5.4-12 12v104c0 6.6 5.4 12 12 12h104zM564 832h-104c-24.2 0-44-19.8-44-44v-104c0-24.2 19.8-44 44-44h104c24.2 0 44 19.8 44 44v104c0 24.2-19.8 44-44 44zM820 800c6.6 0 12-5.4 12-12v-104c0-6.6-5.4-12-12-12h-104c-6.6 0-12 5.4-12 12v104c0 6.6 5.4 12 12 12h104zM820 832h-104c-24.2 0-44-19.8-44-44v-104c0-24.2 19.8-44 44-44h104c24.2 0 44 19.8 44 44v104c0 24.2-19.8 44-44 44zM308 512c6.6 0 12-5.4 12-12v-104c0-6.6-5.4-12-12-12h-104c-6.6 0-12 5.4-12 12v104c0 6.6 5.4 12 12 12h104zM308 544h-104c-24.2 0-44-19.8-44-44v-104c0-24.2 19.8-44 44-44h104c24.2 0 44 19.8 44 44v104c0 24.2-19.8 44-44 44zM564 512c6.6 0 12-5.4 12-12v-104c0-6.6-5.4-12-12-12h-104c-6.6 0-12 5.4-12 12v104c0 6.6 5.4 12 12 12h104zM564 544h-104c-24.2 0-44-19.8-44-44v-104c0-24.2 19.8-44 44-44h104c24.2 0 44 19.8 44 44v104c0 24.2-19.8 44-44 44zM820 512c6.6 0 12-5.4 12-12v-104c0-6.6-5.4-12-12-12h-104c-6.6 0-12 5.4-12 12v104c0 6.6 5.4 12 12 12h104zM820 544h-104c-24.2 0-44-19.8-44-44v-104c0-24.2 19.8-44 44-44h104c24.2 0 44 19.8 44 44v104c0 24.2-19.8 44-44 44zM308 224c6.6 0 12-5.4 12-12v-104c0-6.6-5.4-12-12-12h-104c-6.6 0-12 5.4-12 12v104c0 6.6 5.4 12 12 12h104zM308 256h-104c-24.2 0-44-19.8-44-44v-104c0-24.2 19.8-44 44-44h104c24.2 0 44 19.8 44 44v104c0 24.2-19.8 44-44 44zM564 224c6.6 0 12-5.4 12-12v-104c0-6.6-5.4-12-12-12h-104c-6.6 0-12 5.4-12 12v104c0 6.6 5.4 12 12 12h104zM564 256h-104c-24.2 0-44-19.8-44-44v-104c0-24.2 19.8-44 44-44h104c24.2 0 44 19.8 44 44v104c0 24.2-19.8 44-44 44zM820 224c6.6 0 12-5.4 12-12v-104c0-6.6-5.4-12-12-12h-104c-6.6 0-12 5.4-12 12v104c0 6.6 5.4 12 12 12h104zM820 256h-104c-24.2 0-44-19.8-44-44v-104c0-24.2 19.8-44 44-44h104c24.2 0 44 19.8 44 44v104c0 24.2-19.8 44-44 44z" />
<glyph unicode="&#xe909;" glyph-name="archive-outline" data-tags="archive-outline" d="M575.6 480c17.6 0 32.2-14.4 32.2-32s-14-32-31.8-32h-128c-17.6 0-32 14.4-32 32s14.4 32 32 32h126zM576 512h-128c-35.2 0-64-28.8-64-64s28.8-64 64-64h128c35.2 0 64 28.8 64 64s-28.8 64-64 64zM832 736h-640v-160h32v-416h576v416h32v160zM768 192h-512v384h512v-384zM800 608h-576v96h576v-96z" />
<glyph unicode="&#xe90a;" glyph-name="arrow-back" data-tags="arrow-back" d="M704 703.2l-64.6 64.8-319.4-320 319.4-320 64.6 64.8-254.6 255.2z" />
<glyph unicode="&#xe90b;" glyph-name="arrow-down" data-tags="arrow-down" d="M256.8 640l-64.8-64.6 320-319.4 320 319.4-64.8 64.6-255.2-254.6z" />
<glyph unicode="&#xe90c;" glyph-name="arrow-forward" data-tags="arrow-forward" d="M574.6 448l-254.6-255.2 64.6-64.8 319.4 320-319.4 320-64.6-64.8z" />
<glyph unicode="&#xe90d;" glyph-name="arrow-up" data-tags="arrow-up" d="M767.2 256l64.8 64.6-320 319.4-320-319.4 64.8-64.6 255.2 254.6z" />
<glyph unicode="&#xe90e;" glyph-name="briefcase-outline" data-tags="briefcase-outline" d="M832 704v32h-64v-32h-96v64c-1 36.4-27.2 64-64.4 64h-198.2c-37.2 0-57.4-27.4-57.4-64v-64h-96v32h-64v-32h-96v-640h832v640h-96zM384 705v58.8c0 20.4 5.8 36.2 27.4 36.2h194.2c20.8 0 34.4-15.4 34.4-36.2v-59.8h-256v1zM896 96h-768v448h768v-448zM896 576h-768v96h64v-32h64v32h512v-32h64v32h64v-96z" />
<glyph unicode="&#xe90f;" glyph-name="browsers-outline" data-tags="browsers-outline" d="M128 672v-608h607.8v608h-607.8zM703.8 96h-543.8v544h543.8v-544zM896 832h-608v-128h32v96h544v-544h-96v-32h128z" />
<glyph unicode="&#xe910;" glyph-name="calculator-outline" data-tags="calculator-outline" d="M288 640h448v128h-448v-128zM320 736h384v-64h-384v64zM736 832h-448c-35.4 0-64-28.6-64-64v-640c0-35.4 28.6-64 64-64h448c35.4 0 64 28.6 64 64v640c0 35.4-28.6 64-64 64zM768 128c0-17.6-14.4-32-32-32h-448c-17.6 0-32 14.4-32 32v640c0 17.6 14.4 32 32 32h448c17.6 0 32-14.4 32-32v-640zM320 480v96h-32v-128h128v32h-32zM320 320v96h-32v-128h128v32h-32zM320 160v96h-32v-128h128v32h-32zM480 480v96h-32v-128h128v32h-32zM640 480v96h-32v-128h128v32h-32zM480 320v96h-32v-128h128v32h-32zM480 160v96h-32v-128h128v32h-32zM640 160v256h-32v-288h128v32h-32z" />
<glyph unicode="&#xe911;" glyph-name="calendar-outline" data-tags="calendar-outline" d="M704 768v64h-32v-64h-320v64h-32v-64h-192v-704h768v704h-192zM864 96h-704v480h704v-480zM864 608h-704v128h160v-64h32v64h320v-64h32v64h160v-128z" />
<glyph unicode="&#xe912;" glyph-name="call-outline" data-tags="call-outline" d="M831.8 289c-29.2 30-112.2 86.2-166.6 86.2-12.6 0-23.6-2.8-32.6-8.6-26.6-17-47.8-30.2-58-30.2-5.6 0-11.6 5-24.8 16.4l-2.2 2c-36.6 31.8-44.4 40-58.6 54.8l-3.6 3.8c-2.6 2.6-4.8 5-7 7.2-12.4 12.8-21.4 22-53.2 58l-1.4 1.6c-15.2 17.2-25.2 28.4-25.8 36.6-0.6 8 6.4 21 24.2 45.2 21.6 29.2 22.4 65.2 2.6 107-15.8 33-41.6 64.6-64.4 92.4l-2 2.4c-19.6 24-42.4 36-67.8 36-28.2 0-51.6-15.2-64-23.2-1-0.6-2-1.4-3-2-27.8-17.6-48-41.8-55.6-66.4-11.4-37-19-85 35.6-184.8 47.2-86.4 90-144.4 158-214.2 64-65.6 92.4-86.8 156-132.8 70.8-51.2 138.8-80.6 186.4-80.6 44.2 0 79 0 128.6 59.8 52 62.8 30.4 101.2-0.8 133.4zM808.8 177.2c-40-48.4-63-48.4-104.6-48.4-40.6 0-103.6 28-168.4 74.6-62 44.8-89.6 65.4-151.8 129.2-65.8 67.4-107.2 123.6-152.8 207-48.2 88.2-42.8 126.8-33 158.6 5.2 17 20.8 35.2 42 48.4 1 0.6 2 1.4 3.2 2 10.6 6.8 28.2 18.2 47.4 18.2 16 0 30.2-8 43.8-24.6l2-2.4c51-62.4 90.8-117.6 60.8-158.4-21.2-28.6-32.4-48-30.6-68 1.6-19.4 14.6-34 34.2-56l1.4-1.6c32.2-36.4 41.4-46 54.2-59 2.2-2.2 4.4-4.6 7-7.2l3.6-3.8c14.8-15.4 23-23.8 60.6-56.8l2.2-2c16-14 27.8-24.2 45-24.2 17.8 0 37.4 11.2 74.6 35 3.8 2.4 9.2 3.8 16 3.8 43.4 0 118.2-49.6 144.4-76.6 24-24.4 36-42.8-1.2-87.8z" />
<glyph unicode="&#xe913;" glyph-name="chatboxes-outline" data-tags="chatboxes-outline" d="M128 832h512v-192h32v224h-576v-448h224v32h-192zM352 608v-448h325.2l128-128h26.8v128h96v448h-576zM896 192h-96v-109.2l-110 109.2h-306v384h512v-384z" />
<glyph unicode="&#xe914;" glyph-name="chatbubbles-outline" data-tags="chatbubbles-outline" d="M862 318.8c0 8.8 2.4 17.2 6.6 24.4 1.2 2.2 2.8 4.2 4.2 6.2 34.8 52 55.2 114.2 55.2 180.6 0.6 184.4-155 334-347.4 334-167.8 0-307.8-114.2-340.6-265.8-4.8-22.2-7.4-44.8-7.4-68.4 0-184.6 149.6-338.2 342-338.2 30.6 0 71.8 9.2 94.4 15.4s45 14.4 50.8 16.6 12.2 3.4 18.6 3.4c7.2 0 14-1.4 20.2-4l113.4-40.2s4.8-2 7.8-2c8.8 0 16 7 16 16 0 2-1 5.4-1 5.4l-32.8 116.6zM770.2 252.8c-10 4-20.6 6.4-31.6 6.4-8.2 0-20.2-1.6-24.4-3.2s-22.6-7.6-22.6-7.6c-8.4-2.8-19.8-7.6-30.4-10.2-28-7.2-60.2-14.4-86.4-14.4-83.8 0-162.2 32.2-220.6 90.6-28.2 28.2-50.2 61-65.6 97.4-15.8 37.6-23.8 77.4-23.8 118.2 0 20.4 2.2 41.2 6.6 61.6 14.4 66.8 53 127.6 108.4 171.4 27.6 21.8 58.8 39 92.2 50.8 34.8 12.2 71.4 18.4 108.8 18.4 44 0 86.6-8.4 126.6-25.2 38.6-16.2 72.8-39.2 102-68.4 56-56.6 86.6-130.6 86.6-208.6 0-57.8-17.2-114-49.4-162.4-0.2-0.2-0.4-0.6-0.6-0.8-1.4-1.8-3.2-4.4-5-7.6-7-12.2-10.8-24.8-10.8-40.2s16.4-65 26-96.4l-86 30.2zM610.6 168.6c-12.6-12.2-24.2-20.8-24.2-20.8-49.8-40.4-112.8-62.8-179-62.8-37.6 0-74.2 7.2-109 21.4-0.8 0.4-1.6 0.6-2 0.8-1.2 0.6-2.4 1-3.6 1.2-14 4.6-29.4 4-42.8-1.4l-85-33.6 18.6 97c0.2 1 0.2 2 0.2 3 0 10.2-2.6 20-7.8 28.6l-0.8 1.4c-1 1.6-2 3.6-3.4 5.4-28.8 43.4-44 93.8-44 145.8 0 60 21.2 125.6 75.6 185.8 1.2 8.6 2.6 17.2 4.6 25.6 2 9 4.4 18 7 26.8l-16-14.2c-65.4-57-103-138.6-103-223.6 0-58.6 17.2-115.2 49.6-164 0.2-0.2 0.4-0.4 0.6-0.8 0.4-0.4 1.2-1.8 1.6-2.8 0.4-0.6 0.6-1.2 1-1.6 2-3.4 3-6.8 3.2-10.8l-23.8-124c-1.2-5.8 1-11.6 5.4-15.4 3-2.4 6.6-3.6 10.2-3.6 2 0 4 0.4 5.8 1.2l112.2 44.2c3.6 1.4 7.4 2.2 11.4 2.2 3.6 0 7.2-0.6 10.6-1.8 0.4-0.2 1-0.4 1.4-0.4 0.2-0.2 0.4-0.2 0.6-0.2 38.6-16 79.6-24 121.4-24 93.2 0 180.8 40.2 240.2 110.2 0 0 6.4 8.8 13.8 19.2-7.6-2.4-16-5-24.4-7.4-7.2-2.2-16.2-4.4-26.2-6.6z" />
<glyph unicode="&#xe915;" glyph-name="clipboard-outline" data-tags="clipboard-outline" d="M544 768.6c0-17.673-14.327-32-32-32s-32 14.327-32 32c0 17.673 14.327 32 32 32s32-14.327 32-32zM800 832h-184.2c8.2-9.2 14.6-20 18.8-32h149.4c8.8 0 16-7.2 16-16v-704c0-8.8-7.2-16-16-16h-544c-8.8 0-16 7.2-16 16v704c0 8.8 7.2 16 16 16h149.4c4.2 12 10.6 22.8 18.8 32h-184.2c-17.6 0-32-14.4-32-32v-736c0-17.6 14.4-32 32-32h576c17.6 0 32 14.4 32 32v736c0 17.6-14.4 32-32 32zM352 738v-34h-96v-608h512v608h-96v34c0 17.6-12.8 30-30.4 30h-33.6c0 11.2-2 22-5.4 32-4.2 12-10.6 22.8-18.8 32-17.6 19.8-43.2 32-71.8 32s-54.2-12.2-71.8-32c-8.2-9.2-14.6-20-18.8-32-3.4-10-5.4-20.8-5.4-32h-29c-17.6 0-35-12.4-35-30zM672 640v32h64v-544h-448v544h64v-32h320zM448 736v33c0 35.8 28.2 64 64 64s64-28.2 64-64v-33h64v-64h-256v64h64z" />
<glyph unicode="&#xe916;" glyph-name="close" data-tags="close" d="M680.4 640l-168.8-168.6-168 167.8-23.6-23.6 168-167.6-168-167.8 23.6-23.4 168 167.6 168.8-168.4 23.6 23.4-168.8 168.6 168.8 168.4z" />
<glyph unicode="&#xe917;" glyph-name="close-circle-outline" data-tags="close-circle-outline" d="M806.2 742.2c-162.4 162.4-425.8 162.4-588.4 0s-162.4-425.8 0-588.4c162.4-162.4 425.8-162.4 588.4 0s162.4 426 0 588.4zM781.6 178.4c-148.6-148.6-390.6-148.6-539.2 0s-148.6 390.6 0 539.2 390.6 148.6 539.2 0c148.8-148.6 148.8-390.6 0-539.2zM680.4 640l-168.8-168.4-168 167.6-23.6-23.6 168-167.6-168-167.6 23.6-23.6 168 167.6 168.8-168.4 23.6 23.6-168.8 168.4 168.8 168.4z" />
<glyph unicode="&#xe918;" glyph-name="compass-outline" data-tags="compass-outline" d="M512 864c-229.8 0-416-186.2-416-416s186.2-416 416-416 416 186.2 416 416-186.2 416-416 416zM512 66.6c-210.2 0-381.4 171-381.4 381.4 0 210.2 171 381.4 381.4 381.4s381.4-171.2 381.4-381.4-171.2-381.4-381.4-381.4zM448 512l-192-320 320 192 192 320-320-192zM349.2 285.2l122 203.4 81.4-81.4-203.4-122z" />
<glyph unicode="&#xe919;" glyph-name="contact-outline" data-tags="contact-outline" d="M512 864c-229.8 0-416-186.2-416-416s186.2-416 416-416 416 186.2 416 416-186.2 416-416 416zM512 829.4c210.2 0 381.4-171 381.4-381.4 0-93.2-33.6-178.4-89.2-244.8l-0.2 0.2c-40 16.4-131.8 48.2-185.8 64.2-4.8 1.4-5.4 1.8-5.4 21.4 0 16.2 6.6 32.6 13.2 46.6 7.2 15 15.4 40.4 18.4 63.2 8.4 9.8 20 29 27.2 65.8 6.4 32.4 3.4 44.2-0.8 55.2-0.4 1.2-1 2.4-1.2 3.4-1.6 7.6 0.6 47 6.2 77.6 3.8 21-1 65.6-29.8 102.6-18.2 23.4-53.2 52-117 56h-35c-62.8-4-97.6-32.6-116-56-29-37-33.8-81.6-30-102.6 5.6-30.6 7.8-70 6.2-77.6-0.4-1.4-0.8-2.4-1.2-3.6-4.2-11-7.4-22.8-0.8-55.2 7.4-36.8 18.8-56 27.2-65.8 3-22.8 11.4-48 18.4-63.2 5.2-11 7.6-26 7.6-47.2 0-19.8-0.8-20-5.2-21.4-56-16.6-144.4-48.4-180.2-63.8-55.8 66.4-89.4 151.8-89.4 245 0 210.2 171.2 381.4 381.4 381.4zM242.8 178c39.8 16 117.2 43.6 166.2 58.2h0.4c16.8 5.2 23.2 17 25.6 26 1.8 6.4 2 13 2 26 0 26.2-3.4 45.4-10.6 60.8-5.8 12.2-13.2 34.4-15.8 53.8l-1.2 9.4-6.2 7.2c-3.8 4.4-13.6 18.4-20.2 51.2-5.2 26-2.8 32-0.8 37.4v0.4l0.2 0.6c0.4 1.2 1.2 3.2 2 5.6l0.4 2c3.4 16-1.2 63.8-6 90-2.2 12.4 0.6 47.6 23.6 77.2 14.2 18 41.6 40.2 91.8 43.6h33c51.2-3.4 78.8-25.6 92.8-43.8 23.2-29.6 25.8-64.8 23.6-77.2-4.8-26-9.4-74-6-90l0.4-1.2c0.8-3 1.8-5.6 2.4-7.2 2.2-5.6 4.2-11.8-0.8-37.2-6.6-32.8-16.2-46.6-20-51.2l-6.2-7.2-1.2-9.6c-2.6-19.4-10-41.4-15.6-53.6-8-17-16.2-37.6-16.2-60.2 0-11.6 0.2-19.2 2.2-26.4 2.6-8.8 9-20.4 25.8-25.6h0.4c47.4-14 127.8-41.6 172-58.8-69-68.8-164.2-111.4-269-111.4-104.8-0.2-199.8 42.4-269 111.2z" />
<glyph unicode="&#xe91a;" glyph-name="contacts-outline" data-tags="contacts-outline" d="M512 864c-229.8 0-416-186.2-416-416s186.2-416 416-416 416 186.2 416 416-186.2 416-416 416zM511.8 66.8c-104.8-0.2-199.8 42.4-269 111.2l-22.8 25c-6.2 7.4-12 14.8-17.6 22.6 9.4 8 20.2 15 31.6 19.2 21 8 44.8 7.6 66.6 13.2 18 4.6 40.4 11.8 54.4 24.8 12.8 12 14.2 30.4 15.4 47 1 14 0.8 27.8 0.8 41.8 0 9.8-11.4 15.4-17 23.2-9 12.2-9.4 30.4-11.2 45-0.8 6.4-1 14.6-6.4 19-6 4.8-10.4 7.4-13.4 15-4 10.4-5.4 21.6-8.6 32.4-2 7 5 13.6 7.8 19.4 5.2 10.6-3.8 27-5.6 38-5.6 32.8-5.4 68.6 18.2 94.6 47.4 52.4 156 35.8 171.6-37.8 4.8-23 1.8-49.8-4.6-72.2-2.8-9.6-6-16.6-0.4-26 8.4-13.6 4.8-22.4 0.8-37.6-3.2-12.6-7.2-18.2-16.8-26-8-6.4-6.8-22.4-8.2-31.6-1.6-11.2-2.6-23-9.4-32.4-2.6-3.6-16.8-14.8-16.8-18.6 0-22-1-44.4 2.8-66.2 5.2-31 31.2-38.4 57.2-49 26.4-10.2 57-6.4 82.6-19 26.4-13 51.8-36.8 59.4-66.2 0 0 4.4-38.2 4.2-80-44.8-18.4-94-28.8-145.6-28.8zM804.2 203.2l-0.2 0.2-23.2-25.2c-26.8-26.6-57.4-49.4-91.2-67.2l-0.6 33.2c0 59-35.6 111-91.6 130.4-27 9.4-56.2 10-83.2 19.4-8.2 2.8-24.4 6.2-27.8 15.6-3.2 9.2-3.2 20-3.8 29.6-0.4 7.6-0.6 15.2-0.6 22.8 0 5 12.8 15.6 15.6 20.2 10.8 18 11.8 42.2 13.8 62.6 17.4-4.8 19.6 27.4 22.6 37.2 2.2 6.8 10 41.8-5.2 47.2 5 8.8 7 19.6 8.4 29.4 4 25.6 5.6 53.6-2.2 78.6-16.2 52-66 81.2-118.6 82.8-53.4 1.8-107-23.8-127-75.6-9.6-25.2-8.8-52.6-5.6-79 1.4-12 3.4-25.4 9.4-36.2-12.8-5.6-9-35.4-6.8-42.6 3.2-10.2 6-46.8 24.2-41.8 1.6-16.2 3.4-32.8 7.8-48.6 3-10.6 9.2-19.6 16.4-27.8 3.6-4 5.4-4.4 5.2-9.6-0.2-15.6 0.2-32.4-3.8-47.6s-37.4-21.6-50.8-24.4c-36-7.4-69.2-10.8-99.2-33.2-0.6-0.4-1-0.8-1.4-1.2-34.4 57.2-54.2 124.2-54.2 195.6 0 210.2 171.2 381.4 381.4 381.4s381.4-171 381.4-381.4c0-59.2-13.6-115.4-37.8-165.4-8.8 25.6-30.4 44.8-57 53.6-16.2 5.2-47.4 6.8-59 20.8-5.8 7-2 33.2-2 33.2 50.4 2.8 62 12.2 62 12.2 7.8 4.6 4.2 5.4 0.2 12.2-21.8 36.6-12 83-13 123.2-0.8 33.4-9.6 70-40 88.8-15.2 9.4-39.4 13.8-62.8 13.8-19 0-37.4-2.8-50.6-8.2-84.8-34-34.8-146.4-63.8-210.8-5-10.8-12.2-14.6 0.4-21 0 0 15-8.8 57.8-12.6 0 0 0.6-25.2 0-27.8-2.2-9.8-23.6-16.6-31.6-18.8-8.2-2.2-30.8-9.2-58.2-22.6 0 0 30.4-3 50-9.8 13.6 9.2 33.8 11.4 48 17.6s20.6 11.6 23.2 26.6-1 66.4-1 66.4c-24.4-1.8-53.8 3.4-53.8 3.4 8.2 26.4 8 55.4 8 83.4 0 24.4-0.2 47.6 5.2 65.4 4.8 16 12.8 25 28 31 8.8 3.6 23.6 5.8 38.4 5.8 23.2 0 39.2-4.8 46-9 19.6-12.2 24.4-40.6 24.8-62.4 0.2-9-0.2-18.8-0.6-29.2-1-26.6-2.4-55.8 6.6-84h-0.4s-26.6-3.6-52.6-0.6l-2.8-34.6c-1.4-14.2-3.8-35.8 9.6-52 15.4-18.6 40.4-23.8 60.4-27.8 5.2-1 10.4-2.2 13.4-3 15.2-5 41.4-18.8 44.8-62.6-8.6-14-18.4-27.4-29-40z" />
<glyph unicode="&#xe91b;" d="M650.6 832h-330.6v-96h-96v-672h480v96h96v522z" />
<glyph unicode="&#xe91c;" d="M768 192h-416v608h285.4l130.6-131.2z" />
<glyph unicode="&#xe91d;" d="M608 768h-32v-160h160v32h-128v128z" />
<glyph unicode="&#xe91e;" d="M672 96h-416v608h64v-544h352z" />
<glyph unicode="&#xe91f;" d="M408 379.272h221.088v-41.46h-221.088v41.46zM408 462.178h276.364v-41.456h-276.364v41.456zM408 545.090h304v-41.456h-304v41.456z" />
<glyph unicode="&#xe920;" d="M408 296.36h248.724v-41.45h-248.724v41.45z" />
<glyph unicode="&#xe921;" d="M650.6 832h-330.6v-96h-96v-672h480v96h96v522z" />
<glyph unicode="&#xe922;" d="M768 192h-416v608h285.4l130.6-131.2z" />
<glyph unicode="&#xe923;" d="M608 768h-32v-160h160v32h-128v128z" />
<glyph unicode="&#xe924;" d="M672 96h-416v608h64v-544h352z" />
<glyph unicode="&#xe925;" d="M699.342 539.31v-278.688h-278.65v278.688h278.65zM712 552h-304v-304h304v304z" />
<glyph unicode="&#xe926;" d="M509.31 482.31h152.036v-12.62h-152.036v12.62zM509.31 406.34h152.036v-12.678h-152.036v12.678zM509.31 330.338h152.036v-12.676h-152.036v12.676z" />
<glyph unicode="&#xe927;" d="M471.31 488.692c6.974 0 12.69-5.668 12.69-12.692s-5.714-12.69-12.69-12.69c-6.978 0-12.62 5.666-12.62 12.69s5.642 12.692 12.62 12.692z" />
<glyph unicode="&#xe928;" d="M471.31 412.662c6.974 0 12.69-5.69 12.69-12.662s-5.714-12.66-12.69-12.66c-6.978 0-12.62 5.688-12.62 12.66s5.642 12.662 12.62 12.662z" />
<glyph unicode="&#xe929;" d="M471.31 336.662c6.974 0 12.69-5.69 12.69-12.662s-5.714-12.656-12.69-12.656c-6.978 0-12.62 5.684-12.62 12.656s5.642 12.662 12.62 12.662z" />
<glyph unicode="&#xe92a;" glyph-name="copy-outline" data-tags="copy-outline" d="M608 768h-32v-160h160v32h-128zM650.6 832h-330.6v-96h-96v-672h480v96h96v522l-149.4 150zM672 96h-416v608h64v-544h352v-64zM768 192h-416v608h285.4l130.6-131.2v-476.8z" />
<glyph unicode="&#xe92b;" d="M650.6 832h-330.6v-96h-96v-672h480v96h96v522z" />
<glyph unicode="&#xe92c;" d="M768 192h-416v608h285.4l130.6-131.2z" />
<glyph unicode="&#xe92d;" d="M608 768h-32v-160h160v32h-128v128z" />
<glyph unicode="&#xe92e;" d="M672 96h-416v608h64v-544h352z" />
<glyph unicode="&#xe92f;" glyph-name="create-outline" data-tags="create-outline" d="M736 128h-576v544h448.234l32 32h-512.234v-608h640v480.234l-32-32zM475.246 391.832l-19.412 19.414 342.646 342.646-22.626 22.628-359.854-359.82v-64.7h64.432l360.088 359.968-22.626 22.572zM888.426 799.376l-24.93 24.932c-5.328 4.76-12.384 7.692-20.004 7.692-7.662-0.006-14.64-2.93-19.883-7.721l0.023 0.021-24.298-24.3 64.786-64.786 24.3 24.3c4.764 5.25 7.58 12.234 7.58 19.86 0 7.62-2.816 14.676-7.574 20z" />
<glyph unicode="&#xe930;" glyph-name="document-outline" data-tags="document-outline" d="M544 832h-288v-768h512v545l-224 223zM544 786.8l179.6-178.8h-179.6v178.8zM288 96v704h224v-224h224v-480h-448z" />
<glyph unicode="&#xe931;" glyph-name="download-outline" data-tags="download-outline" d="M576 672v-32h224v-544h-576v544h224v32h-256v-608h640v608zM386.2 455.4l-23.2-23.2 149-149 149 149-23.2 23.2-109.4-109.4v486h-32.8v-486z" />
<glyph unicode="&#xe932;" glyph-name="dps" data-tags="dps daily profit profits graphs analytics" d="M576 798.348c90.586-7.41 174.708-46.048 239.62-110.988 72.466-72.5 112.38-168.848 112.38-271.446 0-51.848-10.16-102.084-30.2-149.406-19.362-45.718-47.080-86.768-82.386-122.046-35.308-35.282-76.408-62.96-122.16-82.3-47.346-20.020-97.644-30.164-149.504-30.164-82.386 0-160.94 25.694-227.168 74.292-31.858 23.372-59.94 51.494-83.264 83.384-16.688 22.794-30.8 47.368-42.080 73.27l384.762 96.064v438.992zM544 832v-448l-395.51-98.752c54.816-165.688 211.19-285.248 395.26-285.248 229.75 0 416.25 186.25 416.25 416s-186 416-416 416zM480 863.64v-429.888l-360.684-91.46c-18.236 47.136-22.396 113.948-22.316 138.992v0.142c0 94.62 32.93 187.492 90.346 254.796 33.47 39.24 75.004 69.964 123.44 91.328 49.414 21.79 106.254 33.902 169.214 36.090zM512 896h-11c-320 0-437-232.5-437-414.574 0 0 0.5-113.332 37.82-176.58l410.18 104.006v487.148zM366.606 575.412c-2.852 3.712-6.392 7.026-10.624 9.908s-9.186 5.17-14.876 6.834c-2.288 0.61-6.302 1.546-11.59 2.842-3.782 0.92-7.316 1.872-11.32 2.834v46.91c4.002-1.068 6.776-2.75 9.732-4.624 6.336-4.012 10.302-10.876 11.47-20.202h30.704c-0.294 7.996-2.074 14.536-5.33 20.426-3.58 6.448-8.416 11.994-14.518 16.4-6.106 4.402-13.418 7.76-21.468 9.954-3.5 0.966-6.584 1.766-10.588 2.306v14.814h-28.386v-14.708c-3.112-0.476-6.724-1.098-9.968-1.896-7.636-1.908-14.36-4.822-20.388-8.774-6.020-3.952-10.8-8.916-14.458-14.91-3.668-6.014-5.464-13.1-5.464-21.302 0-4.262 0.622-8.436 1.838-12.53 1.23-4.096 3.31-7.974 6.232-11.618 2.93-3.644 6.878-6.96 11.848-9.908 4.962-2.952 10.956-5.362 18.442-7.18 4.124-1.040 8.36-2.010 11.916-2.912v-53.074c-4.888 1.296-9.718 3.292-13.626 5.984-4.060 2.81-7.124 6.184-9.396 10.6-2.134 4.096-3.144 9.102-3.292 14.44h-30.496c0.314-9.322 2.324-17.542 6.068-24.574 3.902-7.374 9.116-13.298 15.626-17.996 6.502-4.714 13.926-8.154 22.716-10.428 3.946-1.016 8.394-1.758 12.4-2.33v-15.67h28.39v15.322c4.436 0.476 8.424 1.184 12.668 2.158 8.3 1.902 15.808 4.908 22.326 9.008 6.5 4.088 11.798 9.364 15.806 15.82 3.968 6.462 6 14.248 6 23.352 0.004 4.254-0.66 8.516-2.044 12.758-1.388 4.256-3.504 8.248-6.35 11.966zM289.814 604.974c-5.33 1.652-10.612 4.028-14.234 7.104-3.826 3.272-5.626 7.788-5.626 13.564 0 4.090 1.078 7.51 3.114 10.26 2.032 2.718 4.404 4.886 7.484 6.48 2.75 1.424 6.15 2.464 9.264 3.164l-0.002-40.572zM342.566 538.508c-1.298-2.956-3.416-5.574-6.354-7.858-2.916-2.286-6.98-4.144-11.706-5.582-1.986-0.614-3.64-1.084-6.31-1.436v47.518c4.44-1.154 8.082-2.364 11.694-3.602 3.57-1.216 6.984-3.3 9.992-6.256 3.008-2.972 4.578-7.554 4.578-13.79-0.002-3.044-0.592-6.032-1.894-8.994z" />
<glyph unicode="&#xe933;" glyph-name="dps-2" data-tags="dps daily profit profits graphs analytics dps-2" d="M576.62 799.004c90.442-7.416 174.428-46.086 239.232-111.078 72.348-72.56 112.198-168.988 112.198-271.67 0-51.888-10.138-102.17-30.148-149.532-19.33-45.754-47.002-86.836-82.254-122.144-35.25-35.308-76.286-63.012-121.96-82.366-47.274-20.040-97.492-30.19-149.266-30.19-82.254 0-160.678 25.716-226.802 74.354-31.806 23.386-59.842 51.536-83.128 83.45-16.664 22.812-30.75 47.406-42.012 73.33l384.142 96.144v439.354zM544.672 832.684v-448.368l-394.874-98.836c54.728-165.822 210.852-285.48 394.622-285.48 229.382 0 415.58 186.4 415.58 416.342 0 229.938-185.7 416.342-415.328 416.342zM364.346 579.584c-4.482 1.528-8.992 3.026-14.5 4.464v-58.84c3.3 0.432 5.354 1.014 7.834 1.778 5.856 1.786 10.888 4.082 14.522 6.9 3.64 2.83 6.26 6.076 7.88 9.742 1.612 3.666 2.352 7.376 2.352 11.136 0 7.712-1.94 13.4-5.678 17.066-3.744 3.656-7.974 6.238-12.41 7.754zM293.836 664.192c-2.534-3.386-3.86-7.624-3.86-12.692 0-7.158 2.23-12.74 6.974-16.79 4.486-3.81 11.046-6.758 17.654-8.802l0.004 50.24c-3.86-0.862-8.078-2.168-11.48-3.92-3.836-1.974-6.77-4.652-9.292-8.036zM501.974 896c-320.712 0-437.974-232.462-437.974-414.51 0 0 0.5-113.316 37.904-176.544l411.096 103.976v487.078h-11.026zM412.876 529.802c-4.954-7.994-11.54-14.524-19.612-19.596-8.076-5.084-17.402-8.798-27.698-11.138-5.274-1.208-10.21-2.098-15.716-2.688v-18.97h-35.242v19.412c-4.958 0.71-10.49 1.618-15.38 2.884-10.904 2.812-20.118 7.060-28.194 12.902-8.080 5.814-14.542 13.16-19.388 22.282-4.638 8.718-7.144 18.886-7.528 30.422h37.84c0.184-6.602 1.444-12.804 4.078-17.876 2.828-5.456 6.624-9.644 11.67-13.128 4.842-3.328 10.842-5.792 16.898-7.404v65.704c-4.404 1.124-9.656 2.326-14.776 3.608-9.284 2.262-16.734 5.224-22.89 8.89-6.162 3.662-11.062 7.752-14.692 12.276-3.636 4.5-6.22 9.294-7.734 14.378-1.52 5.076-2.286 10.244-2.286 15.508 0 10.15 2.232 18.938 6.776 26.368s10.474 13.578 17.952 18.476c7.468 4.888 15.81 8.502 25.306 10.848 4.008 1 8.494 1.76 12.348 2.344v18.218h35.246v-18.336c4.952-0.674 8.792-1.666 13.128-2.852 9.998-2.724 19.070-6.882 26.642-12.33 7.576-5.458 13.58-12.322 18.030-20.306 4.040-7.288 6.24-15.394 6.6-25.284h-38.094c-1.448 11.538-6.38 20.036-14.24 25-3.676 2.32-7.114 4.42-12.068 5.736v-58.092c4.952-1.18 9.358-2.358 14.038-3.496 6.562-1.602 11.548-2.776 14.378-3.528 7.066-2.068 13.222-4.876 18.472-8.456 5.252-3.576 9.644-7.662 13.184-12.266 3.526-4.61 6.152-9.542 7.87-14.804 1.714-5.264 2.544-10.536 2.542-15.8-0.002-11.276-2.518-20.914-7.46-28.906zM604.212 600.472h50.786v-439.568h-50.786v439.568zM527.97 289.098h50.78v-128.194h-50.78v128.194zM680.492 417.292h50.782v-256.386h-50.782v256.386zM756.736 527.242h50.782v-366.338h-50.782v366.338z" />
<glyph unicode="&#xe934;" glyph-name="exit-outline" data-tags="exit-outline" d="M256 512h32v224h576v-576h-576v224h-32v-256h640v640h-640zM595.8 573.8l23.2 23.2 149-149-149-149-23.2 23.2 109.4 109.4h-577.2v32.8h577.2z" />
<glyph unicode="&#xe935;" glyph-name="eye-off-outline" data-tags="eye-off-outline" d="M240.8 880l514.8-880 27.6 16-514.8 880zM512 672c-24.6 0-48-2.6-71-7.6l13.2-22.6c18.8 3.6 38 5.4 57.8 5.4 148 0 262-102.2 348-199.2-53.8-54.6-118.4-121.2-198-161.4l12.6-21.6c91.6 46.6 164.8 125.8 221.4 183-88.8 102.8-214.8 224-384 224zM512 248.8c-152.2 0-243.2 91.6-348 199.2 71.6 72.6 134 127.4 198.4 161l-12.6 21.6c-73-38.4-143.2-101.4-221.8-182.6 115.6-118.4 212.6-224 384-224 24.6 0 48.2 2.8 71 7.8l-13.2 22.6c-18.8-3.6-38-5.6-57.8-5.6zM626 348c24.6 26.4 39.6 61.6 39.6 100 0 82.4-68.8 149.4-153.6 149.4-10.2 0-20.4-1-30-2.8l13.4-23c5.4 0.6 11 1 16.6 1 70.6 0 128-55.8 128-124.4 0-29-10.2-55.8-27.4-77l13.4-23.2zM398 548c-24.6-26.4-39.6-61.6-39.6-100 0-82.4 68.8-149.4 153.6-149.4 10.4 0 20.4 1 30.2 2.8l-13.4 23c-5.4-0.6-11-1-16.6-1-70.6 0-128 55.8-128 124.4 0 29 10.2 55.8 27.4 77l-13.6 23.2zM432.8 488.6c-6.6-12.2-10.4-26-10.4-40.6 0-46.6 37.6-84.6 85-87l-16.6 28.2c-24.8 8.6-42.8 31.6-42.8 58.6 0 4.2 0.4 8.4 1.2 12.4l-16.4 28.4zM591.2 407.4c6.6 12.2 10.4 26 10.4 40.6h-25.6c0-4.2-0.4-8.4-1.2-12.4l16.4-28.2z" />
<glyph unicode="&#xe936;" glyph-name="eye-outline" data-tags="eye-outline" d="M894.2 447.6c-90.6 104.4-215.8 224.4-382.2 224.4-67.2 0-128.8-19-193.8-59.6-54.8-34.4-111-82.8-188.2-162.4l-2-2 13.4-13.8c110.2-112.8 205.4-210.2 370.6-210.2 73 0 143.8 23.8 216.4 72.8 61.8 41.8 114.4 94.8 156.6 137.6l11 11-1.8 2.2zM512 640c66.2 0 129.8-19 194.4-61.2 47.8-31.2 94.8-73.4 147.4-132.2-76.6-77.4-191.6-190.6-341.8-190.6-68.4 0-128.4 16.8-188.4 56.4-55 36.2-104.6 86.6-152.4 135.6 118.2 119.4 216.8 192 340.8 192zM512 288c88.2 0 160 71.8 160 160s-71.8 160-160 160-160-71.8-160-160 71.8-160 160-160zM512 575.4c70.4 0 128-57.2 128-127.4s-57.6-127.4-128-127.4-127.8 57.2-127.8 127.4 57.4 127.4 127.8 127.4zM576 448c0-35-28.8-64-63.6-64s-64.4 30.4-64.4 65.4 31.6 62.6 64 62.6v32c-53 0-95.8-43.2-95.8-96.4s43-96.2 95.8-96.2 96 43.2 96 96.2v0.4h-32z" />
<glyph unicode="&#xe937;" glyph-name="filing-outline" data-tags="filing-outline" d="M737 704h-450l-127-192v-320h704v320l-127 192zM826.8 512h-90.8v136l90.8-136zM320 672h384v-160h-96c0-53-43-96-96-96s-96 43-96 96h-96v160zM288 648v-136h-90.8l90.8 136zM832 224h-640v256h196c14.2-55.2 64.4-96 124-96s109.8 40.8 124 96h196v-256z" />
<glyph unicode="&#xe938;" glyph-name="flag-outline" data-tags="flag-outline" d="M736 736c-22-2.8-49.8-7-79.4-7-46.2 0-88 11.4-130.4 20.4-43 9.2-87.4 18.6-134.4 18.6-93.8 0-125.6-20.2-128.8-22.4l-6.8-4.8v-612.8h32v286.6c12 5 43.6 13.8 103.8 13.8 43.6 0 84.4-16.6 127.8-26 44-9.4 89.6-19.2 139-19.2 29.4 0 55.4 4 77.4 6.6 12 1.4 22.6 2.8 32 4.4v346.8c-9.4-1.8-20.2-3.4-32.2-5zM736 422c-22-2.8-47.8-7-77.4-7-46.2 0-90 9.4-132.4 18.4-43 9.2-87.2 26.6-134.2 26.6-51.4 0-83.8-6-103.8-12v274.6c12 5 43.8 13.6 103.8 13.6 43.6 0 84.4-8.6 127.8-18 44-9.4 87.6-21.2 137-21.2 29.4 0 57.4 4 79.4 6.6l-0.2-281.6z" />
<glyph unicode="&#xe939;" glyph-name="folder-open-outline" data-tags="folder-open-outline" d="M912.6 640h-16.6v82c0 26.6-18.8 46-45.6 46h-388.6c-5.6 0-8.6 1.2-12.2 4.8l-45.4 45.4c-9.8 9.2-17.8 13.8-34.6 13.8h-192.2c-27.6 0-49.4-20.6-49.4-46v-146h-16.6c-25.6 0-50.6-10.2-47-48.6s47-477.4 47-477.4c5.4-35.6 23.4-50 50-50h705c25.4 0 42 15.6 46 50 0 0 44.4 425.8 47.2 467s-17.8 59-47 59zM160 786c0 8.6 8.8 14 17.4 14h192.2c7 0 7.4-0.4 12.4-5l45-44.8c9.6-9.6 20.8-14.2 34.8-14.2h388.6c9 0 13.6-5.2 13.6-14v-82h-704v146zM880.4 114c-1.6-9.4-7.4-18-16-18h-700.4c-9 0-19 7-20.6 18l-48 478c0 8.8 7.2 16 16 16h801.2c8.8 0 16-7.2 16-16l-48.2-478z" />
<glyph unicode="&#xe93a;" glyph-name="folder-outline" data-tags="folder-outline" d="M914 768h-484c-5.58 0-8.54 1.17-12.188 4.816l-45.34 45.326c-9.738 9.194-17.748 13.858-34.472 13.858h-224c-27.57 0-50-20.634-50-46v-672c0-26.634 23.366-50 50-50h800c25.366 0 46 22.43 46 50v608c0 26.654-19.346 46-46 46zM114 800h224c6.994 0 7.474-0.38 12.35-4.976l44.834-44.836c9.68-9.68 20.744-14.188 34.816-14.188h484c8.896 0 14-5.104 14-14v-84.752c-4.758 1.744-10.251 2.752-15.98 2.752-0.007 0-0.014 0-0.021 0h-799.999c-5.61 0-10.992-0.976-16-2.752v148.752c0 8.646 9.344 14 18 14zM928 114c0-8.656-5.354-18-14-18h-800c-8.916 0-18 9.084-18 18v478c0 8.82 7.18 16 16 16h800c8.82 0 16-7.18 16-16v-478z" />
<glyph unicode="&#xe93b;" glyph-name="globe-outline" data-tags="globe-outline" d="M512 864h-1c-229.4-0.6-415-186.6-415-416s185.6-415.4 415-416h1c229.8 0 416 186.2 416 416s-186.2 416-416 416zM528.6 615c44.2 1.2 87 7 128.4 17 12.4-49 20.2-105.6 21.4-167.6h-149.8v150.6zM528.6 648.4v179.6c44.8-12.4 90.4-72.2 119.2-164-38.4-9.2-78.2-14.4-119.2-15.6zM495.4 828.4v-180.2c-41.4 1.2-81.6 6.6-120.2 16 29.2 92.4 75 152.6 120.2 164.2zM495.4 615v-150.4h-150.8c1.2 62 9 118.6 21.4 167.6 41.6-10 85-16 129.4-17.2zM311 464.6h-181.2c3.6 85.6 35.6 164 86.6 226 37-20.4 76.4-37.2 117.6-49.6-13.6-53-21.6-112.8-23-176.4zM311 431.4c1.2-63.4 9.2-123.4 22.8-176.4-41.2-12.6-80.4-29.2-117.6-49.6-51 62-82.8 140.4-86.6 226h181.4zM344.6 431.4h150.8v-150.2c-44.4-1.2-87.8-7.2-129.4-17.4-12.4 49-20.2 105.6-21.4 167.6zM495.4 247.8v-180.4c-45.2 11.8-91 71.8-120.2 164.2 38.6 9.6 78.8 15 120.2 16.2zM528.6 68v180c41-1.2 80.8-6.6 119.4-15.8-29-92-74.4-151.8-119.4-164.2zM528.6 281.2v150.2h149.8c-1.2-61.8-9-118.4-21.4-167.4-41.4 10-84.2 16-128.4 17.2zM711.8 431.4h182.4c-3.6-85.6-35.6-163.8-86.6-226-37.4 20.6-77 37.4-118.6 50 13.6 53 21.6 112.6 22.8 176zM711.8 464.6c-1.2 63.4-9.2 123.2-22.6 176.2 41.6 12.6 81.2 29.4 118.4 49.8 51-62 83-140.4 86.6-226.2h-182.4zM784.8 716.2c-33.2-17.6-68-32.2-104.6-43.2-19.4 62.6-46.8 113.6-79 147.2 70.8-17 134-53.8 183.6-104zM421.6 819.8c-32.2-33.4-59.4-84.4-78.6-146.6-36.2 11-70.8 25.4-103.6 43 49 50 111.8 86.6 182.2 103.6zM239.2 180c32.8 17.6 67.6 32 103.6 43 19.4-62.4 46.6-113.2 78.8-146.8-70.4 17-133.2 53.6-182.4 103.8zM601.2 75.8c32.4 33.6 59.6 84.6 79.2 147.4 36.6-11 71.4-25.6 104.6-43.2-49.6-50.4-113-87.2-183.8-104.2z" />
<glyph unicode="&#xe93c;" glyph-name="help-circle-outline" data-tags="help-circle-outline" d="M512 864c-229.8 0-416-186.2-416-416s186.2-416 416-416 416 186.2 416 416-186.2 416-416 416zM512 66.6c-210.2 0-381.4 171-381.4 381.4 0 210.2 171 381.4 381.4 381.4 210.2 0 381.4-171 381.4-381.4 0-210.2-171.2-381.4-381.4-381.4zM519.2 668c-86.4 0-134.6-40.6-135.2-124.4h37.6c-1.2 60.8 31 93 95.8 93 46.4 0 85.2-32.4 85.2-79.6 0-30.6-16.6-55.4-38.8-76.2-45.2-41.6-58-72-60.2-129h38c2.2 51.6 1 61.4 46.6 106.6 30.4 28.4 51.8 56.6 51.8 100.4 0 68.4-54.8 109.2-120.8 109.2zM520.6 295.4c-18.8 0-34-15-34-33.6s15.2-33.8 34-33.8 34 15 34 33.8c0 18.6-15.2 33.6-34 33.6z" />
<glyph unicode="&#xe93d;" glyph-name="home-outline" data-tags="home-outline" d="M512 736l-320-256v-416h224v256h192v-256h224v416l-320 256zM800 96h-160v256h-256v-256h-160v368.62l288 230.4 288-230.4v-368.62zM512 832l-192-153.6v89.6h-128v-192l-64-50.996 23.020-22.768 360.98 288.784 360.98-288.786 23.020 22.77-384 306.996zM288 652.8l-64-51.2v134.4h64v-83.2z" />
<glyph unicode="&#xe93e;" glyph-name="image-outline" data-tags="image-outline" d="M128 832v-768h768v768h-768zM864 96h-706v704h706v-704zM640 608c0-17.673-14.327-32-32-32s-32 14.327-32 32c0 17.673 14.327 32 32 32s32-14.327 32-32zM192 768v-512h640v512h-640zM589.2 288h-282.4l141.2 200.4 141.2-200.4zM576.8 361.2l44.6 63.2 96-136.4h-89.2l-51.4 73.2zM800 288h-43.4l-135.2 192-64.2-91-109.2 155-180.2-256h-43.8v448h576v-448z" />
<glyph unicode="&#xe93f;" glyph-name="images-outline" data-tags="images-outline" d="M780.8 716.2l-12.8 179.8-704-48 46.6-639.8 44.4 3.2-11-157.8 768-53.6 48 704-179.2 12.2zM138.4 242.2l-40.2 574.6 640.4 44.8 10-143.2-32.2 2.2-7.4 107-574.8-40.4 30.6-436.4-7.6-107.2-18.8-1.4zM193.2 756l-12.4-175.8-12.4 177.4 510.8 35.8 5-70.6-491 33.2zM881.2 34.2l-705 49.2 44.6 638.6 705-49.2-44.6-638.6zM720.598 494.463c-17.631 1.234-30.923 16.527-29.689 34.158s16.527 30.923 34.158 29.689c17.631-1.234 30.923-16.527 29.689-34.158s-16.527-30.923-34.158-29.689zM252.6 687.6l-31.2-447 639-44.6 31.2 447-639 44.6zM338.2 264.6l155 190.2 126.8-209.8-281.8 19.6zM659.2 242.2l-46.4 76.6 49 60 86.4-142.8-89 6.2zM830.6 230.2l-43.4 3-121.6 201-70.4-86.4-98.2 162.4-197.8-242.8-43.6 3 26.8 383.2 575.2-40.2-27-383.2z" />
<glyph unicode="&#xe940;" glyph-name="information-circle-outline" data-tags="information-circle-outline" d="M543 616c0-22.091-17.909-40-40-40s-40 17.909-40 40c0 22.091 17.909 40 40 40s40-17.909 40-40zM544 272v256h-96v-16h32v-240h-32v-16h128v16zM512 864c-229.8 0-416-186.2-416-416s186.2-416 416-416 416 186.2 416 416-186.2 416-416 416zM512 66.6c-210.2 0-381.4 171-381.4 381.4 0 210.2 171 381.4 381.4 381.4 210.2 0 381.4-171 381.4-381.4 0-210.2-171.2-381.4-381.4-381.4z" />
<glyph unicode="&#xe941;" glyph-name="invoice" data-tags="invoice" horiz-adv-x="945" d="M118.154 960v-905.846h39.384v866.462h748.306v-908.552c0-20.186-16.492-36.678-36.678-36.678h-793.106c-20.184 0-36.676 16.492-36.676 36.678v751.014h39.384v39.384h-78.768v-790.4c0-41.846 33.968-76.062 76.062-76.062h793.354c41.846 0 76.060 33.968 76.060 76.062v947.938h-827.322zM196.924 691.692h351.832v-39.384h-351.832v39.384zM196.924 494.77h659.692v-39.384h-659.692v39.384zM196.924 297.846h527.75v-39.384h-527.75v39.384zM196.924 100.924h659.692v-39.384h-659.692v39.384zM854.082 749.42c-1.716 5.262-4.336 10.198-7.858 14.808-3.53 4.606-7.912 8.694-13.15 12.27-5.24 3.572-11.384 6.39-18.434 8.46-2.828 0.75-7.798 1.926-14.344 3.528-4.68 1.14-9.066 2.308-14.010 3.498v58.090c4.944-1.318 8.376-3.408 12.044-5.73 7.846-4.968 12.764-13.464 14.208-25.004h38.008c-0.362 9.89-2.556 18-6.592 25.286-4.436 7.99-10.426 14.848-17.984 20.306-7.554 5.452-16.608 9.61-26.58 12.338-4.332 1.182-8.16 2.178-13.104 2.848v18.344h-35.164v-18.224c-3.846-0.574-8.324-1.344-12.322-2.336-9.476-2.354-17.798-5.97-25.25-10.86-7.458-4.892-13.378-11.050-17.914-18.476-4.534-7.43-6.764-16.22-6.764-26.374 0-5.266 0.772-10.436 2.284-15.514 1.512-5.076 4.090-9.872 7.716-14.384 3.626-4.514 8.512-8.606 14.66-12.27 6.146-3.666 13.576-6.63 22.844-8.884 5.104-1.29 10.348-2.494 14.744-3.616v-65.708c-6.046 1.606-12.028 4.068-16.86 7.408-5.038 3.476-8.826 7.666-11.644 13.124-2.628 5.072-3.888 11.278-4.070 17.87h-37.756c0.382-11.538 2.884-21.7 7.512-30.422 4.834-9.124 11.282-16.462 19.344-22.286 8.056-5.832 17.25-10.086 28.13-12.906 4.88-1.266 10.398-2.176 15.346-2.876v-19.42h35.164v18.978c5.494 0.588 10.416 1.478 15.672 2.68 10.278 2.348 19.588 6.064 27.646 11.142 8.056 5.074 14.628 11.608 19.568 19.604 4.932 7.99 7.442 17.63 7.442 28.912 0 5.262-0.824 10.53-2.532 15.796v0zM751.122 800.824c-6.596 2.056-13.138 4.994-17.612 8.818-4.738 4.042-6.964 9.634-6.964 16.784 0 5.076 1.326 9.308 3.85 12.694 2.516 3.384 5.446 6.064 9.276 8.038 3.392 1.752 7.606 3.058 11.452 3.922v-50.256zM816.452 718.534c-1.618-3.668-4.232-6.91-7.86-9.732-3.628-2.82-8.65-5.126-14.494-6.91-2.472-0.756-4.518-1.344-7.816-1.778v58.85c5.496-1.44 9.99-2.928 14.466-4.466 4.428-1.508 8.652-4.090 12.382-7.758 3.728-3.668 5.664-9.356 5.664-17.064 0.002-3.764-0.732-7.476-2.342-11.142v0z" />
<glyph unicode="&#xe942;" glyph-name="keypad-outline" data-tags="keypad-outline" d="M789.2 277.6c-59 0-106.8-47.8-106.8-106.8s47.8-106.8 106.8-106.8 106.8 47.8 106.8 106.8-47.8 106.8-106.8 106.8zM789.2 96c-41.2 0-74.8 33.6-74.8 74.8s33.6 74.8 74.8 74.8 74.8-33.6 74.8-74.8c0-41.2-33.6-74.8-74.8-74.8zM512 277.6c-59 0-106.8-47.8-106.8-106.8s47.8-106.8 106.8-106.8 106.8 47.8 106.8 106.8-47.8 106.8-106.8 106.8zM512 96c-41.2 0-74.8 33.6-74.8 74.8s33.6 74.8 74.8 74.8 74.8-33.6 74.8-74.8c0-41.2-33.6-74.8-74.8-74.8zM234.8 277.6c-59 0-106.8-47.8-106.8-106.8s47.8-106.8 106.8-106.8 106.8 47.8 106.8 106.8-47.8 106.8-106.8 106.8zM234.8 96c-41.2 0-74.8 33.6-74.8 74.8s33.6 74.8 74.8 74.8 74.8-33.6 74.8-74.8c0-41.2-33.4-74.8-74.8-74.8zM789.2 554.8c-59 0-106.8-47.8-106.8-106.8s47.8-106.8 106.8-106.8 106.8 47.8 106.8 106.8-47.8 106.8-106.8 106.8zM789.2 373.2c-41.2 0-74.8 33.6-74.8 74.8s33.6 74.8 74.8 74.8 74.8-33.6 74.8-74.8c0-41.2-33.6-74.8-74.8-74.8zM512 554.8c-59 0-106.8-47.8-106.8-106.8s47.8-106.8 106.8-106.8 106.8 47.8 106.8 106.8-47.8 106.8-106.8 106.8zM512 373.2c-41.2 0-74.8 33.6-74.8 74.8s33.6 74.8 74.8 74.8 74.8-33.6 74.8-74.8c0-41.2-33.6-74.8-74.8-74.8zM234.8 554.8c-59 0-106.8-47.8-106.8-106.8s47.8-106.8 106.8-106.8 106.8 47.8 106.8 106.8-47.8 106.8-106.8 106.8zM234.8 373.2c-41.2 0-74.8 33.6-74.8 74.8s33.6 74.8 74.8 74.8 74.8-33.6 74.8-74.8c0-41.2-33.4-74.8-74.8-74.8zM789.2 618.4c59 0 106.8 47.8 106.8 106.8s-47.8 106.8-106.8 106.8-106.8-47.8-106.8-106.8 47.8-106.8 106.8-106.8zM789.2 800c41.2 0 74.8-33.6 74.8-74.8s-33.6-74.8-74.8-74.8-74.8 33.6-74.8 74.8c0 41.2 33.4 74.8 74.8 74.8zM512 832c-59 0-106.8-47.8-106.8-106.8s47.8-106.8 106.8-106.8 106.8 47.8 106.8 106.8-47.8 106.8-106.8 106.8zM512 650.4c-41.2 0-74.8 33.6-74.8 74.8s33.6 74.8 74.8 74.8 74.8-33.6 74.8-74.8c0-41.2-33.6-74.8-74.8-74.8zM234.8 832c-59 0-106.8-47.8-106.8-106.8s47.8-106.8 106.8-106.8 106.8 47.8 106.8 106.8-47.8 106.8-106.8 106.8zM234.8 650.4c-41.2 0-74.8 33.6-74.8 74.8s33.6 74.8 74.8 74.8 74.8-33.6 74.8-74.8c0-41.2-33.4-74.8-74.8-74.8z" />
<glyph unicode="&#xe943;" glyph-name="list-box-outline" data-tags="list-box-outline" d="M864 800v-704h-704v704h704zM896 832h-768v-768h768v768zM384 656h384v-32h-384zM384 464h384v-32h-384zM384 272h384v-32h-384zM320 640c0-17.673-14.327-32-32-32s-32 14.327-32 32c0 17.673 14.327 32 32 32s32-14.327 32-32zM320 448c0-17.673-14.327-32-32-32s-32 14.327-32 32c0 17.673 14.327 32 32 32s32-14.327 32-32zM320 256c0-17.673-14.327-32-32-32s-32 14.327-32 32c0 17.673 14.327 32 32 32s32-14.327 32-32z" />
<glyph unicode="&#xe944;" glyph-name="llocation-outline" data-tags="llocation-outline" horiz-adv-x="614" d="M306.822-64c-8.396 17.768-15.994 33.776-23.53 49.812-84.656 180.126-169.51 360.158-253.894 540.412-86.506 184.794 26.37 397.456 227.726 429.698 164 26.258 316.162-76.78 350.452-238.288 14.032-66.106 6.008-130.208-22.86-191.584-90.366-192.156-180.62-384.36-270.942-576.538-1.868-3.974-4.016-7.82-6.952-13.512zM306.77 24.578c2.49 4.71 4.128 7.534 5.514 10.478 80.052 170.098 160.274 340.114 240 510.362 26.818 57.266 32.112 117.076 16.224 178.344-33.934 130.86-162.852 215.876-298.142 196.998-181.346-25.302-284.722-214.546-207.154-379.476 69.478-147.73 139.162-295.362 208.762-443.036 11.292-23.954 22.618-47.888 34.796-73.67zM306.942 520.91c-80.412 0.086-146.168 65.814-146.296 146.228-0.126 80.762 66.43 147.088 147.096 146.586 80.466-0.502 146.004-66.53 145.718-146.814-0.282-80.438-66.166-146.088-146.518-146zM307.554 774.638c-58.748 0.23-107.316-47.626-107.82-106.236-0.508-59.258 47.688-108.178 106.806-108.408 58.75-0.228 107.334 47.642 107.834 106.252 0.504 59.234-47.71 108.16-106.82 108.392z" />
<glyph unicode="&#xe945;" glyph-name="locate-outline" data-tags="locate-outline" d="M640 448c0-70.692-57.308-128-128-128s-128 57.308-128 128c0 70.692 57.308 128 128 128s128-57.308 128-128zM944 464h-48.4c-8.2 199.4-168.2 359.4-367.6 367.6v48.4c0 8.8-7.2 16-16 16s-16-7.2-16-16v-48.4c-199.4-8.2-359.4-168.2-367.6-367.6h-48.4c-8.8 0-16-7.2-16-16s7.2-16 16-16h48.4c8.2-199.4 168.4-359.4 367.6-367.6v-48.4c0-8.8 7.2-16 16-16s16 7.2 16 16v48.4c199.4 8.2 359.4 168.4 367.6 367.6h48.4c8.8 0 16 7.2 16 16s-7.2 16-16 16zM760.8 199.2c-62.8-62.8-144.8-98.8-232.8-102.8v79.6c0 8.8-7.2 16-16 16s-16-7.2-16-16v-79.6c-88 4-170.2 40-232.8 102.8-62.8 62.6-99 144.8-102.8 232.8h79.6c8.8 0 16 7.2 16 16s-7.2 16-16 16h-79.6c4 88 40 170.2 102.8 232.8s144.8 99 232.8 102.8v-79.6c0-8.8 7.2-16 16-16s16 7.2 16 16v79.6c88-4 170.2-40 232.8-102.8s99-144.8 102.8-232.8h-79.6c-8.8 0-16-7.2-16-16s7.2-16 16-16h79.6c-3.8-88-40-170.2-102.8-232.8z" />
<glyph unicode="&#xe946;" glyph-name="log-in" data-tags="log-in" d="M274 800h572c44.2 0 80-35.8 80-80v-544c0-44.2-35.8-80-80-80h-572c-44.2 0-80 35.8-80 80 0 8.8 7.2 16 16 16s16-7.2 16-16c0-26.4 21.6-48 48-48h572c26.4 0 48 21.6 48 48v544c0 26.4-21.6 48-48 48h-572c-26.4 0-48-21.6-48-48 0-8.8-7.2-16-16-16s-16 7.2-16 16c0 44.2 35.8 80 80 80zM632.6 466.6l-169.2 168.8c-6.2 6.2-16.4 6.2-22.6 0s-6.2-16.4 0-22.6l151.2-148.8h-478c-8.8 0-16-7.2-16-16s7.2-16 16-16h478l-147.4-148.8c-6.2-6.2-6.2-16.4 0-22.6 3.2-3 7.2-4.6 11.4-4.6s8.2 1.4 11.4 4.6l165.2 164.8c12.6 12.6 12.6 28.8 0 41.2z" />
<glyph unicode="&#xe947;" glyph-name="log-out" data-tags="log-out" d="M560 96h-384c-44.2 0-80 35.8-80 80v544c0 44.2 35.8 80 80 80h384c44.2 0 80-35.8 80-80 0-8.8-7.2-16-16-16s-16 7.2-16 16c0 26.4-21.6 48-48 48h-384c-26.4 0-48-21.6-48-48v-544c0-26.4 21.6-48 48-48h384c26.4 0 48 21.6 48 48 0 8.8 7.2 16 16 16s16-7.2 16-16c0-44.2-35.8-80-80-80zM918.6 466.6l-169.2 168.8c-6.2 6.2-16.4 6.2-22.6 0s-6.2-16.4 0-22.6l151.2-148.8h-542c-8.8 0-16-7.2-16-16s7.2-16 16-16h542l-147.4-148.8c-6.2-6.2-6.2-16.4 0-22.6 3.2-3 7.2-4.6 11.4-4.6s8.2 1.4 11.4 4.6l165.2 164.8c12.6 12.6 12.6 28.8 0 41.2z" />
<glyph unicode="&#xe948;" glyph-name="map-outline" data-tags="map-outline" d="M704.8 704l-191.4 128-192.6-128-192.8 128v-640l192.8-128 192.6 128 191.4-128 191.2 128v640l-191.2-128zM336 675.2l160 106.4v-563l-160-106.2v562.8zM528 784l160-106.8v-563.2l-160 107v563zM160 772l144-95.2v-563.2l-144 95.6v562.8zM864 209.2l-144-96.6v562.6l144 96.8v-562.8z" />
<glyph unicode="&#xe949;" glyph-name="medal-outline" data-tags="medal-outline" d="M704 449.2c31.2-41.4 48-91.4 48-144.2 0-64.2-25-124.4-70.2-169.8s-105.6-70.2-169.8-70.2-124.4 25-169.8 70.2-70.2 105.6-70.2 169.8c0 52.8 17 103 48.2 144.4l-12.4 3.4-20.4 5.8c-30-43.6-47.4-96.6-47.4-153.6 0-150.2 121.8-273 272-273s272 122.8 272 273c0 56.8-17.4 109.6-47.2 153.2l-32.8-9zM597.4 419.8l-43.4-12c41-16.6 70-56.8 70-103.8 0-61.8-50.2-112-112-112s-112 50.2-112 112c0 47 29 87.2 69.8 103.8l-43.2 12c-35.6-26.2-58.6-68.4-58.6-115.8 0-79.4 64.6-144 144-144s144 64.6 144 144c0 47.4-23 89.6-58.6 115.8zM96 864v-320l416-116 416 116v320h-832zM896 832v-64h-768v64h768zM128 568v168h224v-232l-224 64zM512 462.6l-128 34v239.4h256v-239.4l-128-34zM672 504v232h224v-168l-224-64z" />
<glyph unicode="&#xe94a;" glyph-name="menu" data-tags="menu" d="M128 672h768v-64h-768zM128 480h768v-64h-768zM128 288h768v-64h-768z" />
<glyph unicode="&#xe94b;" glyph-name="more-outline" data-tags="more-outline" d="M512 484c19.8 0 36-16.2 36-36s-16.2-36-36-36-36 16.2-36 36 16.2 36 36 36zM512 512c-35.4 0-64-28.6-64-64s28.6-64 64-64 64 28.6 64 64-28.6 64-64 64zM256.8 484c19.8 0 36-16.2 36-36s-16.2-36-36-36-36 16.2-36 36 16.2 36 36 36zM256.8 512c-35.4 0-64-28.6-64-64s28.6-64 64-64 64 28.6 64 64-28.8 64-64 64zM768 484c19.8 0 36-16.2 36-36s-16.2-36-36-36-36 16.2-36 36 16.2 36 36 36zM768 512c-35.4 0-64-28.6-64-64s28.6-64 64-64 64 28.6 64 64-28.6 64-64 64z" />
<glyph unicode="&#xe94c;" glyph-name="navigate-outline" data-tags="navigate-outline" d="M512 831c102.2 0 198.4-39.8 270.8-112.2s112.2-168.4 112.2-270.8-39.8-198.4-112.2-270.8-168.4-112.2-270.8-112.2-198.4 39.8-270.8 112.2c-72.2 72.4-112.2 168.6-112.2 270.8s39.8 198.4 112.2 270.8c72.4 72.2 168.6 112.2 270.8 112.2zM512 864c-229.8 0-416-186.2-416-416s186.2-416 416-416 416 186.2 416 416-186.2 416-416 416zM704 640l-447.4-192h255.4v-256z" />
<glyph unicode="&#xe94d;" glyph-name="oil-location" data-tags="oil-location" horiz-adv-x="755" d="M644.028 849.516c-71.254 71.248-165.964 110.486-266.782 110.486-100.764 0-195.5-39.238-266.76-110.486-71.26-71.262-110.486-166.010-110.486-266.782 0-68.126 15.726-125.22 49.54-179.666 29.836-48.106 69.872-87.816 112.254-129.896 78.19-77.558 166.784-165.508 204.534-328.488 1.174-5.094 5.68-8.684 10.93-8.684 5.252 0 9.768 3.59 10.926 8.7 37.754 162.976 126.402 250.892 204.55 328.472 42.378 42.042 82.4 81.792 112.232 129.896 33.852 54.456 49.578 111.55 49.578 179.666-0.032 100.772-39.29 195.52-110.516 266.782zM377.246 288.79c-162.062 0-293.924 131.85-293.924 293.956 0 162.108 131.848 293.946 293.924 293.946 162.086 0 293.956-131.87 293.956-293.956 0-162.088-131.87-293.946-293.956-293.946zM493.336 554.688c2.006-2.458 3.068-5.508 3.068-8.764 0-7.708-6.274-13.968-13.958-13.968-0.462 0-0.882 0.032-1.284 0.074-0.146 0.010-0.22 0.010-0.374 0.034-0.27 0.032-0.636 0.084-0.906 0.14-0.152 0.032-0.226 0.042-0.4 0.074-0.352 0.086-0.752 0.184-1.122 0.292-0.062 0.032-0.208 0.056-0.226 0.086-0.298 0.118-0.668 0.216-0.948 0.344-0.14 0.056-0.236 0.14-0.42 0.17-0.206 0.122-0.462 0.226-0.68 0.358-0.194 0.052-0.268 0.15-0.4 0.216-4.262 2.382-7.178 6.928-7.178 12.178 0 2.264 0.552 4.454 1.568 6.414l-1.506 18.842c-8.832-4.958-14.774-14.412-14.774-25.256 0-9.852 4.9-18.55 12.416-23.746l-8.884-12.752c-1.388-1.928-1.852-4.334-1.41-6.444 0.378-1.608 1.284-2.944 2.546-3.836 0.422-0.292 0.906-0.518 1.37-0.724 9.578-3.502 20.736-3.158 31.432 0.982 10.668 4.14 20.458 11.984 27.516 22.052 7.064 10.068 11.012 21.926 11.264 33.416 0.252 11.448-3.264 22.042-9.894 29.824-0.31 0.412-0.686 0.766-1.126 1.058-1.22 0.862-2.804 1.272-4.4 1.044-2.19-0.278-4.274-1.562-5.622-3.502l-9.61-13.732c-2.274 1.606-4.742 2.898-7.438 3.792l1.38-18.666zM493.358 635.714l-196.686 52.040 0.668-4.346c0.53-3.252-0.55-6.638-2.778-9.020l-4.334-4.582 198.262-52.492 4.868 18.4zM292.166 481.388h9.896l2.9 9.488h100.828l2.922-9.488h11.158l-48.996 159.252h-7.534c0.776 0.926 1.326 2.068 1.574 3.458l-19.434 5.164c-0.334-1.012-0.53-0.752-0.53-1.864 0-2.596 0.992-4.968 2.632-6.768h-8.464l-46.952-159.242zM403.094 499.726h-95.502l23.034 76.488h49.056l23.412-76.488zM370.226 607.118l6.76-22.042h-43.71l6.608 22.042h30.342zM251.378 645.276v-151.976h5.184v152.146l32.294 34.29c0.634 0.678 0.906 1.562 0.776 2.458l-6.34 40.196c-0.16 0.926-0.71 1.724-1.574 2.166-0.442 0.196-0.884 0.302-1.326 0.302-0.484 0-0.926-0.108-1.348-0.302-20.252-10.402-32.864-30.99-32.864-53.734 0-8.482 1.682-16.5 5.14-24.242 0.080-0.152 0.058-1.304 0.058-1.304zM278.604 716.944l4.798-30.502-18.572 18.592c3.838 4.644 8.44 8.7 13.774 11.91zM261.89 701.11l17.73-17.83-27.058-10.096c0.498 10.184 3.786 19.788 9.328 27.926zM280.266 678.344l-24.63-26.234-0.27 0.828c-1.606 4.86-2.598 9.884-2.844 15.046l27.744 10.36zM482.468 539.78c3.378 0 6.136 2.76 6.136 6.156 0 2.178-1.122 4.084-2.836 5.194l-4.71 60.074-8.010 2.088 4.948-63.090c-1.084-1.11-1.742-2.608-1.742-4.28 0.008-3.382 2.778-6.142 6.214-6.142zM261.608 476.626v9.982c0 0.894-0.7 1.658-1.67 1.658h-11.9c-0.948 0-1.724-0.752-1.724-1.658v-9.982h-30.95l-4.614-13.518h333.032l-4.616 13.518h-277.558z" />
<glyph unicode="&#xe94e;" glyph-name="open-outline" data-tags="open-outline" d="M800 96h-640v640h352v32h-384v-704h704v384h-32zM640 832v-32h200l-392-393.8 22.2-22.2 393.8 392v-200h32v256z" />
<glyph unicode="&#xe94f;" glyph-name="options-outline" data-tags="options-outline" d="M704 752c17.674 0 32-14.326 32-32s-14.326-32-32-32-32 14.326-32 32 14.326 32 32 32zM704 784c-35.29 0-64-28.71-64-64s28.71-64 64-64 64 28.71 64 64-28.71 64-64 64zM704 208c17.674 0 32-14.326 32-32s-14.326-32-32-32-32 14.326-32 32 14.326 32 32 32zM704 240c-35.29 0-64-28.71-64-64s28.71-64 64-64 64 28.71 64 64-28.71 64-64 64zM320 480c17.674 0 32-14.326 32-32s-14.326-32-32-32-32 14.326-32 32 14.326 32 32 32zM320 512c-35.29 0-64-28.71-64-64s28.71-64 64-64 64 28.71 64 64-28.71 64-64 64zM414.64 464h545.36v-32h-545.36c0.88 5.208 1.36 10.546 1.36 16s-0.48 10.792-1.36 16zM224 448c0-5.454 0.48-10.792 1.36-16h-161.36v32h161.36c-0.86-4.807-1.354-10.344-1.36-15.995v-0.005zM798.64 192h161.36v-32h-161.36c0.88 5.208 1.36 10.546 1.36 16s-0.48 10.792-1.36 16zM608 176c0-5.454 0.48-10.792 1.36-16h-545.36v32h545.36c-0.86-4.807-1.354-10.344-1.36-15.995v-0.005zM798.64 736h161.36v-32h-161.36c0.88 5.208 1.36 10.546 1.36 16s-0.48 10.792-1.36 16zM609.36 736c-0.88-5.208-1.36-10.546-1.36-16s0.48-10.792 1.36-16h-545.36v32h545.36z" />
<glyph unicode="&#xe950;" glyph-name="paper-outline" data-tags="paper-outline" d="M224 864v-736h32v704h608v-738.2c0-16.4-13.4-29.8-29.8-29.8h-644.4c-16.4 0-29.8 13.4-29.8 29.8v610.2h32v32h-64v-642.2c0-34 27.6-61.8 61.8-61.8h644.6c34 0 61.8 27.6 61.8 61.8v770.2h-672.2zM320 736h256v-32h-256zM320 576h480v-32h-480zM320 416h384v-32h-384zM320 256h480v-32h-480z" />
<glyph unicode="&#xe951;" glyph-name="payroll" data-tags="payroll" d="M876.494 615.175c-1.713 5.275-4.332 10.219-7.85 14.84-3.523 4.617-7.902 8.713-13.135 12.299-5.232 3.58-11.371 6.406-18.412 8.479-2.822 0.752-7.789 1.934-14.328 3.537-4.674 1.143-9.057 2.314-13.994 3.508v58.225c4.938-1.32 8.365-3.416 12.033-5.744 7.836-4.979 12.748-13.496 14.188-25.061h37.965c-0.363 9.912-2.553 18.041-6.584 25.346-4.43 8.010-10.414 14.883-17.965 20.354-7.545 5.465-16.586 9.633-26.547 12.367-4.33 1.186-8.152 2.184-13.090 2.855v18.385h-35.119v-18.266c-3.84-0.574-8.313-1.348-12.309-2.342-9.465-2.359-17.777-5.984-25.221-10.885-7.447-4.904-13.361-11.076-17.893-18.52-4.529-7.447-6.756-16.258-6.756-26.436 0-5.279 0.77-10.459 2.281-15.549s4.084-9.895 7.707-14.42c3.621-4.523 8.5-8.625 14.643-12.301 6.139-3.674 13.559-6.645 22.816-8.904 5.102-1.291 10.338-2.5 14.729-3.627v-65.861c-6.039 1.609-12.012 4.078-16.84 7.428-5.029 3.486-8.816 7.684-11.631 13.152-2.625 5.086-3.885 11.305-4.064 17.912h-37.713c0.383-11.564 2.883-21.748 7.504-30.494 4.83-9.145 11.268-16.5 19.322-22.34 8.047-5.846 17.229-10.111 28.094-12.938 4.877-1.27 10.389-2.18 15.328-2.883v-19.465h35.125v19.021c5.488 0.592 10.406 1.484 15.654 2.689 10.266 2.352 19.563 6.076 27.613 11.168 8.047 5.086 14.615 11.635 19.545 19.648 4.928 8.010 7.432 17.67 7.432 28.979 0.002 5.281-0.82 10.563-2.529 15.842v0 0zM773.656 666.699c-6.586 2.061-13.121 5.006-17.59 8.838-4.732 4.053-6.957 9.658-6.957 16.822 0 5.088 1.324 9.33 3.844 12.723 2.514 3.395 5.439 6.080 9.266 8.059 3.385 1.756 7.596 3.063 11.434 3.93l0.004-50.371zM838.912 584.214c-1.615-3.678-4.227-6.928-7.852-9.756-3.623-2.826-8.639-5.137-14.477-6.928-2.473-0.758-4.514-1.348-7.809-1.783v58.988c5.49-1.443 9.982-2.936 14.453-4.477 4.422-1.51 8.641-4.1 12.367-7.773 3.725-3.676 5.658-9.377 5.658-17.105-0.004-3.771-0.734-7.49-2.342-11.166v0zM725.978 232.441c-25.77 9.221-62.725 12.426-86.297 17.645-13.586 3.002-33.361 10.627-39.955 18.438-6.592 8.023-2.598 81.996-2.598 81.996s12.188 19.244 18.777 36.084c6.592 16.842 13.783 62.949 13.783 62.949s13.584 0 18.377 23.854c5.195 26.061 13.188 36.887 12.188 56.332-0.998 18.041-10.389 19.045-11.387 19.045s9.791 27.262 11.188 84.998c1.6 68.357-50.539 135.715-148.426 135.715-97.885 0-149.824-67.156-148.428-135.516 1.197-57.533 11.186-84.998 11.186-84.998-1 0-10.387-1.004-11.385-19.045-0.998-19.445 7.191-29.869 12.188-55.93 4.793-23.857 18.377-24.057 18.377-24.057s7.191-46.311 13.783-63.146c6.594-17.041 18.779-36.086 18.779-36.086s3.996-73.971-2.598-81.992c-6.592-8.016-26.369-15.438-39.953-18.441-23.771-5.213-60.529-8.621-86.299-17.844-25.771-9.221-105.277-40.293-105.277-104.441h639.256c-0.002 64.148-79.508 95.221-105.279 104.441v0zM511.629 159.875v0.199h-274.279c3.996 6.012 9.389 10.223 16.381 15.232 13.982 10.227 32.162 19.65 54.137 27.264 13.584 4.813 33.359 8.020 50.74 10.625 11.387 1.809 22.174 3.408 31.764 5.615 6.791 1.602 41.549 10.021 57.531 29.268 8.988 10.824 11.586 25.457 11.186 64.75-0.199 20.051-1.197 38.693-1.197 39.496l-0.4 8.418-4.594 7.016c-2.996 4.613-11.588 19.047-15.982 30.672-3.596 9.42-9.188 38.488-11.984 56.332 0 0 0.799-2.006-1 7.416-1.799 9.426-16.779 8.621-18.777 16.039-1.799 7.217-3.596 13.832-8.59 36.484-4.994 22.654 5.596 22.453 7.791 32.477 1.199 6.215 0 11.426 0 11.627-0.598 2.004-8.189 26.861-9.389 75.576-0.6 26.461 9.189 51.32 27.566 69.965 21.176 21.65 51.939 33.076 88.896 33.076 37.959 0 67.922-11.426 89.096-33.076 18.375-18.643 28.166-43.502 27.566-69.965-0.998-48.514-8.588-73.371-9.389-75.576 0-0.201-1.199-3.408-0.799-10.424 0.4-10.826 13.584-11.025 8.59-33.68-4.996-22.652-6.795-29.268-8.59-36.484-1.801-7.213-16.979-6.615-18.777-16.037-1.799-9.424-0.998-7.42-0.998-7.42-2.797-17.844-8.393-46.908-11.988-56.33-4.594-11.627-13.182-26.061-15.982-30.67l-4.596-7.020-0.398-8.418c0-0.803-0.998-19.445-1.199-39.492-0.398-39.293 2.197-53.928 11.188-64.75 15.979-19.047 50.738-27.668 57.531-29.271 9.59-2.203 20.377-3.807 31.766-5.611 17.379-2.605 37.154-5.813 50.742-10.629 21.973-7.816 40.348-17.238 54.135-27.461 6.992-5.014 12.385-9.223 16.381-15.232h-274.076z" />
<glyph unicode="&#xe952;" glyph-name="people-outline" data-tags="people-outline" d="M698.4 290.4c-27 9.4-56.2 10-83.2 19.4-8.2 2.8-24.4 6.2-27.8 15.6-3.2 9.2-3.2 20-3.8 29.6-0.4 7.6-0.6 15.2-0.6 22.8 0 5 12.8 15.6 15.6 20.2 10.8 18 11.8 42.2 13.8 62.6 17.4-4.8 19.6 27.4 22.6 37.2 2.2 6.8 15.6 53.6-5.2 47.2 5 8.8 7 19.6 8.4 29.4 4 25.6 5.6 53.6-2.2 78.6-16.2 52-66 81.2-118.6 82.8-53.4 1.8-107-23.8-127-75.6-9.6-25.2-8.8-52.6-5.6-79 1.4-12 3.4-25.4 9.4-36.2-19.4 5.8-9-35.4-6.8-42.6 3.2-10.2 6-46.8 24.2-41.8 1.6-16.2 3.4-32.8 7.8-48.6 3-10.6 9.2-19.6 16.4-27.8 3.6-4 5.4-4.4 5.2-9.6-0.2-15.6 0.2-32.4-3.8-47.6s-37.4-21.6-50.8-24.4c-36-7.4-69.2-10.8-99.2-33.2-35-25.8-53.2-66-53.2-109.4h556c0 59-35.6 111-91.6 130.4-22.4 7.8 22.6-7.8 0 0zM294.2 232.8c11.2 11.8 25.4 22.2 40.8 28 21 8 44.8 7.6 66.6 13.2 18 4.6 40.4 11.8 54.4 24.8 12.8 12 14.2 30.4 15.4 47 1 14 0.8 27.8 0.8 41.8 0 9.8-11.4 15.4-17 23.2-9 12.2-9.4 30.4-11.2 45-0.8 6.4-1 14.6-6.4 19-6 4.8-10.4 7.4-13.4 15-4 10.4-5.4 21.6-8.6 32.4-2 7 5 13.6 7.8 19.4 5.2 10.6-3.8 27-5.6 38-5.6 32.8-5.4 68.6 18.2 94.6 47.4 52.4 156 35.8 171.6-37.8 4.8-23 1.8-49.8-4.6-72.2-2.8-9.6-6-16.6-0.4-26 8.4-13.6 4.8-22.4 0.8-37.6-3.2-12.6-7.2-18.2-16.8-26-8-6.4-6.8-22.4-8.2-31.6-1.6-11.2-2.6-23-9.4-32.4-2.6-3.6-16.8-14.8-16.8-18.6 0-22-1-44.4 2.8-66.2 5.2-31 31.2-38.4 57.2-49 26.4-10.2 57-6.4 82.6-19 26.4-13 51.8-36.8 59.4-66.2h-484.2c3.8 16.6 13 29.2 24.2 41.2 18.4 19.4-11.8-12.6 0 0zM288.2 316c14 7 29.2 8.6 44.6 10.2 5.6 0.6 8.2 4.4 4 9.8-8 10.2-35.6 12.2-47.2 16.8-7.2 2.8-9.2 5.4-9.8 13.4-0.2 3.6-2.2 19.6 0.6 22.2 2 2 14.6 1.2 17.4 1.6 11.4 1.4 23 3.8 33.8 8 4.6 1.8 9 4 13 6.8 4.8 3.6-3.6 12.4-5.8 17.2-6.8 15-9.8 31.4-10.8 47.8-2 32.2 3 64.6-3 96.6-9 49-46.8 73.6-95 73.6-29.8 0-59.2-10.2-75.8-36.2-18.4-28.6-17.4-64.2-16.4-96.8 0.6-18.6 1.4-37.4-1.2-56-1.2-8-3-15.8-5.8-23.4-2.2-5.8-13.4-20.2-9-23.2 16.6-11.8 44.6-15.8 64.6-14.2 0.6-9.8 2.4-22.4-1.2-31.6-5.6-14.4-47.4-18.2-60-22.4-35.2-11.8-61.2-41.2-61.2-80.2h159c2.6 0 12.6 18.6 15.4 21.6 14 15.6 31.2 29 49.8 38.4 18 9-29.2-14.8 0 0zM205.6 288h-97.8c14.2 23.6 49.8 22 73.2 30.4 21.6 7.8 35.4 21 37.6 44 0.2 2.6 0.4 58.4-1.8 58.4-17.4 0.6-35.6 0.2-53 2.8 13.8 44.6 0.6 90.6 8 135.6 5.4 32.6 26.2 50.6 59.4 50.6 31.8 0 55.4-14.8 62.2-46.8 9.6-46.4-4-93.8 10.8-139.8-11-2.8-22.6-3.2-34-3.6-5.6-0.2-11.4-0.4-17-0.6-3.6-0.2-2.4-6.4-2.6-9.4-2-21.8-10-56.2 7.4-73.8-19.2-12-40-28.6-52.4-47.8zM799.6 256h160.4c0 39-26.2 68.6-61.4 80.2-16.2 5.2-47.4 6.8-59 20.8-5.8 7-2.6 24.8-2 33.2 8.8-0.8 18.4 0.6 27.4 1.8 8.2 1.2 16.2 2.8 24 5.6 3.6 1.4 7.2 2.8 10.6 4.8 7.8 4.6 4.2 5.4 0.2 12.2-21.8 36.6-12 83-13 123.2-0.8 33.4-9.6 70-40 88.8-27.4 17-68 17.6-97.4 5.6-84.8-34-34.8-146.4-63.8-210.8-5-10.8-12.2-14.6 0.4-21 7-3.6 14.6-6 22.2-7.8 11.6-2.8 23.6-4.4 35.6-4.8 2 0 0.6-25.2 0-27.8-2.2-9.8-23.6-12.6-31.6-14.8-8.2-2.2-21.8-2.8-25.8-11.4-6-12.8 19.8-9.6 26.2-10.8 20.6-3.8 38.8-15.2 54.8-28.2 11.8-9.6 27.8-23.2 32.2-38.8zM798.8 310.2c-10.2 9.4-20.8 18.6-32.6 26 17.6 17.6 9.4 51.8 7.4 73.8-1.2 12.6-4 9.4-16.6 9.8-12 0.4-25.6-0.2-37 3.6 14.4 44.6 2.6 90.4 10 135.8 5.6 34.2 29 51 63 51 30.8 0 52-15.4 58.4-46 9.8-46.2-5.2-94 9-140-17-2.6-34.6-2-51.8-2.6-4.2-0.2-3.8-50.2-3.4-54.6 1.4-23.4 12.2-37.6 34.4-46.6 24.2-9.8 62-7.2 76.8-31.8h-89.4c-14.2-0.2-17.8 12.2-28.2 21.6-10 9.2 8-7.2 0 0z" />
<glyph unicode="&#xe953;" glyph-name="person-add-outline" data-tags="person-add-outline" d="M832 654h-50v50h-28v-50h-50v-28h50v-50h28v50h50zM726.6 232.2c-25.8 9.2-62.8 12.4-86.4 17.6-13.6 3-33.4 10.6-40 18.4-6.6 8-2.6 81.8-2.6 81.8s12.2 19.2 18.8 36c6.6 16.8 13.8 62.8 13.8 62.8s13.6 0 18.4 23.8c5.2 26 13.2 36.8 12.2 56.2-1 18-10.4 19-11.4 19s9.8 27.2 11.2 84.8c1.6 68.2-50.6 135.4-148.6 135.4s-150-67-148.6-135.2c1.2-57.4 11.2-84.8 11.2-84.8-1 0-10.4-1-11.4-19-1-19.4 7.2-29.8 12.2-55.8 4.8-23.8 18.4-24 18.4-24s7.2-46.2 13.8-63c6.6-17 18.8-36 18.8-36s4-73.8-2.6-81.8-26.4-15.4-40-18.4c-23.8-5.2-60.6-8.6-86.4-17.8s-105.4-40.2-105.4-104.2h640c0 64-79.6 95-105.4 104.2zM512 160h-274.6c4 6 9.4 10.2 16.4 15.2 14 10.2 32.2 19.6 54.2 27.2 13.6 4.8 33.4 8 50.8 10.6 11.4 1.8 22.2 3.4 31.8 5.6 6.8 1.6 41.6 10 57.6 29.2 9 10.8 11.6 25.4 11.2 64.6-0.2 20-1.2 38.6-1.2 39.4l-0.4 8.4-4.6 7c-3 4.6-11.6 19-16 30.6-3.6 9.4-9.2 38.4-12 56.2 0 0 0.8-2-1 7.4s-16.8 8.6-18.8 16c-1.8 7.2-3.6 13.8-8.6 36.4s5.6 22.4 7.8 32.4c1.2 6.2 0 11.4 0 11.6-0.6 2-8.2 26.8-9.4 75.4-0.6 26.4 9.2 51.2 27.6 69.8 21.2 21.6 52 33 89 33 38 0 68-11.4 89.2-33 18.4-18.6 28.2-43.4 27.6-69.8-1-48.4-8.6-73.2-9.4-75.4 0-0.2-1.2-3.4-0.8-10.4 0.4-10.8 13.6-11 8.6-33.6s-6.8-29.2-8.6-36.4c-1.8-7.2-17-6.6-18.8-16s-1-7.4-1-7.4c-2.8-17.8-8.4-46.8-12-56.2-4.6-11.6-13.2-26-16-30.6l-4.6-7-0.4-8.4c0-0.8-1-19.4-1.2-39.4-0.4-39.2 2.2-53.8 11.2-64.6 16-19 50.8-27.6 57.6-29.2 9.6-2.2 20.4-3.8 31.8-5.6 17.4-2.6 37.2-5.8 50.8-10.6 22-7.8 40.4-17.2 54.2-27.4 7-5 12.4-9.2 16.4-15.2h-274.4z" />
<glyph unicode="&#xe954;" glyph-name="person-outline" data-tags="person-outline" d="M726.6 232.2c-25.8 9.2-62.8 12.4-86.4 17.6-13.6 3-33.4 10.6-40 18.4-6.6 8-2.6 81.8-2.6 81.8s12.2 19.2 18.8 36 13.8 62.8 13.8 62.8 13.6 0 18.4 23.8c5.2 26 13.2 36.8 12.2 56.2-1 18-10.4 19-11.4 19 0 0 9.8 27.2 11.2 84.8 1.6 68.2-50.6 135.4-148.6 135.4s-150-67-148.6-135.2c1.2-57.4 11.2-84.8 11.2-84.8-1 0-10.4-1-11.4-19-1-19.4 7.2-29.8 12.2-55.8 4.8-23.8 18.4-24 18.4-24s7.2-46.2 13.8-63c6.6-17 18.8-36 18.8-36s4-73.8-2.6-81.8-26.4-15.4-40-18.4c-23.8-5.2-60.6-8.6-86.4-17.8s-105.4-40.2-105.4-104.2h640c0 64-79.6 95-105.4 104.2zM512 160h-274.6c4 6 9.4 10.2 16.4 15.2 14 10.2 32.2 19.6 54.2 27.2 13.6 4.8 33.4 8 50.8 10.6 11.4 1.8 22.2 3.4 31.8 5.6 6.8 1.6 41.6 10 57.6 29.2 9 10.8 11.6 25.4 11.2 64.6-0.2 20-1.2 38.6-1.2 39.4l-0.4 8.4-4.6 7c-3 4.6-11.6 19-16 30.6-3.6 9.4-9.2 38.4-12 56.2 0 0 0.8-2-1 7.4s-16.8 8.6-18.8 16c-1.8 7.2-3.6 13.8-8.6 36.4s5.6 22.4 7.8 32.4c1.2 6.2 0 11.4 0 11.6-0.6 2-8.2 26.8-9.4 75.4-0.6 26.4 9.2 51.2 27.6 69.8 21.2 21.6 52 33 89 33 38 0 68-11.4 89.2-33 18.4-18.6 28.2-43.4 27.6-69.8-1-48.4-8.6-73.2-9.4-75.4 0-0.2-1.2-3.4-0.8-10.4 0.4-10.8 13.6-11 8.6-33.6s-6.8-29.2-8.6-36.4c-1.8-7.2-17-6.6-18.8-16s-1-7.4-1-7.4c-2.8-17.8-8.4-46.8-12-56.2-4.6-11.6-13.2-26-16-30.6l-4.6-7-0.4-8.4c0-0.8-1-19.4-1.2-39.4-0.4-39.2 2.2-53.8 11.2-64.6 16-19 50.8-27.6 57.6-29.2 9.6-2.2 20.4-3.8 31.8-5.6 17.4-2.6 37.2-5.8 50.8-10.6 22-7.8 40.4-17.2 54.2-27.4 7-5 12.4-9.2 16.4-15.2l-274.4 0.2z" />
<glyph unicode="&#xe955;" glyph-name="phone-landscape" data-tags="phone-landscape" d="M64 607.4v-317c0-36.6 29.2-66.2 65.8-66.2h762c36.8 0 68.2 29.6 68.2 66.2v317c0 36.6-31.4 64.6-68.2 64.6h-762c-36.6 0-65.8-28-65.8-64.6zM110 418v60c0 4.4 3.6 8 8 8s8-3.6 8-8v-60c0-4.4-3.6-8-8-8s-8 3.6-8 8zM938 449c0-19.2-15.6-34.8-34.8-34.8s-34.8 15.6-34.8 34.8c0 19.2 15.6 34.8 34.8 34.8s34.8-15.6 34.8-34.8zM848 640v-384h-682v384h682zM883.2 449c0-11 9-20 19.8-20 11 0 20 9 20 20s-9 20-20 20c-10.8-0.2-19.8-9-19.8-20z" />
<glyph unicode="&#xe956;" glyph-name="phone-portrait" data-tags="phone-portrait" d="M671.4 896h-317.2c-36.6 0-66.2-29.2-66.2-65.8v-762c0-36.8 29.6-68.2 66.2-68.2h317c36.6 0 64.6 31.4 64.6 68.2v762c0.2 36.6-27.8 65.8-64.4 65.8zM482 850h60c4.4 0 8-3.6 8-8s-3.6-8-8-8h-60c-4.4 0-8 3.6-8 8s3.6 8 8 8zM513 22c-19.2 0-34.8 15.6-34.8 34.8s15.6 34.8 34.8 34.8c19.2 0 34.8-15.6 34.8-34.8s-15.6-34.8-34.8-34.8zM704 112h-384v682h384v-682zM513 76.8c-11 0-20-9-20-19.8 0-11 9-20 20-20s20 9 20 20c-0.2 10.8-9 19.8-20 19.8z" />
<glyph unicode="&#xe957;" glyph-name="photos-outline" data-tags="photos-outline" d="M192 704v-640h768v640h-768zM928 96h-704v576h704v-576zM64 832v-640h96v32h-64v576h704v-64h32v96z" />
<glyph unicode="&#xe958;" glyph-name="pie-outline" data-tags="pie-outline" d="M576 798.348c90.586-7.41 174.708-46.048 239.62-110.988 72.466-72.5 112.38-168.848 112.38-271.446 0-51.848-10.16-102.084-30.2-149.406-19.36-45.72-47.080-86.768-82.386-122.048-35.308-35.28-76.408-62.96-122.16-82.3-47.346-20.020-97.646-30.164-149.504-30.164-82.386 0-160.94 25.694-227.168 74.292-32.101 23.717-59.585 51.24-82.518 82.325l-0.746 1.059c-15.685 21.193-29.757 45.274-41.112 70.829l-0.968 2.439 384.762 96.068v438.992zM544 832v-448l-395.51-98.752c54.816-165.688 211.19-285.248 395.26-285.248 229.75 0 416.25 186.25 416.25 416s-186 416-416 416zM480 863.64v-429.888l-360.684-91.46c-18.236 47.136-22.396 113.948-22.316 138.992v0.142c0 94.62 32.93 187.492 90.346 254.796 33.47 39.24 75.004 69.964 123.44 91.328 49.414 21.79 106.254 33.902 169.214 36.090zM512 896h-11c-320 0-437-232.5-437-414.574 0 0 0.5-113.332 37.82-176.58l410.18 104.006v487.148z" />
<glyph unicode="&#xe959;" glyph-name="print-outline" data-tags="print-outline" d="M865 736h-65v96h-576v-96h-63c-35.2 0-65-27.6-65-62.6v-316.8c0-35 29.8-64.6 65-64.6h95v-228h512v228h97c35.2 0 63 29.6 63 64.6v316.8c0 35-27.8 62.6-63 62.6zM256 800h512v-64h-512v64zM736 96h-448v384h448v-384zM896 356.6c0-17.4-13.4-32.6-31-32.6h-97v188h-512v-188h-95c-17.6 0-33 15.2-33 32.6v316.8c0 17.4 15.4 30.6 33 30.6h704c17.6 0 31-13.2 31-30.6v-316.8z" />
<glyph unicode="&#xe95a;" glyph-name="pulse" data-tags="pulse" d="M896 414c-42.54 0-78.592-28-91.192-66h-77.714l-56.72 170.834c-4.358 12.838-16.303 21.912-30.368 21.912v0c-0.224 0-0.448 0-0.67-0.008-14.263-0.303-26.206-9.894-30.043-22.954l-0.057-0.226-88.966-310.52-104.706 628.214c-2.494 14.962-14.9 28.748-31.564 28.748s-27.386-11.552-31.050-26.27l-121.96-489.73h-198.99v-64h224c14.696 0 27.5 10.008 31.050 24.27l90.736 364.354 102.648-615.88c2.46-14.754 14.794-23.84 29.728-24.688 0.62-0.036 1.23-0.056 1.84-0.056 14.194 0 26.812 7.4 30.76 21.188l99.49 347.234 31.38-94.5c4.355-12.842 16.301-21.92 30.368-21.922h102.216c13.73-36 48.74-62 89.784-62 53.020 0 96 44.984 96 98 0 53.020-42.98 94-96 94z" />
<glyph unicode="&#xe95b;" glyph-name="pulse-outline" data-tags="pulse-outline" d="M896 384c-30.536 0-56.060-21.39-62.446-50h-118.008l-60.36 181.792c-2.182 6.421-8.158 10.959-15.194 10.959-0.115 0-0.229-0.001-0.343-0.004h0.017c-7.131-0.151-13.103-4.947-15.020-11.477l-0.028-0.113-108.486-378.64-116.35 698.11c-1.272 7.422-7.511 13.047-15.12 13.359l-0.032 0.001c-0.19 0.008-0.412 0.013-0.636 0.013-7.463 0-13.732-5.112-15.496-12.026l-0.024-0.111-124.978-501.864h-179.496v-32h192c0 0 0 0 0.001 0 7.463 0 13.733 5.11 15.501 12.021l0.024 0.111 109.37 439.18 115.32-691.944c1.311-7.631 7.878-13.365 15.785-13.365 7.266 0 13.401 4.842 15.354 11.476l0.029 0.113 113.744 396.992 47.69-143.626c2.179-6.419 8.15-10.955 15.182-10.958h130.584c7.78-26.58 32.32-46 61.416-46 35.348 0 64 28.654 64 64s-28.652 64-64 64z" />
<glyph unicode="&#xe95c;" glyph-name="refresh" data-tags="refresh" d="M512 191.8c-141.4 0-256 114.6-256 256.2s114.6 256.2 256 256.2v87.8l192-128-192-111.4v111.6c-119.2 0-216.2-97-216.2-216.2s97-216.2 216.2-216.2 216.2 96.2 216.2 216.2h39.8c0-142-114.6-256.2-256-256.2z" />
<glyph unicode="&#xe95d;" glyph-name="refresh-circle-outline" data-tags="refresh-circle-outline" d="M728.2 448c0-120-97-216.4-216.2-216.4s-216.2 97-216.2 216.4c0 119.2 97 216.2 216.2 216.2v-111.6l192 111.4-192 128v-88c-141.4 0-256-114.8-256-256.2 0-141.6 114.6-256.2 256-256.2s256 114.2 256 256.2h-39.8zM512 864c-229.8 0-416-186.2-416-416s186.2-416 416-416 416 186.2 416 416-186.2 416-416 416zM512 66.6c-210.2 0-381.4 171-381.4 381.4 0 210.2 171 381.4 381.4 381.4 210.2 0 381.4-171 381.4-381.4 0-210.2-171.2-381.4-381.4-381.4z" />
<glyph unicode="&#xe95e;" glyph-name="refresh-form" data-tags="refresh-form" d="M712.614 448c0-111.328-90.028-200.814-200.614-200.814-110.662 0-200.614 90.028-200.614 200.814 0 110.662 89.952 200.614 200.614 200.614v-103.522l178.172 103.322-178.172 118.772v-81.642c-131.206 0-237.542-106.526-237.542-237.778 0-131.4 106.338-237.546 237.542-237.546s237.542 105.836 237.542 237.546h-36.93v0.234zM512 834c-213.218 0-386-172.782-386-386s172.782-386 386-386c213.218 0 386 172.782 386 386s-172.782 386-386 386zM512 94.116c-195.1 0-353.89 158.66-353.89 353.884 0 195.1 158.666 353.89 353.89 353.89 195.024 0 353.884-158.666 353.884-353.89 0-195.024-158.86-353.884-353.884-353.884z" />
<glyph unicode="&#xe95f;" glyph-name="remove-circle-outline" data-tags="remove-circle-outline" d="M512 864c-229.8 0-416-186.2-416-416s186.2-416 416-416 416 186.2 416 416-186.2 416-416 416zM512 66.6c-210.2 0-381.4 171-381.4 381.4 0 210.2 171 381.4 381.4 381.4 210.2 0 381.4-171 381.4-381.4 0-210.2-171.2-381.4-381.4-381.4zM256 464h512v-34h-512z" />
<glyph unicode="&#xe960;" glyph-name="reorder" data-tags="reorder" d="M160 352h704v-32h-704zM160 464h704v-32h-704zM160 576h704v-32h-704z" />
<glyph unicode="&#xe961;" glyph-name="repeat" data-tags="repeat" d="M664.6 632.6l-67.2 66.8c-3.2 3.2-7.2 4.6-11.4 4.6s-8.2-1.6-11.4-4.6c-6.2-6.2-6.2-16.4 0-22.6l53.4-52.8h-356c-79.2 0-144-64.8-144-144v-48h32v48c0 29.8 11.6 57.8 33 79 21.2 21.2 49.4 33 79 33h352l-53.2-52.8c-6.2-6.2-6.2-16.4 0-22.6s16.4-6.2 22.6 0l71.2 70.8c12.6 12.4 12.6 32.6 0 45.2zM864.2 464v-48c0-29.8-11.6-57.8-33-79-21.4-21.4-49.4-33-79.2-33h-352l53.2 52.8c6.2 6.2 6.2 16.4 0 22.6s-16.4 6.2-22.6 0l-71.2-70.8c-12.6-12.4-12.6-32.6 0-45.2l67.2-66.8c3.2-3.2 7.2-4.6 11.4-4.6s8.2 1.6 11.4 4.6c6.2 6.2 6.2 16.4 0 22.6l-53.2 52.8h356c79.2 0 144 64.8 144 144v48h-32z" />
<glyph unicode="&#xe962;" glyph-name="reports" data-tags="reports" d="M320 721h288v-26h-288v26zM272 708c0-14.359-10.745-26-24-26s-24 11.641-24 26c0 14.359 10.745 26 24 26s24-11.641 24-26zM272 552c0-14.359-10.745-26-24-26s-24 11.641-24 26c0 14.359 10.745 26 24 26s24-11.641 24-26zM272 396c0-14.359-10.745-26-24-26s-24 11.641-24 26c0 14.359 10.745 26 24 26s24-11.641 24-26zM320 266h-168v572h528v-182h24v208h-576v-624h192zM872 630v-572h-528v572h528zM896 656h-576v-624h576v624zM512 513h288v-26h-288v26zM512 357h288v-26h-288v26zM512 201h288v-26h-288v26zM464 500c0-14.359-10.745-26-24-26s-24 11.641-24 26c0 14.359 10.745 26 24 26s24-11.641 24-26zM464 344c0-14.359-10.745-26-24-26s-24 11.641-24 26c0 14.359 10.745 26 24 26s24-11.641 24-26zM464 188c0-14.359-10.745-26-24-26s-24 11.641-24 26c0 14.359 10.745 26 24 26s24-11.641 24-26z" />
<glyph unicode="&#xe963;" d="M320 721h288v-26h-288v26z" />
<glyph unicode="&#xe964;" d="M272 708c0-14.359-10.745-26-24-26s-24 11.641-24 26c0 14.359 10.745 26 24 26s24-11.641 24-26z" />
<glyph unicode="&#xe965;" d="M272 552c0-14.359-10.745-26-24-26s-24 11.641-24 26c0 14.359 10.745 26 24 26s24-11.641 24-26z" />
<glyph unicode="&#xe966;" d="M272 396c0-14.359-10.745-26-24-26s-24 11.641-24 26c0 14.359 10.745 26 24 26s24-11.641 24-26z" />
<glyph unicode="&#xe967;" d="M680 838v-182h24v208h-576v-624h192v26h-168v572z" />
<glyph unicode="&#xe968;" d="M872 630v-572h-528v572h528zM896 656h-576v-624h576v624z" />
<glyph unicode="&#xe969;" d="M464 500c0-14.359-10.745-26-24-26s-24 11.641-24 26c0 14.359 10.745 26 24 26s24-11.641 24-26z" />
<glyph unicode="&#xe96a;" d="M464 344c0-14.359-10.745-26-24-26s-24 11.641-24 26c0 14.359 10.745 26 24 26s24-11.641 24-26z" />
<glyph unicode="&#xe96b;" d="M464 188c0-14.359-10.745-26-24-26s-24 11.641-24 26c0 14.359 10.745 26 24 26s24-11.641 24-26z" />
<glyph unicode="&#xe96c;" d="M556.028 323.512c5.844 2.864 21.226 7.906 50.542 7.906 21.228 0 41.096-9.512 62.228-14.898 21.424-5.382 43.626-11 67.682-11 14.314 0 26.97 2.29 37.686 3.778 5.844 0.804 11.006 1.612 15.582 2.526v198.71c-4.576-1.032-9.836-1.946-15.678-2.866-10.712-1.606-24.248-4.010-38.662-4.010-22.496 0-42.848 6.53-63.492 11.686-20.938 5.274-42.558 10.658-65.446 10.658-45.672 0-61.154-11.574-62.714-12.834l-3.308-2.75v-351.124h15.582v164.218h-0.002z" />
<glyph unicode="&#xe96d;" glyph-name="reports-flagged" data-tags="reports-flagged flagged reports" d="M320 721h288v-26h-288v26zM272 708c0-14.359-10.745-26-24-26s-24 11.641-24 26c0 14.359 10.745 26 24 26s24-11.641 24-26zM272 552c0-14.359-10.745-26-24-26s-24 11.641-24 26c0 14.359 10.745 26 24 26s24-11.641 24-26zM272 396c0-14.359-10.745-26-24-26s-24 11.641-24 26c0 14.359 10.745 26 24 26s24-11.641 24-26zM320 266h-168v572h528v-182h24v208h-576v-624h192zM872 630v-572h-528v572h528zM896 656h-576v-624h576v624zM464 500c0-14.359-10.745-26-24-26s-24 11.641-24 26c0 14.359 10.745 26 24 26s24-11.641 24-26zM464 344c0-14.359-10.745-26-24-26s-24 11.641-24 26c0 14.359 10.745 26 24 26s24-11.641 24-26zM464 188c0-14.359-10.745-26-24-26s-24 11.641-24 26c0 14.359 10.745 26 24 26s24-11.641 24-26zM569.164 324.866c5.844 2.864 21.226 7.906 50.542 7.906 21.228 0 41.096-9.512 62.228-14.898 21.424-5.382 43.626-11 67.682-11 14.314 0 26.97 2.29 37.686 3.778 5.844 0.804 11.006 1.612 15.582 2.526v198.71c-4.576-1.032-9.836-1.946-15.678-2.866-10.712-1.606-24.248-4.010-38.662-4.010-22.496 0-42.848 6.53-63.492 11.686-20.938 5.274-42.558 10.658-65.446 10.658-45.672 0-61.154-11.574-62.714-12.834l-3.308-2.75v-351.124h15.582v164.218h-0.002z" />
<glyph unicode="&#xe96e;" glyph-name="document-add" data-tags="document-add" d="M544 832h-288v-768h512v545l-224 223zM544 786.8l179.6-178.8h-179.6v178.8zM288 96v704h224v-224h224v-480h-448zM757.747 872.484h42.201v-215.476h-42.201v215.476zM886.585 785.846v-42.201h-215.476v42.201h215.476z" />
<glyph unicode="&#xe978;" glyph-name="reset" data-tags="reset" d="M286.91 468.084h-40.088c0-142.958 115.426-257.816 257.846-257.816 142.418 0 257.844 115.17 257.844 257.816 0 142.5-115.426 258.114-257.844 258.114v88.636l-193.382-128.922 193.382-112.152v112.352c120.136 0 217.756-97.622 217.756-217.758 0-120.262-97.622-217.958-217.756-217.958-120.060 0-217.758 97.092-217.758 217.958v-0.27zM504.666 887.352c-231.458 0-419-187.542-419-419s187.542-419 419-419 419 187.542 419 419c0 231.458-187.54 419-419 419zM504.666 84.238c-211.792 0-384.152 172.196-384.152 384.114 0 211.792 172.234 384.152 384.152 384.152 211.716 0 384.112-172.234 384.112-384.152 0.002-211.718-172.396-384.114-384.112-384.114z" />
<glyph unicode="&#xe979;" d="M504.666 828.352c-198.838 0-360-161.22-360-360 0-198.796 161.162-360 360-360 198.796 0 360 161.204 360 360 0 198.778-161.204 360-360 360zM689.882 432.040h-370.394v72.666h370.396v-72.666z" />
<glyph unicode="&#xe97a;" d="M286.91 468.084h-40.088c0-142.958 115.426-257.816 257.846-257.816 142.418 0 257.844 115.17 257.844 257.816 0 142.5-115.426 258.114-257.844 258.114v88.636l-193.382-128.922 193.382-112.152v112.352c120.136 0 217.756-97.622 217.756-217.758 0-120.262-97.622-217.958-217.756-217.958-120.060 0-217.758 97.092-217.758 217.958v-0.27z" />
<glyph unicode="&#xe97b;" d="M504.666 887.352c-231.458 0-419-187.542-419-419s187.542-419 419-419 419 187.542 419 419c0 231.458-187.54 419-419 419zM504.666 84.238c-211.792 0-384.152 172.196-384.152 384.114 0 211.792 172.234 384.152 384.152 384.152 211.716 0 384.112-172.234 384.112-384.152 0.002-211.718-172.396-384.114-384.112-384.114z" />
<glyph unicode="&#xe97c;" glyph-name="resize" data-tags="resize" d="M880 832h-224c-8.8 0-16-7.2-16-16s7.2-16 16-16h184l-680-679.8v183.8c0 8.8-7.2 16-16 16s-16-7.2-16-16v-224c0-8.8 7.2-16 16-16h224c8.8 0 16 7.2 16 16s-8 16-16.8 16h-183.2l680 680v-184c0-8.8 7.2-16 16-16s16 7.2 16 16v224c0 8.8-7.2 16-16 16z" />
<glyph unicode="&#xe97d;" glyph-name="schedule" data-tags="schedule" d="M768 874.666v85.334h-42.666v-85.334h-426.668v85.334h-42.666v-85.334h-256v-938.666h1024v938.666h-256zM981.334-21.334h-938.668v640h938.666v-640zM981.334 661.334h-938.668v170.666h213.334v-85.334h42.666v85.334h426.666v-85.334h42.668v85.334h213.334v-170.666zM641.47 205.198c-18.756 6.53-39.038 6.948-57.792 13.474-5.696 1.946-16.948 4.306-19.308 10.836-2.222 6.388-2.222 13.892-2.64 20.558-0.278 5.28-0.414 10.556-0.414 15.838 0 3.472 8.89 10.834 10.834 14.030 7.502 12.502 8.198 29.31 9.586 43.48 12.086-3.334 13.614 19.032 15.698 25.84 1.528 4.722 10.836 37.228-3.612 32.782 3.472 6.114 4.862 13.616 5.832 20.422 2.78 17.782 3.892 37.23-1.526 54.594-11.252 36.118-45.844 56.4-82.376 57.51-37.092 1.25-74.32-16.53-88.212-52.51-6.668-17.502-6.114-36.536-3.89-54.872 0.972-8.334 2.362-17.64 6.53-25.144-13.474 4.032-6.25-24.586-4.722-29.586 2.222-7.086 4.168-32.508 16.808-29.036 1.112-11.252 2.362-22.782 5.418-33.756 2.084-7.364 6.39-13.616 11.39-19.31 2.5-2.778 3.75-3.054 3.612-6.666-0.14-10.836 0.138-22.506-2.64-33.062s-25.978-15.004-35.286-16.95c-25.004-5.138-48.064-7.5-68.902-23.058-24.31-17.92-36.952-45.842-36.952-75.988h386.186c0.002 40.982-24.726 77.098-63.622 90.574-15.56 5.416 15.698-5.418 0 0v0zM360.722 165.192c7.778 8.196 17.642 15.418 28.338 19.446 14.586 5.558 31.118 5.282 46.258 9.17 12.502 3.196 28.062 8.198 37.786 17.226 8.89 8.334 9.862 21.114 10.696 32.644 0.696 9.724 0.556 19.308 0.556 29.032 0 6.808-7.918 10.698-11.808 16.116-6.252 8.474-6.53 21.116-7.78 31.256-0.554 4.446-0.694 10.142-4.446 13.198-4.168 3.332-7.222 5.14-9.306 10.418-2.78 7.224-3.752 15.004-5.974 22.504-1.388 4.864 3.472 9.448 5.418 13.476 3.612 7.364-2.64 18.754-3.89 26.394-3.888 22.782-3.75 47.648 12.642 65.706 32.924 36.396 108.354 24.866 119.19-26.254 3.334-15.974 1.25-34.592-3.196-50.148-1.946-6.67-4.168-11.53-0.28-18.060 5.834-9.446 3.334-15.558 0.556-26.116-2.222-8.752-5.002-12.64-11.668-18.060-5.556-4.444-4.722-15.556-5.696-21.948-1.112-7.78-1.806-15.976-6.532-22.504-1.804-2.502-11.668-10.28-11.668-12.918 0-15.282-0.696-30.842 1.946-45.982 3.612-21.532 21.67-26.672 39.73-34.034 18.336-7.086 39.59-4.446 57.374-13.198 18.334-9.030 35.978-25.56 41.256-45.982h-336.312c2.638 11.528 9.030 20.282 16.81 28.618 12.778 13.472-8.196-8.754 0 0zM356.554 222.978c9.724 4.862 20.282 5.972 30.978 7.084 3.89 0.418 5.696 3.056 2.778 6.808-5.556 7.084-24.726 8.472-32.784 11.668-5 1.944-6.388 3.75-6.806 9.306-0.138 2.502-1.528 13.616 0.418 15.42 1.388 1.388 10.14 0.834 12.084 1.112 7.918 0.972 15.974 2.64 23.476 5.556 3.196 1.25 6.25 2.78 9.030 4.724 3.334 2.5-2.5 8.61-4.028 11.946-4.722 10.418-6.806 21.81-7.5 33.202-1.39 22.366 2.084 44.872-2.084 67.098-6.25 34.034-32.506 51.12-65.986 51.12-20.698 0-41.12-7.084-52.648-25.142-12.78-19.868-12.086-44.594-11.392-67.236 0.416-12.92 0.972-25.978-0.834-38.896-0.832-5.556-2.084-10.974-4.028-16.252-1.528-4.030-9.308-14.032-6.252-16.116 11.53-8.196 30.978-10.974 44.87-9.864 0.416-6.806 1.666-15.558-0.834-21.95-3.89-10-32.922-12.64-41.674-15.558-24.45-8.196-42.508-28.616-42.508-55.706h110.438c1.806 0 8.752 12.92 10.698 15.004 9.722 10.836 21.668 20.144 34.588 26.672 12.502 6.252-20.282-10.278 0 0v0zM299.18 203.53h-67.93c9.864 16.392 34.59 15.282 50.844 21.116 15.002 5.418 24.588 14.586 26.116 30.562 0.138 1.804 0.278 40.562-1.25 40.562-12.086 0.418-24.726 0.138-36.812 1.946 9.584 30.978 0.416 62.93 5.556 94.184 3.752 22.644 18.198 35.146 41.258 35.146 22.088 0 38.478-10.28 43.204-32.506 6.666-32.228-2.78-65.152 7.5-97.102-7.64-1.946-15.698-2.224-23.616-2.502-3.89-0.136-7.918-0.278-11.808-0.416-2.5-0.138-1.666-4.446-1.806-6.53-1.39-15.14-6.946-39.034 5.14-51.26-13.334-8.334-27.782-19.864-36.396-33.2v0zM711.762 181.302h111.41c0 27.090-18.2 47.648-42.648 55.706-11.252 3.614-32.924 4.724-40.98 14.45-4.028 4.862-1.806 17.226-1.388 23.058 6.114-0.554 12.78 0.418 19.032 1.252 5.696 0.832 11.252 1.946 16.67 3.888 2.5 0.972 5 1.946 7.364 3.334 5.418 3.194 2.916 3.75 0.138 8.472-15.142 25.424-8.334 57.65-9.030 85.572-0.556 23.2-6.67 48.622-27.784 61.68-19.032 11.806-47.23 12.224-67.65 3.89-58.902-23.618-24.172-101.688-44.316-146.418-3.472-7.502-8.472-10.14 0.278-14.586 4.864-2.5 10.14-4.168 15.422-5.418 8.056-1.946 16.39-3.056 24.726-3.334 1.39 0 0.416-17.504 0-19.308-1.53-6.808-16.392-8.752-21.95-10.282-5.696-1.528-15.142-1.944-17.92-7.918-4.168-8.89 13.752-6.668 18.198-7.502 14.308-2.64 26.952-10.556 38.062-19.586 8.194-6.668 19.31-16.114 22.366-26.95v0zM711.208 218.95c-7.086 6.53-14.45 12.922-22.646 18.058 12.226 12.226 6.53 35.98 5.14 51.26-0.832 8.752-2.778 6.532-11.53 6.808-8.334 0.278-17.782-0.14-25.7 2.5 10.002 30.978 1.804 62.79 6.946 94.322 3.89 23.756 20.142 35.426 43.758 35.426 21.394 0 36.12-10.7 40.564-31.952 6.806-32.090-3.614-65.292 6.252-97.242-11.808-1.806-24.034-1.388-35.98-1.806-2.916-0.136-2.638-34.868-2.362-37.922 0.97-16.254 8.474-26.118 23.892-32.368 16.81-6.806 43.064-5.002 53.344-22.088h-62.096c-9.86-0.138-12.362 8.476-19.582 15.004-6.948 6.39 5.554-5 0 0v0z" />
<glyph unicode="&#xe97e;" glyph-name="search-outline" data-tags="search-outline" d="M896.6 110.6l-226.6 226.8c41.6 52 66.6 118.2 66.6 190.2 0 168.2-136.2 304.4-304 304.4-168 0-304-136.4-304-304.4s136.2-304.4 304-304.4c72.4 0 138.8 25.4 191 67.6l226.4-226.8 46.6 46.6zM240.2 334.8c-51.4 51.4-79.6 119.8-79.6 192.6s28.4 141.2 79.6 192.6 119.8 80 192.4 80c72.6 0 141-28.4 192.4-79.8s79.6-119.8 79.6-192.6-28.4-141.2-79.6-192.6c-51.4-51.4-119.8-79.8-192.4-79.8-72.6-0.2-141 28.2-192.4 79.6z" />
<glyph unicode="&#xe97f;" glyph-name="settings-outline" data-tags="settings-outline" d="M378.4 794c13.4-17 29.8-31.6 48.2-42.8 26.6-16.4 56-25 85.4-25s58.8 8.6 85.4 25c18.4 11.2 34.6 25.8 48.2 42.8 9.4-3.4 18.6-7.2 27.6-11.4-6.4-49.6 8.6-93 44.6-128.8 35.8-35.8 74.8-53.8 116-53.8 4.2 0 8.4 0.2 12.6 0.6 4.2-9 8-18.4 11.6-27.8-43.8-32.8-67.8-76.4-67.8-124.6 0-48.4 23.8-91.8 67.6-124.6-3.4-9.4-7.4-18.8-11.6-27.8-4.2 0.4-8.4 0.6-12.4 0.6-41.4 0-80.4-18.2-116.2-53.8-35.8-36-50.8-79.4-44.6-128.8-9-4.2-18.2-8-27.6-11.4-13.4 17-29.8 31.6-48.2 42.8-26.6 16.4-56 25-85.4 25s-58.8-8.6-85.4-25c-18.4-11.2-34.6-25.8-48.2-42.8-9.4 3.4-18.6 7.2-27.6 11.4 6.4 49.8-8.6 93-44.6 128.8-30.6 30.6-66.6 46-107 46-7 0-14.2-0.4-21.6-1.4-4.2 9-8 18.2-11.4 27.6 17 13.4 31.6 29.8 43 48.2 16.4 26.6 25.2 56.2 25.2 85.4 0 48.4-24 91.8-68 124.8 3.4 9.4 7.4 18.8 11.6 27.8 4.2-0.4 8.4-0.6 12.4-0.6 41.4 0 80.4 18.2 116.2 53.8 35.8 36 50.8 79.4 44.6 128.8 8.8 3.8 18 7.6 27.4 11zM512 224c59.8 0 116 23.2 158.4 65.6s65.6 98.6 65.6 158.4-23.2 116-65.6 158.4-98.6 65.6-158.4 65.6-116-23.2-158.4-65.6-65.6-98.6-65.6-158.4c0-123.6 100.4-224 224-224zM632.8 832c-26-44.4-72.8-73.8-120.8-73.8-47.8 0-94.8 29.4-120.8 73.8-26.8-8-52.4-18.6-76.4-31.6 13-49.8 2.6-90-31.2-124-26.6-26.6-57.4-44.4-93.4-44.4-9.8 0-19.8 1.2-30.4 4-13.2-24-23.8-49.6-31.8-76.4 44.4-26 74-63.8 74-111.6s-29.6-94.8-74-120.8c8-26.8 18.6-52.4 31.6-76.4 13.8 3.6 27 5.4 39.4 5.4 32.2 0 60-12.2 84.4-36.6 34-33.8 44.2-74.2 31.2-124 24.2-13 49.6-23.6 76.4-31.6 26 44.4 73 73.8 120.8 73.8s94.8-29.4 120.8-73.8c26.8 8 52.4 18.6 76.4 31.6-13 49.8-2.6 90 31.2 124 26.6 26.6 57.4 44.4 93.6 44.4 9.8 0 19.8-1.2 30.4-4 13 24.2 23.6 49.8 31.6 76.4-44.2 26-73.6 63.8-73.6 111.6s29.6 85.6 73.8 111.6c-8 26.6-18.6 52.4-31.6 76.4-10.6-2.8-20.8-4-30.6-4-36 0-66.6 17.8-93.4 44.4-33.8 33.8-44.2 74.2-31.2 124-24 13-49.6 23.6-76.4 31.6zM512 256c-105.8 0-192 86-192 192s86 192 192 192 192-86 192-192-86-192-192-192z" />
<glyph unicode="&#xe980;" glyph-name="share-outline" data-tags="share-outline" d="M576 672v-32h224v-544h-576v544h224v32h-256v-608h640v608zM386.2 723.8l-23.2 23.2 149 149 149-149-23.2-23.2-109.4 109.4v-486h-32.8v486z" />
<glyph unicode="&#xe981;" glyph-name="square-outline" data-tags="square-outline" d="M432 246c0.8 0 0.8 0.2 0 0.4-0.8-0.2-1-0.4 0-0.4zM864 800v-704h-704v704h704zM896 832h-768v-768h768v768z" />
<glyph unicode="&#xe982;" glyph-name="stats-outline" data-tags="stats-outline" d="M352 64h128v768h-128v-768zM384 800h64v-704h-64v704zM160 64h128v320h-128v-320zM192 352h64v-256h-64v256zM544 64h128v448h-128v-448zM576 480h64v-384h-64v384zM736 704v-640h128v640h-128zM832 96h-64v576h64v-576z" />
<glyph unicode="&#xe983;" glyph-name="swap" data-tags="swap" d="M779 774l-22.6-23.2 141.6-142.8h-514v-32h514l-141.6-141.8 22.6-22.4 181 181.2zM245 486.2l22.6-23.2-141.6-143h514v-32h-514l141.6-141.8-22.6-22.2-181 181z" />
<glyph unicode="&#xe984;" glyph-name="switch-outline" data-tags="switch-outline" d="M288 320c53 0 96-43 96-96s-43-96-96-96-96 43-96 96 43 96 96 96zM288 352c-70.6 0-128-57.4-128-128s57.4-128 128-128 128 57.4 128 128-57.4 128-128 128zM734.4 384c88.8 0 161.2-72.2 161.2-161s-72-159-160.8-159h-446c-88.8 0-161 70.2-161 159s72.2 161 161 161h445.2zM735 416h-446c-106.6 0-193-86.4-193-193s86.4-191 193-191h446c106.6 0 193 84.4 193 191s-86.4 193-193 193zM736 768c53 0 96-43 96-96s-43-96-96-96-96 43-96 96 43 96 96 96zM736 800c-70.6 0-128-57.4-128-128s57.4-128 128-128 128 57.4 128 128-57.4 128-128 128zM290 832h445c88.8 0 161-72.2 161-161s-72.2-159-161-159h-446c-88.8 0-160.8 70.2-160.8 159s72.6 161 161.4 161zM289 864c-106.6 0-193-86.4-193-193s86.4-191 193-191h446c106.6 0 193 84.4 193 191s-86.4 193-193 193h-446z" />
<glyph unicode="&#xe985;" glyph-name="sync" data-tags="sync" d="M986.8 448l-63.6-63.6c19.4 126-19.6 260.4-117 357.8-162.4 162.4-426 162.6-588.4 0-32.6-32.6-58.6-69-78-108l31-15.6c17.8 35.8 41.6 69.4 71.4 99.2 148.6 148.6 390.6 148.6 539.4-0.2 91.2-91.2 126.4-217.2 105.8-336l-68.2 66.4-21.6-21.6 106.4-106.4 105.4 105.4-22.6 22.6zM781.6 178.4c-148.6-148.6-390.6-148.8-539.4 0-91 91.2-126.2 217.8-105.6 335.8l66.2-66.2 22.6 22.6-105.4 105.4-105.4-105.4 22.6-22.6 63.6 63.6c-19.6-126.8 19.4-260.4 116.8-357.8 162.4-162.4 426-162.4 588.4 0 32.6 32.6 58.6 69.2 78 108l-31 15.6c-17.8-35.8-41.6-69.2-71.4-99z" />
<glyph unicode="&#xe986;" glyph-name="tablet-landscape" data-tags="tablet-landscape" d="M64 740v-584c0-15.6 12.2-28 28-28h840c15.8 0 28 12.4 28 28v584c0 15.6-12.2 28-28 28h-840c-15.8 0-28-12.6-28-28zM97.4 447.2c0 7.8 6.2 14 14 14s14-6.2 14-14-6.2-14-14-14c-7.6 0-14 6.4-14 14zM940 448c0-15.4-13-28-28.2-28-15 0-28 12.4-28 28 0 15.4 12.8 28.2 28 28.2 15.2-0.2 28.2-12.8 28.2-28.2zM864 736v-576h-704v576h704z" />
<glyph unicode="&#xe987;" glyph-name="tablet-portrait" data-tags="tablet-portrait" d="M804 896h-584c-15.6 0-28-12.2-28-28v-840c0-15.8 12.4-28 28-28h584c15.6 0 28 12.2 28 28v840c0 15.8-12.6 28-28 28zM511.2 862.6c7.8 0 14-6.2 14-14s-6.2-14-14-14-14 6.2-14 14c0 7.6 6.4 14 14 14zM512 20c-15.4 0-28 13-28 28.2 0 15 12.4 28 28 28 15.4 0 28.2-12.8 28.2-28-0.2-15.2-12.8-28.2-28.2-28.2zM800 96h-576v704h576v-704z" />
<glyph unicode="&#xe988;" glyph-name="trash-outline" data-tags="trash-outline" d="M800 733.4h-160v40c0 32.4-26.2 58.6-58.6 58.6h-139c-32.2 0-58.4-26.2-58.4-58.6v-40h-160v-29.4h42.2l47.2-581.4c0-32.4 26.2-58.6 58.6-58.6h282c32.4 0 58.6 26.2 58.6 58.6l46.6 581.4h40.8v29.4zM413.2 773.4c0 16.2 13.2 29.4 29.2 29.4h139c16.2 0 29.2-13.2 29.2-29.4v-40h-197.4v40zM683.2 124.2v-1.6c0-16.2-13.2-29.4-29.2-29.4h-282c-16.2 0-29.2 13.2-29.2 29.4v1.6l-47.4 579.8h434.4l-46.6-579.8zM498 640h28v-482h-28zM640 640h-29.2l-21.4-482h29.2zM413 640h-29l21.4-482h29.2z" />
<glyph unicode="&#xe989;" glyph-name="authenticate" data-tags="authenticate authentication login user key validate" d="M25.6 356.796c4.792 14.638 7.646 30.294 14.728 43.702 19.074 36.13 49.13 55.676 91.152 55.558 98.802-0.274 197.626-1.506 296.388 0.406 67.132 1.31 108.146-54.918 108.724-106.864 0.89-79.176 0.392-158.326 0.446-237.5 0.026-25.972 0.078-51.922-0.078-77.894-0.078-12.356-0.55-12.622-12.938-12.622-162.132 0-324.256-0.050-486.392 0.184-4.006 0-8.010 2.906-12.030 4.452 0 110.202 0 220.378 0 330.578zM998.4 649.402c-4.212-16.102-6.86-32.82-12.908-48.202-23.904-60.876-69.2-100.058-129.526-122.576-9.452-3.522-12.146-7.75-11.806-17.384 0.786-21.772 0.262-43.568 0.262-66.322-11.678 0-22.91 0-34.978 0 0-17.202 0-33.486 0-50.976 11.126 0 22.62 0 34.69 0 0-17.516 0-33.83 0-51.108-11.232 0-22.492 0-34.926 0 0-16.312-0.184-31.682 0.29-47.024 0.050-1.468 4.344-3.85 6.754-3.98 9.082-0.472 18.222-0.184 28.066-0.184 0-18.852 0-36.762 0-55.692-11.024 0-22.256 0-34.326 0 0-17.542 0-34.062 0-51.604 11.73 0 22.99 0 35.584 0 0-16.732 0.184-32.466-0.186-48.228-0.052-2.304-2.146-5.264-4.162-6.706-24.27-17.174-48.7-34.088-73.52-51.37-24.012 17.254-47.966 34.22-71.534 51.79-2.458 1.832-3.376 7.070-3.376 10.734-0.342 77.89-0.392 155.762-0.604 233.654-0.106 45.268-0.734 90.538-0.262 135.796 0.106 10.512-2.88 14.91-12.984 18.68-57.944 21.6-102.77 58.754-126.752 116.722-28.080 67.852-17.646 131.856 27.046 189.274 39.248 50.388 92.632 77.408 155.604 85.238 71.242 8.848 135.836-7.778 191.472-53.962 38.672-32.086 62.786-73.064 70.168-123.256 0.472-3.076 1.258-6.086 1.912-9.124 0.002-11.386 0.002-22.788 0.002-34.19zM767.654 784.176c-28.33 0.040-51.998-23.604-52.104-52.064-0.104-28.41 23.25-51.842 51.972-52.144 28.146-0.288 52.26 23.75 52.102 51.972-0.156 28.542-23.692 52.184-51.97 52.236zM474.802 681.070c0.184-106.472-86.156-192.9-193.072-193.292-106.51-0.38-193.122 85.906-193.488 192.782-0.368 106.694 85.524 193.136 192.506 193.75 106.906 0.602 193.882-85.998 194.054-193.24z" />
<glyph unicode="&#xe98a;" glyph-name="developer" data-tags="developer software code html web dev webdev computer laptop development" d="M168.408 234.674c0 2.732 0 4.986 0 7.24 0 166.078-0.002 332.156 0 498.234 0.002 26.784 14.222 43.022 37.634 43.026 42.326 0.008 84.654 0.026 126.98 0.024 161.644-0.002 323.29-0.012 484.936-0.016 23.268 0 37.63-16.418 37.63-43.094 0.006-140.966 0.004-281.932 0.002-422.9 0-25.28-0.002-50.56-0.002-75.84 0-2.068 0-4.136 0-6.674-229.1 0-457.792 0-687.18 0zM820.994 743.55c-206.312 0-412.020 0-617.68 0 0-156.942 0-313.364 0-469.892 206.126 0 411.832 0 617.68 0 0 156.752 0 313.060 0 469.892zM31.008 194.662c131.984 0 263.242 0 395.108 0 0-5.554-0.004-10.82 0-16.086 0.010-9.868 2.834-12.96 11.904-12.962 47.662-0.004 95.324 0.002 142.986 0.006 16.158 0.002 16.88 0.828 16.874 19.262 0 3.024 0 6.046 0 9.59 131.662 0 263.032 0 395.11 0 0-6.704 0-13.474 0-20.25 0-4.184-0.392-8.428 0.078-12.542 1.090-9.51-3.018-15.608-10.016-18.864-9.822-4.568-19.784-9.204-30.066-11.954-42.244-11.298-85.296-14.122-128.522-14.156-118.152-0.096-236.306-0.060-354.46-0.024-96.156 0.034-192.312-0.184-288.466 0.382-38.694 0.228-77.214 4.142-114.892 14.996-8.804 2.538-17.326 6.628-25.706 10.734-6.956 3.406-10.682 9.354-10.084 18.886 0.672 10.754 0.152 21.6 0.152 32.982zM317.51 501.996c5.164-3.394 9.666-6.448 14.246-9.346 24.736-15.668 49.492-31.292 74.23-46.958 2.036-1.29 4.042-2.66 5.974-4.14 6.862-5.264 8.386-12.566 4.382-20.686-3.658-7.418-10.392-9.932-17.538-5.792-9.336 5.414-18.452 11.322-27.612 17.122-35.504 22.48-70.99 44.998-106.476 67.512-0.998 0.632-1.93 1.396-3.606 2.62 18.77 11.904 36.79 23.328 54.804 34.76 25.594 16.248 51.176 32.518 76.788 48.734 2.466 1.56 5.024 3.006 7.662 4.136 6.312 2.712 13.030-0.154 16.27-6.72 3.484-7.058 2.394-15.166-3.784-19.552-10.728-7.618-21.854-14.516-32.904-21.534zM614.080 552.384c-5.53 3.284-10.994 6.79-16.16 10.756-6.162 4.732-7.816 12.63-4.606 19.362 3.654 7.666 10.352 10.942 17.252 7.014 12.342-7.028 24.366-14.792 36.44-22.418 32.906-20.778 65.768-41.642 98.638-62.49 0.988-0.626 1.874-1.472 3.292-2.604-9.64-6.162-18.884-12.102-28.154-17.99-34.168-21.704-68.34-43.402-102.528-65.072-2.616-1.66-5.252-3.354-8.030-4.59-6.994-3.12-13.718 0.022-17.158 7.748-3.004 6.75-1.126 15.11 5.164 19.214 22.096 14.414 44.356 28.5 66.564 42.696 9.094 5.812 18.21 11.586 28.45 18.1-6.792 4.402-12.482 8.164-18.23 11.806-17.596 11.154-35.24 22.214-52.78 33.482zM459.048 376.046c-9.684 0.144-15.856 9.124-13.034 19.156 2.174 7.726 5.39 15.096 8.404 22.488 22.814 55.95 45.68 111.872 68.558 167.792 5.558 13.59 11.016 27.24 16.902 40.644 3.582 8.156 10.512 10.868 17.112 7.596 6.954-3.446 9.876-10.992 6.602-19.936-5.192-14.184-11.018-28.072-16.68-42.028-12.442-30.666-24.97-61.288-37.422-91.95-12.024-29.608-23.978-59.258-36.014-88.86-1.186-2.918-2.652-5.702-4.124-8.452-2.482-4.64-6.218-6.674-10.304-6.45z" />
<glyph unicode="&#xe98b;" glyph-name="developer-head" data-tags="developer software code html web dev webdev user human head face" d="M471.040 939.52c-147.992 0-257.115-51.016-327.68-131.080s-102.4-187.579-102.4-299c0-90.242 27.957-174.206 75.28-243.040 42.902-62.402 68.080-136.279 68.080-211.6v-98.32h40.96v98.32c0 84.423-28.070 166.13-75.28 234.8-42.789 62.238-68.080 138.050-68.080 219.84 0 103.619 29.605 200.904 92.16 271.88s158.232 117.24 296.96 117.24c139.313 0 229.523-40.529 289.12-102.52s89.229-147.425 100.16-239.84l0.48-4.24 98.2-169.2c5.094-9.169 2.542-18.283-6.36-23.28l-92.48-46.28v-123.24c0-76.633-63.043-136.223-139.4-129.12l-0.32 0.040-85.56 5.52v-109.92h40.96v66.24l41.12-2.68c99.771-9.281 184.16 70.425 184.16 169.92v97.92l71.4 35.72c27.89 15.494 37.649 51.375 22.28 79.040l-0.080 0.16-95.2 164.040c-12.18 95.89-43.346 188.436-109.84 257.6-67.891 70.617-171.233 115.080-318.64 115.080zM511.96 673.56c-9.86-0.043-18.071-7.047-19.977-16.348l-0.023-0.132-61.44-286.72c-0.288-1.288-0.453-2.767-0.453-4.285 0-11.317 9.175-20.492 20.492-20.492 9.803 0 17.999 6.884 20.016 16.081l0.025 0.136 61.44 286.72c0.326 1.37 0.514 2.942 0.514 4.558 0 11.312-9.17 20.482-20.482 20.482-0.039 0-0.078 0-0.118 0h0.006zM338.68 612.080c-0.175 0.005-0.38 0.008-0.586 0.008-6.789 0-12.807-3.304-16.534-8.391l-0.040-0.058-70.64-94.2 70.64-94.2c3.777-5.006 9.715-8.208 16.4-8.208 11.315 0 20.488 9.173 20.488 20.488 0 4.63-1.536 8.901-4.125 12.332l0.037-0.052-52.24 69.64 52.24 69.64c2.667 3.424 4.277 7.787 4.277 12.526 0 11.113-8.851 20.159-19.887 20.474l-0.029 0.001zM623.28 612.040c-10.794-0.64-19.306-9.55-19.306-20.448 0-4.732 1.605-9.090 4.3-12.558l-0.035 0.046 52.24-69.64-52.24-69.64c-2.552-3.379-4.088-7.65-4.088-12.28 0-11.315 9.173-20.488 20.488-20.488 6.685 0 12.623 3.202 16.363 8.156l0.037 0.052 70.64 94.2-70.64 94.2c-3.767 5.137-9.781 8.435-16.564 8.435-0.421 0-0.838-0.013-1.252-0.038l0.057 0.003z" />
<glyph unicode="&#xe98c;" glyph-name="data-refresh" data-tags="database refresh reload data update" d="M460 960c15.878-1.362 31.768-2.626 47.636-4.102 78.606-7.308 155.688-21.19 228.196-54.106 26.224-11.906 50.814-26.486 71.016-47.492 16.63-17.294 25.628-37.318 25.256-61.978-0.704-46.652-0.222-93.322-0.234-139.984 0-3.624 0-7.246 0-11.548-21.134 0-41.642 0-63.17 0 0 23.854 0 48.002 0 73.538-111.216-58.548-230.388-73.76-352.076-73.82-121.84-0.060-241.164 14.976-352.134 73.22-0.204-2.96-0.554-5.736-0.56-8.512-0.052-29.33 0.376-58.672-0.286-87.988-0.246-10.838 3.738-18.496 11.566-25.1 19.662-16.584 42.718-27.020 66.382-36.074 59.848-22.9 122.24-34.38 185.818-40.124 56.884-5.138 113.788-5.68 170.698-0.216 4.206 0.404 8.484 0.052 13.262 0.052 0-20.828 0-41.37 0-63.312-18.174-1.138-36.312-2.702-54.48-3.346-104.894-3.718-208.458 4.776-308.872 37.256-28.334 9.164-55.436 22.144-83.706 33.62-0.080-1.36-0.412-4.414-0.414-7.466-0.030-29.332 0.5-58.676-0.252-87.986-0.284-11.042 3.672-19.246 12.058-24.7 15.29-9.942 30.648-20.22 47.166-27.75 53.17-24.242 109.752-36.384 167.374-44.088 50.3-6.722 100.834-9.31 151.57-7.62 1.608 0.054 3.228-0.23 5.456-0.404 0-20.468 0-40.64 0-62.368-65.76-3.98-130.894 1.208-195.68 11.81-65.016 10.64-128.078 27.61-186.962 61.092-0.3-3.634-0.72-6.384-0.724-9.134-0.046-29.664 0.436-59.34-0.266-88.988-0.262-11.026 3.836-19.16 12.172-24.694 14.092-9.358 28.316-18.898 43.564-26.062 49.532-23.272 102.38-35.428 156.196-43.592 54.812-8.316 109.982-11.344 165.402-9.77 1.93 0.054 3.87-0.192 6.35-0.328 0-20.608 0-40.778 0-63.608-18.406 0-36.594-0.406-54.76 0.070-76.166 2.004-151.45 10.552-224.942 31.626-35.952 10.308-70.842 23.304-102.942 42.816-29.634 18.010-55.148 39.76-64.678 75.16 0 198.666 0 397.334 0 596 8.88 33.040 31.872 54.556 59.566 71.848 12.098 7.554 24.746 14.432 37.732 20.322 72.15 32.718 148.876 46.41 227.078 53.682 16.528 1.534 33.082 2.772 49.624 4.148 28.666 0 57.334 0 86 0zM423.396 896.27c-85.636-0.306-163.928-8.044-240.294-30.302-36.52-10.644-72.306-23.31-103.25-46.32-20.378-15.154-20.884-25.44 0.53-39.254 19.428-12.534 40.192-23.76 61.692-32.178 74.592-29.21 152.976-40.164 232.462-43.434 92.648-3.81 184.336 3.408 273.882 29.18 36.222 10.424 71.698 23.028 102.508 45.602 21.968 16.096 22.63 26.692-0.562 40.952-22.498 13.834-46.446 26.248-71.216 35.28-84.536 30.816-172.788 39.656-255.752 40.474zM748-64c-21.354 4.778-43.324 7.716-63.958 14.636-108.29 36.312-181.218 147.124-171.408 258.748 10.598 120.606 96.904 216.010 212.616 234.718 13.74 2.22 27.684 3.184 42.71 4.862 0 30.72 0 61.79 0 94.882 85.782-53.61 169.808-106.122 255.69-159.792-85.312-53.342-169.45-105.948-255.154-159.534 0 43.146 0 84.792 0 126.214-63.042 10.796-141.064-51.3-156.708-123.542-18.48-85.34 31.968-168.090 116.366-190.224 82.434-21.618 174.2 26.162 197.168 122.466 31.104 0 62.324 0 95.48 0-2.37-11.442-4.184-22.406-6.936-33.132-26.054-101.556-113.912-177.336-218.188-188.464-2.596-0.276-5.12-1.21-7.676-1.84-13.336 0.002-26.668 0.002-40.002 0.002z" />
<glyph unicode="&#xe98d;" d="M0 806c0 51.306 0 102.612 0 153.958 341.124 0 682.246 0 1024 0 0-229.958 0-459.958 0-689.958-1.876 2.644-3.972 5.16-5.592 7.954-19.348 33.41-38.626 66.862-57.92 100.302-10.002 17.336-12.522 17.394-22.404 0.536-2.154-3.676-4.366-7.316-6.71-11.244-3.826 2.34-6.926 4.254-10.042 6.134-49.4 29.794-102.986 41.058-159.282 29.494-93.256-19.158-155.552-75.636-178.802-167.854-23.35-92.616 4.514-172.244 78.454-233.192 70.094-57.774 169.622-65.556 248.558-22.266 17.434 9.56 19.238 15.71 9.542 32.542-7.146 12.402-14.308 24.792-21.434 37.206-8.826 15.382-13.072 16.714-28.616 8.346-27.946-15.048-57.72-20.394-88.92-15.4-72.44 11.594-122.318 75.928-116.606 149.602 5.534 71.376 67.234 127.086 140.268 126.524 30.254-0.232 57.3-9.806 82.068-28.438-2.934-5.366-5.644-10.252-8.29-15.176-6.58-12.248-4.88-15.128 9.186-15.146 40.98-0.048 81.96-0.084 122.942 0.072 4.538 0.018 9.068 1.306 13.602 2.006 0-108.666 0-217.334 0-326-341.334 0-682.666 0-1024 0 0 51.334 0 102.666 0 154 6.396-26.872 21.376-48.608 44.144-63.158 22.852-14.604 46.808-28.414 71.962-38.292 63.406-24.894 130.268-35.17 197.836-40.952 99.426-8.508 198.392-5.448 296.69 12.608 13.104 2.406 26.056 5.636 33.19 7.198-11.764 13.912-24.97 28.942-37.426 44.57-4.474 5.616-8.74 6.162-15.384 5.174-27.982-4.164-56-8.392-84.152-11.050-61.192-5.778-122.462-5.386-183.72-0.228-63.942 5.384-126.802 16.014-187.296 38.158-22.24 8.14-44.040 17.276-62.354 32.95-9.374 8.024-14.246 17.54-13.984 30.456 0.618 30.652 0.196 61.326 0.194 91.992 0 15.232 0 30.464 0 47.042 8.432-4.558 15.52-8.706 22.872-12.312 57.206-28.070 118.6-41.25 181.088-50.102 74.162-10.506 148.692-12.56 223.41-7.826 18.838 1.196 37.63 3.086 55.556 4.584 2.668 21.034 5.152 40.638 7.654 60.38-20.576-1.766-40.75-3.852-60.978-5.164-57.962-3.764-115.898-3.342-173.772 1.948-58.858 5.378-116.908 14.934-172.878 34.566-23.904 8.382-47.326 18.056-67.374 34.16-10.364 8.324-16.156 18.262-15.818 32.588 0.83 35.31 0.25 70.656 0.24 105.988-0.002 10.24 0 20.48 0 32.014 10.62-5.452 19.818-10.64 29.39-15.008 63.458-28.948 130.958-42.312 199.662-49.95 98.502-10.95 196.96-9.724 294.954 5.852 63.696 10.126 126.012 25.168 182.702 57.744 0.756 0.436 1.854 0.276 4.020 0.546 0-13.406 0-26.458 0-38.694 20.116 0 39.028 0 59.188 0 0 4.58 0 8.484 0 12.388 0.012 112.328-0.214 224.656 0.208 336.982 0.1 26.668-9.108 48.686-27.53 67.33-20.010 20.252-44.23 34.124-70.064 45.276-59.574 25.718-122.476 38.532-186.508 45.752-108.564 12.244-216.892 10.36-324.53-9.612-52.87-9.808-104.6-23.668-151.912-50.292-32.418-18.238-59.648-41.366-69.282-79.608z" />
</font>
</defs>
</svg>
