<?xml version="1.0" encoding="UTF-8" standalone="no"?>
<!-- Generator: Adobe Illustrator 18.1.1, SVG Export Plug-In . SVG Version: 6.00 Build 0)  -->

<svg
   xmlns:dc="http://purl.org/dc/elements/1.1/"
   xmlns:cc="http://creativecommons.org/ns#"
   xmlns:rdf="http://www.w3.org/1999/02/22-rdf-syntax-ns#"
   xmlns:svg="http://www.w3.org/2000/svg"
   xmlns="http://www.w3.org/2000/svg"
   xmlns:sodipodi="http://sodipodi.sourceforge.net/DTD/sodipodi-0.dtd"
   xmlns:inkscape="http://www.inkscape.org/namespaces/inkscape"
   version="1.1"
   id="Layer_1"
   x="0px"
   y="0px"
   viewBox="817 811.8 590 590"
   enable-background="new 817 811.8 590 590"
   xml:space="preserve"
   inkscape:version="0.91pre4 r13712"
   sodipodi:docname="Onsite Logo_button.svg"><metadata
     id="metadata4390"><rdf:RDF><cc:Work
         rdf:about=""><dc:format>image/svg+xml</dc:format><dc:type
           rdf:resource="http://purl.org/dc/dcmitype/StillImage" /><dc:title></dc:title></cc:Work></rdf:RDF></metadata><defs
     id="defs4388" /><sodipodi:namedview
     pagecolor="#ffffff"
     bordercolor="#666666"
     borderopacity="1"
     objecttolerance="10"
     gridtolerance="10"
     guidetolerance="10"
     inkscape:pageopacity="0"
     inkscape:pageshadow="2"
     inkscape:window-width="2560"
     inkscape:window-height="1538"
     id="namedview4386"
     showgrid="false"
     inkscape:zoom="1.6071698"
     inkscape:cx="159.06308"
     inkscape:cy="205.14239"
     inkscape:window-x="-8"
     inkscape:window-y="-8"
     inkscape:window-maximized="1"
     inkscape:current-layer="Layer_1" /><g
     id="g4137"><g
       id="g4139"><linearGradient
         id="SVGID_1_"
         gradientUnits="userSpaceOnUse"
         x1="64.4624"
         y1="81.2641"
         x2="64.4624"
         y2="47.3933"
         gradientTransform="matrix(17.25 0 0 17.25 -4.890522e-004 -4.852139e-004)"><stop
           offset="0"
           style="stop-color:#2D2D84"
           id="stop4142" /><stop
           offset="7.400000e-003"
           style="stop-color:#2F2E84;stop-opacity:0.9926"
           id="stop4144" /><stop
           offset="0.4994"
           style="stop-color:#965698;stop-opacity:0.5006"
           id="stop4146" /><stop
           offset="0.8403"
           style="stop-color:#D870A4;stop-opacity:0.1597"
           id="stop4148" /><stop
           offset="1"
           style="stop-color:#F17AA9;stop-opacity:0"
           id="stop4150" /></linearGradient><path
         fill="url(#SVGID_1_)"
         d="M1359,1401.8l-494-0.1c-26.5,0-48-21.3-48-47.5V865.1c0-26.3,21.5-47.5,48-47.5h494    c26.5,0,48,21.3,48,47.5v489.2C1407,1380.5,1385.5,1401.8,1359,1401.8z"
         id="path4152" /><g
         id="g4154"><linearGradient
           id="SVGID_2_"
           gradientUnits="userSpaceOnUse"
           x1="64.2385"
           y1="80.9368"
           x2="64.2385"
           y2="47.0658"
           gradientTransform="matrix(17.25 0 0 17.25 -4.890522e-004 -4.852139e-004)"><stop
             offset="0"
             style="stop-color:#2D2D84"
             id="stop4157" /><stop
             offset="7.400000e-003"
             style="stop-color:#2F2E84;stop-opacity:0.9926"
             id="stop4159" /><stop
             offset="0.4994"
             style="stop-color:#965698;stop-opacity:0.5006"
             id="stop4161" /><stop
             offset="0.8403"
             style="stop-color:#D870A4;stop-opacity:0.1597"
             id="stop4163" /><stop
             offset="1"
             style="stop-color:#F17AA9;stop-opacity:0"
             id="stop4165" /></linearGradient><path
           fill="url(#SVGID_2_)"
           d="M1359.7,1396.2l-500.3-0.1c-23.4,0-42.4-19.1-42.4-42.6V851.5c0-21.9,17.7-39.6,39.5-39.6h542.7     v544.7C1399.2,1378.4,1381.5,1396.2,1359.7,1396.2z"
           id="path4167" /><g
           id="g4169"><path
             opacity="0.5"
             fill="#0D72B9"
             enable-background="new    "
             d="M1359.8,1396.2H856.5c-21.8,0-39.5-17.7-39.5-39.6V851.4      c0-21.9,17.7-39.6,39.5-39.6h503.3c21.8,0,39.5,17.7,39.5,39.6v505.2C1399.3,1378.5,1381.6,1396.2,1359.8,1396.2z"
             id="path4171" /></g><g
           id="g4173"><rect
             x="852.6"
             y="847.7"
             transform="matrix(1 2.007438e-003 -2.007438e-003 1 1.8333 -1.8388)"
             fill="#F9BD15"
             width="128.7"
             height="129.1"
             id="rect4175" /><rect
             x="857.3"
             y="852.5"
             transform="matrix(1 2.007438e-003 -2.007438e-003 1 1.8332 -1.8388)"
             fill="#3953A2"
             width="119.2"
             height="119.6"
             id="rect4177" /></g><path
           fill="#F9BD15"
           d="M893.4,930.2c0,7.7,2.2,13.8,6.6,18.4s10.4,6.8,17.8,6.8c6.8,0,12.3-1.7,16.4-5.2c4.1-3.5,6.2-8.2,6.2-14     c0-7.9-7.3-13.8-21.8-17.9c-2.9-0.8-5.2-1.4-6.8-1.9c-11.7-3.4-19.4-7.2-23.2-11.3c-3.7-4.1-5.6-9.9-5.6-17.2     c0-9.4,3.1-17,9.2-22.8c6.1-5.8,14-8.7,23.8-8.7c11.2,0,19.9,3,26.1,9c6.2,6,9.2,14.4,9.2,25.2v0.3l-13.6,0     c-0.5-7.1-2.6-12.5-6.3-16.3c-3.7-3.8-8.7-5.7-15-5.7c-5.9,0-10.6,1.5-14.1,4.6c-3.5,3-5.3,7.1-5.3,12.2c0,5.1,1.3,8.8,4,11.2     c2.6,2.4,9.6,4.9,20.9,7.7c13.2,3.2,21.8,6.9,25.9,11.2c4.1,4.3,6.2,10.6,6.2,18.8c0,10.3-3.3,18.5-10,24.6     c-6.6,6.1-15.6,9.1-26.9,9.1c-11.5,0-20.5-3.3-27-9.9c-6.5-6.6-10-16-10.5-28.1L893.4,930.2z"
           id="path4179" /><g
           id="g4181"><rect
             x="976.3"
             y="972.4"
             transform="matrix(1 2.007438e-003 -2.007438e-003 1 2.0837 -2.0869)"
             fill="#F9BD15"
             width="128.7"
             height="129.1"
             id="rect4183" /><rect
             x="981.1"
             y="977.1"
             transform="matrix(1 2.007438e-003 -2.007438e-003 1 2.0836 -2.0869)"
             fill="#3953A2"
             width="119.2"
             height="119.6"
             id="rect4185" /></g><path
           fill="#F9BD15"
           d="M1010.9,1092.8l0.2-111.8l58.3,0.1l0,13.5l-45.9-0.1l-0.1,33.5l41.9,0.1l0,13.4l-41.8-0.1l-0.1,37.8     l46.9,0.1l0,13.5L1010.9,1092.8z"
           id="path4187" /><g
           id="g4189"><rect
             x="1100"
             y="1097"
             transform="matrix(1 2.007438e-003 -2.007438e-003 1 2.3341 -2.335)"
             fill="#F9BD15"
             width="128.7"
             height="129.1"
             id="rect4191" /><rect
             x="1104.8"
             y="1101.7"
             transform="matrix(1 2.007438e-003 -2.007438e-003 1 2.3341 -2.335)"
             fill="#3953A2"
             width="119.2"
             height="119.6"
             id="rect4193" /></g><path
           fill="#F9BD15"
           d="M1140.8,1179.5c0,7.7,2.2,13.8,6.6,18.4c4.4,4.5,10.4,6.8,17.8,6.8c6.8,0,12.3-1.7,16.4-5.2     c4.1-3.5,6.2-8.2,6.2-14c0-7.9-7.3-13.8-21.8-17.9c-2.9-0.8-5.2-1.4-6.8-1.9c-11.7-3.4-19.4-7.2-23.2-11.3     c-3.7-4.1-5.6-9.9-5.6-17.2c0-9.4,3.1-17,9.2-22.8c6.1-5.8,14-8.7,23.8-8.7c11.2,0,19.9,3,26.1,9c6.2,6,9.2,14.4,9.2,25.2v0.3     l-13.6,0c-0.5-7.1-2.6-12.5-6.3-16.3s-8.7-5.7-15-5.7c-5.9,0-10.6,1.5-14.1,4.6c-3.5,3-5.3,7.1-5.3,12.2c0,5.1,1.3,8.8,4,11.2     c2.6,2.4,9.6,4.9,20.9,7.7c13.2,3.2,21.8,6.9,25.9,11.2c4.1,4.3,6.2,10.6,6.2,18.8c0,10.3-3.3,18.5-10,24.6     c-6.6,6.1-15.6,9.1-26.9,9.1c-11.5,0-20.5-3.3-27-9.9c-6.5-6.6-10-16-10.5-28.1L1140.8,1179.5z"
           id="path4195" /><g
           id="g4197"><rect
             x="1223.5"
             y="1221.6"
             transform="matrix(1 2.007438e-003 -2.007438e-003 1 2.5845 -2.5827)"
             fill="#F9BD15"
             width="128.7"
             height="129.1"
             id="rect4199" /><rect
             x="1228.3"
             y="1226.3"
             transform="matrix(1 2.007438e-003 -2.007438e-003 1 2.5844 -2.5827)"
             fill="#3953A2"
             width="119.2"
             height="119.6"
             id="rect4201" /></g><path
           fill="#F9BD15"
           d="M1243.2,1341.9l37.2-111.7l14.9,0l36.9,111.8l-13.7,0l-10.7-32.8l-40.5-0.1l-10.8,32.8H1243.2z      M1272.1,1295.5l31.4,0.1l-15.6-49.3L1272.1,1295.5z"
           id="path4203" /><g
           id="g4205"><path
             fill="#E5E5E4"
             d="M990,1117.3v9c7.5-8.4,13.6-11.1,23.9-11.1c8.9,0,16.2,3.1,20.4,8.7c3.6,4.9,5,10.5,5,19.7v52.9H1025      v-51.8c0-10.8-4.7-16.1-14.5-16.1c-12.3,0-19.8,7.5-19.8,19.8v48h-14.3v-79.1H990z"
             id="path4207" /><path
             fill="#E5E5E4"
             d="M957.7,1125.7c0,40.9-21.2,70.6-50.2,70.6c-29.3,0-50.2-29.8-50.2-71.7c0-41.7,20.9-71.5,50.1-71.5      C937.3,1053.3,957.7,1082.8,957.7,1125.7z M872.4,1124.7c0,32.5,14.2,54.6,35.1,54.6c20.6,0,35.1-22.2,35.1-53.8      c0-33.3-14.1-55.2-35.1-55.2C886.6,1070.3,872.4,1092.5,872.4,1124.7z"
             id="path4209" /></g><g
           id="g4211"><path
             fill="#AEAE63"
             d="M1005.1,1257.9h-17.8v-17.8h17.7L1005.1,1257.9L1005.1,1257.9z M1005.1,1350.9h-17.8v-80.2h17.7      L1005.1,1350.9L1005.1,1350.9z"
             id="path4213" /><path
             fill="#AEAE63"
             d="M1068,1281.1h-16.8v50.3c0,4.7,2.5,7.3,6.9,7.3c2.5,0,5-0.5,9.8-2.2v12.5c-7.7,1.5-10.6,1.8-14.9,1.8      c-13.3,0-19.7-6.1-19.7-19.4v-50.3h-12.6V1269h12.6v-25.4h17.7v25.4h16.8V1281.1L1068,1281.1z"
             id="path4215" /><path
             fill="#AEAE63"
             d="M1095.7,1312.3c1.3,16.4,11,25.8,27,25.8c11,0,18.3-4.5,22.6-13.9h17c-4.4,16.8-19.3,26.7-40,26.7      c-26.2,0-44.4-17.3-44.4-42.4c0-25.1,17.7-42.2,43.8-42.2c18.5,0,32,8.5,38.2,23.9c2.3,6,3.5,12.5,3.7,22.1L1095.7,1312.3      L1095.7,1312.3z M1145.2,1301.2c-0.8-14.6-9.3-22.8-23.3-22.8c-14.5,0-24.9,9.3-25.9,22.8H1145.2z"
             id="path4217" /><path
             fill="#AEAE63"
             d="M941,1251.8c-1.9-19.2-12.6-28.5-32-28.5c-17.2,0-28.2,7.9-28.2,20c0,10.2,6.8,16.3,23.2,20.2l20.8,5      c15.2,3.7,23,7.3,29.1,13.3c6.8,6.5,10.4,15.8,10.4,26.7c0,26.2-19.7,42.5-50.9,42.5c-33.4,0-53.5-18.3-56.2-51.6h19.1      c1.9,22.1,15.4,34.4,37.6,34.4c18.5,0,31.6-9.8,31.6-23.7c0-10.4-6.9-17.3-20.5-20.8l-29-7.5c-23.5-6-34.2-17.3-34.2-36      c0-24.4,18.7-39.8,48.3-39.8c29.5,0,45.4,14.8,49.4,46H941L941,1251.8z"
             id="path4219" /></g></g></g><linearGradient
       id="SVGID_3_"
       gradientUnits="userSpaceOnUse"
       x1="1104.2001"
       y1="1386.9989"
       x2="1104.2001"
       y2="1102.3969"
       gradientTransform="matrix(1 0 0 -1 0 2208)"><stop
         offset="5.376344e-003"
         style="stop-color:#FFFFFF;stop-opacity:0.5"
         id="stop4222" /><stop
         offset="1"
         style="stop-color:#CDE4FF;stop-opacity:0.3"
         id="stop4224" /></linearGradient><path
       opacity="0.5"
       fill="url(#SVGID_3_)"
       enable-background="new    "
       d="M1115.5,1030.8c103,0,196.4,23.6,265.2,62V843   c0-12.4-18-22-40.7-22H869.3c-22.7,0-41.6,9.6-41.6,22v256.8c0,2,0.5,4,1.4,5.8C899.1,1059.7,1001.5,1030.8,1115.5,1030.8z"
       id="path4226" /><g
       opacity="0.43"
       id="g4228"><linearGradient
         id="SVGID_4_"
         gradientUnits="userSpaceOnUse"
         x1="917.8088"
         y1="849.1087"
         x2="917.8088"
         y2="978.1264"><stop
           offset="5.376344e-003"
           style="stop-color:#FFFFFF;stop-opacity:0.5"
           id="stop4231" /><stop
           offset="1"
           style="stop-color:#CDE4FF;stop-opacity:0.3"
           id="stop4233" /></linearGradient><polygon
         fill="url(#SVGID_4_)"
         points="982,978.1 853.3,977.9 853.6,849.1 982.3,849.4   "
         id="polygon4235" /><linearGradient
         id="SVGID_5_"
         gradientUnits="userSpaceOnUse"
         x1="917.8088"
         y1="853.8686"
         x2="917.8088"
         y2="973.3401"><stop
           offset="5.376344e-003"
           style="stop-color:#FFFFFF;stop-opacity:0.5"
           id="stop4238" /><stop
           offset="1"
           style="stop-color:#CDE4FF;stop-opacity:0.3"
           id="stop4240" /></linearGradient><polygon
         fill="url(#SVGID_5_)"
         points="977.3,973.3 858.1,973.1 858.4,853.9 977.5,854.1   "
         id="polygon4242" /></g><linearGradient
       id="SVGID_6_"
       gradientUnits="userSpaceOnUse"
       x1="917.7892"
       y1="857.8484"
       x2="917.7892"
       y2="969.3757"><stop
         offset="5.376344e-003"
         style="stop-color:#FFFFFF;stop-opacity:0.5"
         id="stop4245" /><stop
         offset="1"
         style="stop-color:#CDE4FF;stop-opacity:0.3"
         id="stop4247" /></linearGradient><path
       opacity="0.43"
       fill="url(#SVGID_6_)"
       d="M894.3,931.5c0,7.7,2.2,13.8,6.6,18.3c4.4,4.5,10.4,6.8,17.8,6.8   c6.8,0,12.3-1.7,16.4-5.2c4.1-3.5,6.2-8.2,6.2-14c0-7.8-7.3-13.8-21.8-17.8c-2.9-0.8-5.2-1.4-6.8-1.9c-11.7-3.4-19.4-7.2-23.1-11.3   c-3.7-4.1-5.6-9.8-5.6-17.2c0-9.4,3.1-17,9.1-22.7s14-8.7,23.8-8.6c11.2,0,19.9,3,26,8.9c6.2,5.9,9.2,14.3,9.2,25.2v0.3l-13.6,0   c-0.5-7-2.6-12.5-6.3-16.2s-8.7-5.6-15-5.6c-5.9,0-10.6,1.5-14.1,4.6c-3.5,3-5.3,7.1-5.3,12.2c0,5.1,1.3,8.8,4,11.2   s9.6,4.9,20.9,7.7c13.2,3.2,21.8,6.9,25.9,11.2c4.1,4.3,6.2,10.6,6.2,18.7c0,10.3-3.3,18.4-10,24.5c-6.6,6-15.6,9.1-26.9,9   c-11.5,0-20.5-3.3-27-9.9s-10-15.9-10.5-28L894.3,931.5z"
       id="path4249" /><g
       opacity="0.43"
       id="g4251"><linearGradient
         id="SVGID_7_"
         gradientUnits="userSpaceOnUse"
         x1="1041.4688"
         y1="973.355"
         x2="1041.4688"
         y2="1102.3728"><stop
           offset="5.376344e-003"
           style="stop-color:#FFFFFF;stop-opacity:0.5"
           id="stop4254" /><stop
           offset="1"
           style="stop-color:#CDE4FF;stop-opacity:0.3"
           id="stop4256" /></linearGradient><polygon
         fill="url(#SVGID_7_)"
         points="1105.7,1102.4 977,1102.1 977.3,973.4 1105.9,973.6   "
         id="polygon4258" /><linearGradient
         id="SVGID_8_"
         gradientUnits="userSpaceOnUse"
         x1="1041.4951"
         y1="978.1151"
         x2="1041.4951"
         y2="1097.5867"><stop
           offset="5.376344e-003"
           style="stop-color:#FFFFFF;stop-opacity:0.5"
           id="stop4261" /><stop
           offset="1"
           style="stop-color:#CDE4FF;stop-opacity:0.3"
           id="stop4263" /></linearGradient><polygon
         fill="url(#SVGID_8_)"
         points="1100.9,1097.6 981.8,1097.3 982,978.1 1101.2,978.4   "
         id="polygon4265" /></g><linearGradient
       id="SVGID_9_"
       gradientUnits="userSpaceOnUse"
       x1="1041.413"
       y1="982.0959"
       x2="1041.413"
       y2="1093.6493"><stop
         offset="5.376344e-003"
         style="stop-color:#FFFFFF;stop-opacity:0.5"
         id="stop4268" /><stop
         offset="1"
         style="stop-color:#CDE4FF;stop-opacity:0.3"
         id="stop4270" /></linearGradient><path
       opacity="0.43"
       fill="url(#SVGID_9_)"
       d="M1011.7,1093.5l0.2-111.4l58.3,0.1l0,13.5l-45.9-0.1l-0.1,33.4l41.8,0.1l0,13.3   l-41.8-0.1l-0.1,37.7l46.9,0.1l0,13.5L1011.7,1093.5z"
       id="path4272" /><g
       opacity="0.43"
       id="g4274"><linearGradient
         id="SVGID_10_"
         gradientUnits="userSpaceOnUse"
         x1="1165.1552"
         y1="1097.6014"
         x2="1165.1552"
         y2="1226.6191"><stop
           offset="5.376344e-003"
           style="stop-color:#FFFFFF;stop-opacity:0.5"
           id="stop4277" /><stop
           offset="1"
           style="stop-color:#CDE4FF;stop-opacity:0.3"
           id="stop4279" /></linearGradient><polygon
         fill="url(#SVGID_10_)"
         points="1229.4,1226.6 1100.7,1226.4 1100.9,1097.6 1229.6,1097.9   "
         id="polygon4281" /><linearGradient
         id="SVGID_11_"
         gradientUnits="userSpaceOnUse"
         x1="1165.1552"
         y1="1102.3615"
         x2="1165.1552"
         y2="1221.833"><stop
           offset="5.376344e-003"
           style="stop-color:#FFFFFF;stop-opacity:0.5"
           id="stop4284" /><stop
           offset="1"
           style="stop-color:#CDE4FF;stop-opacity:0.3"
           id="stop4286" /></linearGradient><polygon
         fill="url(#SVGID_11_)"
         points="1224.6,1221.8 1105.5,1221.6 1105.7,1102.4 1224.8,1102.6   "
         id="polygon4288" /></g><linearGradient
       id="SVGID_12_"
       gradientUnits="userSpaceOnUse"
       x1="1165.1292"
       y1="1106.343"
       x2="1165.1292"
       y2="1217.8704"><stop
         offset="5.376344e-003"
         style="stop-color:#FFFFFF;stop-opacity:0.5"
         id="stop4291" /><stop
         offset="1"
         style="stop-color:#CDE4FF;stop-opacity:0.3"
         id="stop4293" /></linearGradient><path
       opacity="0.43"
       fill="url(#SVGID_12_)"
       d="M1141.6,1180c0,7.7,2.2,13.8,6.6,18.3c4.4,4.5,10.4,6.8,17.8,6.8   c6.8,0,12.3-1.7,16.4-5.2c4.1-3.5,6.2-8.2,6.2-14c0-7.8-7.3-13.8-21.8-17.8c-2.9-0.8-5.2-1.4-6.8-1.9c-11.7-3.4-19.4-7.2-23.1-11.3   s-5.6-9.8-5.6-17.2c0-9.4,3.1-17,9.1-22.7s14-8.7,23.8-8.6c11.2,0,19.9,3,26,8.9c6.2,5.9,9.2,14.3,9.2,25.2v0.3l-13.6,0   c-0.5-7-2.6-12.5-6.3-16.2s-8.7-5.6-15-5.6c-5.9,0-10.6,1.5-14.1,4.6c-3.5,3-5.3,7.1-5.3,12.2c0,5.1,1.3,8.8,4,11.2   c2.6,2.4,9.6,4.9,20.9,7.7c13.2,3.2,21.8,6.9,25.9,11.2c4.1,4.3,6.2,10.6,6.2,18.7c0,10.3-3.3,18.4-10,24.5s-15.6,9.1-26.9,9   c-11.5,0-20.5-3.3-27-9.9c-6.5-6.6-10-15.9-10.5-28L1141.6,1180z"
       id="path4295" /><g
       opacity="0.43"
       id="g4297"><linearGradient
         id="SVGID_13_"
         gradientUnits="userSpaceOnUse"
         x1="1288.6459"
         y1="1221.8481"
         x2="1288.6459"
         y2="1350.8658"><stop
           offset="5.376344e-003"
           style="stop-color:#FFFFFF;stop-opacity:0.5"
           id="stop4300" /><stop
           offset="1"
           style="stop-color:#CDE4FF;stop-opacity:0.3"
           id="stop4302" /></linearGradient><polygon
         fill="url(#SVGID_13_)"
         points="1352.9,1350.9 1224.2,1350.6 1224.4,1221.8 1353.1,1222.1   "
         id="polygon4304" /><linearGradient
         id="SVGID_14_"
         gradientUnits="userSpaceOnUse"
         x1="1288.6459"
         y1="1226.5989"
         x2="1288.6459"
         y2="1346.0704"><stop
           offset="5.376344e-003"
           style="stop-color:#FFFFFF;stop-opacity:0.5"
           id="stop4307" /><stop
           offset="1"
           style="stop-color:#CDE4FF;stop-opacity:0.3"
           id="stop4309" /></linearGradient><polygon
         fill="url(#SVGID_14_)"
         points="1348.1,1346.1 1229,1345.8 1229.2,1226.6 1348.3,1226.8   "
         id="polygon4311" /></g><linearGradient
       id="SVGID_15_"
       gradientUnits="userSpaceOnUse"
       x1="1288.5814"
       y1="1230.5905"
       x2="1288.5814"
       y2="1342.1174"><stop
         offset="5.376344e-003"
         style="stop-color:#FFFFFF;stop-opacity:0.5"
         id="stop4314" /><stop
         offset="1"
         style="stop-color:#CDE4FF;stop-opacity:0.3"
         id="stop4316" /></linearGradient><path
       opacity="0.43"
       fill="url(#SVGID_15_)"
       d="M1244,1342l37.2-111.4l14.9,0l36.9,111.5l-13.7,0l-10.7-32.8l-40.5-0.1l-10.8,32.7   H1244z M1272.9,1295.7l31.4,0.1l-15.6-49.1L1272.9,1295.7z"
       id="path4318" /><g
       opacity="0.4"
       id="g4320"><linearGradient
         id="SVGID_16_"
         gradientUnits="userSpaceOnUse"
         x1="1008.6697"
         y1="1115.0249"
         x2="1008.6697"
         y2="1197.0852"><stop
           offset="0"
           style="stop-color:#FFFFFF"
           id="stop4323" /><stop
           offset="1"
           style="stop-color:#000000;stop-opacity:0.7"
           id="stop4325" /></linearGradient><path
         fill="url(#SVGID_16_)"
         d="M990.8,1117.2v9.1c7.5-8.4,13.6-11.2,24-11.2c8.9,0,16.3,3.2,20.5,8.8c3.6,5,5,10.6,5,19.9v53.4    h-14.4v-52.3c0-10.9-4.7-16.2-14.6-16.2c-12.4,0-19.9,7.6-19.9,20v48.4H977v-79.9H990.8z"
         id="path4327" /><linearGradient
         id="SVGID_17_"
         gradientUnits="userSpaceOnUse"
         x1="907.9066"
         y1="1052.5245"
         x2="907.9066"
         y2="1197.0317"><stop
           offset="0"
           style="stop-color:#FFFFFF"
           id="stop4330" /><stop
           offset="1"
           style="stop-color:#000000;stop-opacity:0.7"
           id="stop4332" /></linearGradient><path
         fill="url(#SVGID_17_)"
         d="M958.4,1125.7c0,41.3-21.3,71.3-50.5,71.3c-29.5,0-50.5-30.1-50.5-72.4c0-42.1,21-72.1,50.3-72.1    C937.8,1052.6,958.4,1082.4,958.4,1125.7z M872.6,1124.7c0,32.8,14.3,55.2,35.3,55.2c20.7,0,35.3-22.4,35.3-54.3    c0-33.6-14.1-55.8-35.3-55.8C886.9,1069.8,872.6,1092.2,872.6,1124.7z"
         id="path4334" /></g><g
       opacity="0.4"
       id="g4336"><linearGradient
         id="SVGID_18_"
         gradientUnits="userSpaceOnUse"
         x1="995.5498"
         y1="1240.405"
         x2="995.5498"
         y2="1352.2592"><stop
           offset="0"
           style="stop-color:#FFFFFF"
           id="stop4339" /><stop
           offset="1"
           style="stop-color:#000000;stop-opacity:0.7"
           id="stop4341" /></linearGradient><linearGradient
         id="SVGID_19_"
         gradientUnits="userSpaceOnUse"
         x1="986.1399"
         y1="1296.332"
         x2="1004.9333"
         y2="1296.332"><stop
           offset="0"
           style="stop-color:#FFFFFF"
           id="stop4344" /><stop
           offset="1"
           style="stop-color:#000000"
           id="stop4346" /></linearGradient><path
         fill="url(#SVGID_18_)"
         stroke="url(#SVGID_19_)"
         stroke-width="0.9949"
         stroke-miterlimit="10"
         d="M1004.5,1258.4h-17.8v-18    h17.8L1004.5,1258.4L1004.5,1258.4z M1004.5,1352.3h-17.8v-81h17.8L1004.5,1352.3L1004.5,1352.3z"
         id="path4348" /><linearGradient
         id="SVGID_20_"
         gradientUnits="userSpaceOnUse"
         x1="1043.934"
         y1="1243.9321"
         x2="1043.934"
         y2="1352.2324"><stop
           offset="0"
           style="stop-color:#FFFFFF"
           id="stop4351" /><stop
           offset="1"
           style="stop-color:#000000;stop-opacity:0.7"
           id="stop4353" /></linearGradient><linearGradient
         id="SVGID_21_"
         gradientUnits="userSpaceOnUse"
         x1="1019.8065"
         y1="1298.0823"
         x2="1068.0614"
         y2="1298.0823"><stop
           offset="0"
           style="stop-color:#FFFFFF"
           id="stop4356" /><stop
           offset="1"
           style="stop-color:#000000"
           id="stop4358" /></linearGradient><path
         fill="url(#SVGID_20_)"
         stroke="url(#SVGID_21_)"
         stroke-width="0.9949"
         stroke-miterlimit="10"
         d="M1067.6,1281.8h-16.8    v50.8c0,4.7,2.5,7.4,7,7.4c2.5,0,5-0.5,9.9-2.2v12.6c-7.7,1.5-10.6,1.8-14.9,1.8c-13.4,0-19.7-6.2-19.7-19.6v-50.8h-12.6v-12.2    h12.6v-25.7h17.8v25.7h16.8V1281.8L1067.6,1281.8z"
         id="path4360" /><linearGradient
         id="SVGID_22_"
         gradientUnits="userSpaceOnUse"
         x1="1120.5763"
         y1="1266.9122"
         x2="1120.5763"
         y2="1352.2592"><stop
           offset="0"
           style="stop-color:#FFFFFF"
           id="stop4363" /><stop
           offset="1"
           style="stop-color:#000000;stop-opacity:0.7"
           id="stop4365" /></linearGradient><linearGradient
         id="SVGID_23_"
         gradientUnits="userSpaceOnUse"
         x1="1077.1163"
         y1="1309.5857"
         x2="1164.0458"
         y2="1309.5857"><stop
           offset="0"
           style="stop-color:#FFFFFF"
           id="stop4368" /><stop
           offset="1"
           style="stop-color:#000000"
           id="stop4370" /></linearGradient><path
         fill="url(#SVGID_22_)"
         stroke="url(#SVGID_23_)"
         stroke-width="0.9949"
         stroke-miterlimit="10"
         d="M1095.4,1313.4    c1.3,16.6,11,26,27.1,26c11,0,18.4-4.5,22.6-14.1h17c-4.4,16.9-19.4,27-40.1,27c-26.3,0-44.5-17.4-44.5-42.8    c0-25.3,17.8-42.6,43.9-42.6c18.6,0,32.1,8.6,38.3,24.2c2.3,6,3.5,12.6,3.7,22.3L1095.4,1313.4L1095.4,1313.4z M1145,1302.1    c-0.8-14.8-9.3-23-23.4-23c-14.5,0-25,9.4-25.9,23H1145z"
         id="path4372" /><linearGradient
         id="SVGID_24_"
         gradientUnits="userSpaceOnUse"
         x1="909.8892"
         y1="1205.7479"
         x2="909.8892"
         y2="1352.2324"><stop
           offset="0"
           style="stop-color:#FFFFFF"
           id="stop4375" /><stop
           offset="1"
           style="stop-color:#000000;stop-opacity:0.7"
           id="stop4377" /></linearGradient><linearGradient
         id="SVGID_25_"
         gradientUnits="userSpaceOnUse"
         x1="855.6368"
         y1="1278.9901"
         x2="964.0997"
         y2="1278.9901"><stop
           offset="0"
           style="stop-color:#FFFFFF"
           id="stop4380" /><stop
           offset="1"
           style="stop-color:#000000"
           id="stop4382" /></linearGradient><path
         fill="url(#SVGID_24_)"
         stroke="url(#SVGID_25_)"
         stroke-width="0.9949"
         stroke-miterlimit="10"
         d="M940.2,1252.2    c-1.9-19.3-12.6-28.8-32.1-28.8c-17.2,0-28.2,8-28.2,20.2c0,10.3,6.8,16.4,23.2,20.4l20.9,5.1c15.3,3.8,23,7.3,29.2,13.4    c6.8,6.5,10.4,16,10.4,26.9c0,26.5-19.7,42.9-51.1,42.9c-33.5,0-53.6-18.5-56.3-52.1h19.1c1.9,22.3,15.5,34.7,37.7,34.7    c18.6,0,31.7-9.9,31.7-24c0-10.5-7-17.4-20.5-21l-29-7.6c-23.6-6.1-34.2-17.4-34.2-36.4c0-24.6,18.8-40.1,48.4-40.1    s45.5,14.9,49.6,46.4L940.2,1252.2L940.2,1252.2z"
         id="path4384" /></g></g></svg>