<?xml version="1.0" encoding="utf-8"?>
<!-- Generator: Adobe Illustrator 18.1.1, SVG Export Plug-In . SVG Version: 6.00 Build 0)  -->
<svg version="1.1" id="Layer_1" xmlns="http://www.w3.org/2000/svg" xmlns:xlink="http://www.w3.org/1999/xlink" x="0px" y="0px"
	 viewBox="0 0 448 448" enable-background="new 0 0 448 448" xml:space="preserve">
<g>
	<path d="M448,219.2c0,3.4,0,6.8,0,10.3c-0.1,2.4-0.3,4.7-0.4,7.1c-0.7,12.7-2.4,25.3-5.3,37.7c-10.4,44.4-32.3,82.2-65.5,113.4
		c-24.5,23-52.9,39.6-84.8,49.8c-17.9,5.7-36.3,9.1-55,10.2c-2.6,0.1-5.3,0.3-7.9,0.4c-3.4,0-6.8,0-10.3,0c-0.3-0.1-0.5-0.1-0.8-0.1
		c-12.5-0.3-24.9-1.7-37.1-4.1c-19-3.7-37.3-9.8-54.7-18.3c-25.8-12.6-48.5-29.6-67.8-50.8c-18.7-20.5-33.1-43.8-43.2-69.7
		c-8.4-21.7-13.4-44.2-14.7-67.5c-0.1-2.3-0.3-4.6-0.4-6.8c0-4.5,0-9,0-13.5c0.1-0.3,0.1-0.7,0.1-1c0.5-15.6,2.6-30.9,6.4-46
		c10.7-42.7,32.2-79.1,64.2-109.3c16.9-15.9,35.8-28.9,56.8-38.9c26.2-12.5,53.9-19.7,82.9-21.4c2.3-0.1,4.6-0.3,6.9-0.4
		c4.5,0,9,0,13.5,0c0.3,0.1,0.5,0.1,0.8,0.1c10.7,0.3,21.3,1.5,31.8,3.3c20.6,3.7,40.3,10.1,59.1,19.4
		c25.5,12.6,47.8,29.4,66.9,50.4c22.1,24.3,38.1,52.1,48.1,83.4c5.6,17.8,9,36,10,54.6C447.7,213.9,447.9,216.6,448,219.2z
		 M222.2,435.3c116.5,0.9,211.2-92.7,213.1-207.4C437.2,109.7,342.9,14.1,227,12.6C109,11.2,14,105.6,12.6,221.1
		C11.2,339.7,106.6,434.5,222.2,435.3z"/>
	<path opacity="0.79" fill="#414042" d="M222.1,448C99.6,447.1-1.5,346.6,0,221C1.5,98.5,102.2-1.5,227.2,0
		C350,1.5,450,102.9,448,228.1C446,349.7,345.6,449,222.1,448z M52.1,225.7c-10.8,0-21.4,0-32.1,0c0.2,35.4,9.1,68.3,26.4,99.2
		c9.5-5.5,19-10.9,28.5-16.4c0.5,1,1,1.8,1.5,2.7c-9.6,5.6-19,11.1-28.4,16.5c18.2,30.3,42.3,54.5,72.7,72.5
		c5.5-9.5,11-18.9,16.5-28.4c0.9,0.5,1.7,1,2.6,1.5c-5.4,9.4-10.7,18.6-16,27.9c0.2,0.2,0.3,0.3,0.5,0.4c4.9,2.7,9.7,5.7,14.7,8.1
		c12.6,6,25.9,10.1,39.4,13.4c11.5,2.7,23,4.9,34.9,4.7c3.1-0.1,6.3-0.4,9.5-0.7c0-10.5,0-20.9,0-31.2c0.4,0,0.7-0.1,1-0.1
		c2.4,0,2.1-0.2,2.1,2c0,9.7,0,19.4,0,29.2c0,0.5,0,1,0,1.5c35.3-0.7,68.4-9.1,99.1-26.6c-5.5-9.5-10.9-19-16.4-28.5
		c1-0.6,1.8-1,2.6-1.5c5.6,9.6,11.1,19,16.6,28.5c30.3-18.3,54.6-42.3,72.5-72.9c-9.5-5.5-18.9-11-28.4-16.5c0.6-0.9,1-1.7,1.6-2.6
		c9.5,5.5,19,11,28.5,16.4c17.3-30.8,26-63.8,26.4-99.2c-0.7,0-1.2,0-1.7,0c-9.7,0-19.4,0-29.2,0c-0.3,0-0.7,0.1-1,0
		c-0.3-0.1-0.6-0.4-0.6-0.7c-0.1-0.8,0-1.7,0-2.7c10.9,0,21.6,0,32.3,0c-0.5-35.3-9-68.3-26.5-99c-9.5,5.5-18.9,10.9-28.5,16.4
		c-0.5-0.9-1-1.7-1.5-2.6c9.6-5.6,19-11.1,28.5-16.6c-18.2-30.3-42.3-54.5-72.7-72.6c-5.5,9.5-11,18.9-16.5,28.4
		c-0.9-0.5-1.7-1-2.6-1.5c5.5-9.6,11-19.1,16.4-28.6c-30.9-17.3-63.9-25.9-99.3-26.4c0,10.8,0,21.6,0,32.5c-1.1,0-2,0-3.1,0
		c0-10.8,0-21.4,0-32.2c-35.4,0.3-68.4,9-99.2,26.4c5.5,9.5,10.9,19,16.4,28.5c-1,0.6-1.8,1-2.7,1.5c-5.5-9.6-11-19.1-16.5-28.5
		c-32.1,19.6-54.9,43.3-72.6,72.7c9.5,5.5,19,11,28.5,16.6c-0.5,0.9-1,1.7-1.5,2.6c-9.6-5.5-19-11-28.6-16.5
		c-8.4,15.2-15.1,31.1-19.5,47.9c-4.5,16.8-6.6,33.8-7,51.3c10.9,0,21.7,0,32.5,0C52.1,223.6,52.1,224.5,52.1,225.7z"/>
	<radialGradient id="SVGID_1_" cx="224" cy="224" r="223.998" gradientUnits="userSpaceOnUse">
		<stop  offset="0" style="stop-color:#F1F2F2;stop-opacity:0"/>
		<stop  offset="1" style="stop-color:#21409A"/>
	</radialGradient>
	<path opacity="0.5" fill="url(#SVGID_1_)" d="M224,448C100.3,448,0,347.5,0,223.8C0,100.2,100.5-0.1,224.3,0
		C347.8,0.1,448.1,100.6,448,224.4C447.9,347.7,347.4,448,224,448z M224.2,16C109.3,16,16.1,108.9,16,223.5
		C15.9,338.7,108.9,432,223.8,432c114.8,0,208.1-93,208.2-207.5C432.1,109.3,339.1,16,224.2,16z"/>
	<g>
		
			<radialGradient id="SVGID_2_" cx="216.4989" cy="42.2778" r="7.9821" gradientTransform="matrix(0.924 0 0 0.924 23.9527 22.3099)" gradientUnits="userSpaceOnUse">
			<stop  offset="0" style="stop-color:#F1F2F2;stop-opacity:0"/>
			<stop  offset="1" style="stop-color:#21409A"/>
		</radialGradient>
		<path fill="url(#SVGID_2_)" d="M231.4,61.4c0,3.9-3.3,7.3-7.3,7.4c-4.1,0.1-7.6-3.5-7.5-7.6c0.1-3.9,3.6-7.2,7.5-7.1
			C228.1,54.1,231.4,57.5,231.4,61.4z"/>
		
			<radialGradient id="SVGID_3_" cx="40.5002" cy="218.2791" r="7.9817" gradientTransform="matrix(0.924 0 0 0.924 23.9527 22.3099)" gradientUnits="userSpaceOnUse">
			<stop  offset="0" style="stop-color:#F1F2F2;stop-opacity:0"/>
			<stop  offset="1" style="stop-color:#21409A"/>
		</radialGradient>
		<path fill="url(#SVGID_3_)" d="M68.7,223.9c0,3.9-3.3,7.3-7.2,7.4c-4.1,0.1-7.6-3.4-7.6-7.5c0.1-3.9,3.5-7.2,7.4-7.2
			C65.4,216.7,68.7,220,68.7,223.9z"/>
		
			<radialGradient id="SVGID_4_" cx="392.4999" cy="218.2771" r="7.9816" gradientTransform="matrix(0.924 0 0 0.924 23.9527 22.3099)" gradientUnits="userSpaceOnUse">
			<stop  offset="0" style="stop-color:#F1F2F2;stop-opacity:0"/>
			<stop  offset="1" style="stop-color:#21409A"/>
		</radialGradient>
		<path fill="url(#SVGID_4_)" d="M386.7,231.4c-3.9,0-7.3-3.3-7.4-7.2c-0.1-4.1,3.4-7.6,7.5-7.6c3.9,0.1,7.2,3.5,7.2,7.4
			C394,228,390.6,231.3,386.7,231.4z"/>
		
			<radialGradient id="SVGID_5_" cx="216.5016" cy="394.2754" r="7.9823" gradientTransform="matrix(0.924 0 0 0.924 23.9527 22.3099)" gradientUnits="userSpaceOnUse">
			<stop  offset="0" style="stop-color:#F1F2F2;stop-opacity:0"/>
			<stop  offset="1" style="stop-color:#21409A"/>
		</radialGradient>
		<path fill="url(#SVGID_5_)" d="M224,394c-3.9,0-7.3-3.3-7.3-7.3c0-4.1,3.5-7.6,7.6-7.5c3.9,0.1,7.2,3.6,7.1,7.5
			C231.3,390.7,227.9,394,224,394z"/>
		
			<radialGradient id="SVGID_6_" cx="128.5003" cy="65.9335" r="7.9555" gradientTransform="matrix(0.924 0 0 0.924 23.9527 22.3099)" gradientUnits="userSpaceOnUse">
			<stop  offset="0" style="stop-color:#F1F2F2;stop-opacity:0"/>
			<stop  offset="1" style="stop-color:#21409A"/>
		</radialGradient>
		<path fill="url(#SVGID_6_)" d="M150.1,83.3c-0.1,4-3.4,7.3-7.4,7.3c-4.2,0-7.6-3.6-7.4-7.7c0.2-4.1,3.5-7.1,7.6-6.9
			C147,76,150.1,79.2,150.1,83.3z"/>
		
			<radialGradient id="SVGID_7_" cx="304.4998" cy="65.9321" r="7.9566" gradientTransform="matrix(0.924 0 0 0.924 23.9527 22.3099)" gradientUnits="userSpaceOnUse">
			<stop  offset="0" style="stop-color:#F1F2F2;stop-opacity:0"/>
			<stop  offset="1" style="stop-color:#21409A"/>
		</radialGradient>
		<path fill="url(#SVGID_7_)" d="M312.7,83.4c-0.1,4-3.5,7.2-7.5,7.2c-4.2-0.1-7.5-3.7-7.3-7.8c0.2-4,3.6-7,7.7-6.8
			C309.7,76.1,312.8,79.3,312.7,83.4z"/>
		
			<radialGradient id="SVGID_8_" cx="64.156" cy="130.2786" r="7.9558" gradientTransform="matrix(0.924 0 0 0.924 23.9527 22.3099)" gradientUnits="userSpaceOnUse">
			<stop  offset="0" style="stop-color:#F1F2F2;stop-opacity:0"/>
			<stop  offset="1" style="stop-color:#21409A"/>
		</radialGradient>
		<path fill="url(#SVGID_8_)" d="M90.6,142.7c0,4-3.3,7.3-7.3,7.3c-4.2,0-7.5-3.3-7.4-7.6c0.1-4.1,3.4-7.2,7.4-7.1
			C87.3,135.4,90.6,138.8,90.6,142.7z"/>
		
			<radialGradient id="SVGID_9_" cx="368.8441" cy="130.2779" r="7.9559" gradientTransform="matrix(0.924 0 0 0.924 23.9527 22.3099)" gradientUnits="userSpaceOnUse">
			<stop  offset="0" style="stop-color:#F1F2F2;stop-opacity:0"/>
			<stop  offset="1" style="stop-color:#21409A"/>
		</radialGradient>
		<path fill="url(#SVGID_9_)" d="M364.8,150.1c-4,0-7.3-3.3-7.4-7.3c-0.1-4.2,3.5-7.6,7.6-7.5c4.1,0.1,7.1,3.4,7,7.5
			C372,146.9,368.8,150.1,364.8,150.1z"/>
		
			<radialGradient id="SVGID_10_" cx="64.1613" cy="306.2785" r="7.9582" gradientTransform="matrix(0.924 0 0 0.924 23.9527 22.3099)" gradientUnits="userSpaceOnUse">
			<stop  offset="0" style="stop-color:#F1F2F2;stop-opacity:0"/>
			<stop  offset="1" style="stop-color:#21409A"/>
		</radialGradient>
		<path fill="url(#SVGID_10_)" d="M83,297.9c4-0.1,7.4,3.1,7.5,7.1c0.2,4.1-3.3,7.7-7.4,7.6c-4.1,0-7.2-3.2-7.2-7.3
			C75.9,301.2,79,298,83,297.9z"/>
		
			<radialGradient id="SVGID_11_" cx="368.8441" cy="306.2779" r="7.9559" gradientTransform="matrix(0.924 0 0 0.924 23.9527 22.3099)" gradientUnits="userSpaceOnUse">
			<stop  offset="0" style="stop-color:#F1F2F2;stop-opacity:0"/>
			<stop  offset="1" style="stop-color:#21409A"/>
		</radialGradient>
		<path fill="url(#SVGID_11_)" d="M364.8,312.7c-4,0-7.3-3.3-7.4-7.3c-0.1-4.2,3.5-7.6,7.6-7.5c4.1,0.1,7.1,3.4,7,7.5
			C372,309.5,368.8,312.7,364.8,312.7z"/>
		
			<radialGradient id="SVGID_12_" cx="128.5018" cy="370.619" r="7.9581" gradientTransform="matrix(0.924 0 0 0.924 23.9527 22.3099)" gradientUnits="userSpaceOnUse">
			<stop  offset="0" style="stop-color:#F1F2F2;stop-opacity:0"/>
			<stop  offset="1" style="stop-color:#21409A"/>
		</radialGradient>
		<path fill="url(#SVGID_12_)" d="M150.1,364.9c0,4.1-3.2,7.2-7.4,7.2c-4.1,0-7.3-3.1-7.4-7.1c-0.1-4.2,3.4-7.6,7.6-7.5
			C146.9,357.6,150.1,360.9,150.1,364.9z"/>
		
			<radialGradient id="SVGID_13_" cx="304.5006" cy="370.6219" r="7.9556" gradientTransform="matrix(0.924 0 0 0.924 23.9527 22.3099)" gradientUnits="userSpaceOnUse">
			<stop  offset="0" style="stop-color:#F1F2F2;stop-opacity:0"/>
			<stop  offset="1" style="stop-color:#21409A"/>
		</radialGradient>
		<path fill="url(#SVGID_13_)" d="M305.5,372.1c-4.1,0.1-7.4-2.9-7.5-7c-0.2-4.2,3.3-7.7,7.4-7.7c4,0,7.3,3.3,7.3,7.3
			C312.7,368.8,309.6,372,305.5,372.1z"/>
	</g>
</g>
</svg>
